<?xml version="1.0" encoding="utf-8" standalone="no"?>
<!DOCTYPE svg PUBLIC "-//W3C//DTD SVG 1.1//EN"
  "http://www.w3.org/Graphics/SVG/1.1/DTD/svg11.dtd">
<svg xmlns:xlink="http://www.w3.org/1999/xlink" width="864pt" height="722.88pt" viewBox="0 0 864 722.88" xmlns="http://www.w3.org/2000/svg" version="1.1">
 <metadata>
  <rdf:RDF xmlns:dc="http://purl.org/dc/elements/1.1/" xmlns:cc="http://creativecommons.org/ns#" xmlns:rdf="http://www.w3.org/1999/02/22-rdf-syntax-ns#">
   <cc:Work>
    <dc:type rdf:resource="http://purl.org/dc/dcmitype/StillImage"/>
    <dc:date>2022-09-28T18:33:30.807832</dc:date>
    <dc:format>image/svg+xml</dc:format>
    <dc:creator>
     <cc:Agent>
      <dc:title>Matplotlib v3.5.3, https://matplotlib.org/</dc:title>
     </cc:Agent>
    </dc:creator>
   </cc:Work>
  </rdf:RDF>
 </metadata>
 <defs>
  <style type="text/css">*{stroke-linejoin: round; stroke-linecap: butt}</style>
 </defs>
 <g id="figure_1">
  <g id="patch_1">
   <path d="M 0 722.88 
L 864 722.88 
L 864 0 
L 0 0 
z
" style="fill: #ffffff"/>
  </g>
  <g id="axes_1">
   <g id="patch_2">
    <path d="M 164.4912 643.3632 
L 721.1088 643.3632 
L 721.1088 86.7456 
L 164.4912 86.7456 
z
" style="fill: #ffffff"/>
   </g>
   <g id="patch_3">
    <path d="M 581.9544 532.03968 
C 581.9544 528.350491 567.283524 524.808628 541.19702 522.199978 
C 515.110516 519.591328 479.691887 518.12424 442.8 518.12424 
C 405.908113 518.12424 370.489484 519.591328 344.40298 522.199978 
C 318.316476 524.808628 303.6456 528.350491 303.6456 532.03968 
" clip-path="url(#p3c39553f8e)" style="fill: none; stroke: #000000; stroke-linejoin: miter"/>
   </g>
   <g id="PolyCollection_1">
    <defs>
     <path id="m02afd24ec8" d="M 442.8 -636.1344 
L 442.8 -636.1344 
L 501.687166 -246.50208 
L 383.912834 -246.50208 
L 383.912834 -246.50208 
L 442.8 -636.1344 
z
" style="stroke: #7fffd4"/>
    </defs>
    <g clip-path="url(#p3c39553f8e)">
     <use xlink:href="#m02afd24ec8" x="0" y="722.88" style="fill: #7fffd4; stroke: #7fffd4"/>
    </g>
   </g>
   <g id="PolyCollection_2">
    <defs>
     <path id="mb67b5f0131" d="M 403.0715 -246.50208 
L 482.5285 -246.50208 
L 488.204 -190.84032 
L 397.396 -190.84032 
L 397.396 -190.84032 
L 403.0715 -246.50208 
z
" style="stroke: #7fffd4"/>
    </defs>
    <g clip-path="url(#p3c39553f8e)">
     <use xlink:href="#mb67b5f0131" x="0" y="722.88" style="fill: #7fffd4; stroke: #7fffd4"/>
    </g>
   </g>
   <g id="PolyCollection_3">
    <defs>
     <path id="m5933b006e5" d="M 397.396 -190.84032 
L 488.204 -190.84032 
L 481.3934 -79.5168 
L 404.2066 -79.5168 
L 404.2066 -79.5168 
L 397.396 -190.84032 
z
" style="stroke: #7fffd4"/>
    </defs>
    <g clip-path="url(#p3c39553f8e)">
     <use xlink:href="#m5933b006e5" x="0" y="722.88" style="fill: #7fffd4; stroke: #7fffd4"/>
    </g>
   </g>
   <g id="line2d_1">
    <path d="M 442.8 86.7456 
L 501.687166 476.37792 
" clip-path="url(#p3c39553f8e)" style="fill: none; stroke: #696969; stroke-width: 0.25; stroke-linecap: square"/>
   </g>
   <g id="line2d_2">
    <path d="M 442.8 86.7456 
L 497.835915 476.37792 
" clip-path="url(#p3c39553f8e)" style="fill: none; stroke: #696969; stroke-width: 0.25; stroke-linecap: square"/>
   </g>
   <g id="line2d_3">
    <path d="M 442.8 86.7456 
L 493.995178 476.37792 
" clip-path="url(#p3c39553f8e)" style="fill: none; stroke: #696969; stroke-width: 0.25; stroke-linecap: square"/>
   </g>
   <g id="line2d_4">
    <path d="M 442.8 86.7456 
L 490.164197 476.37792 
" clip-path="url(#p3c39553f8e)" style="fill: none; stroke: #696969; stroke-width: 0.25; stroke-linecap: square"/>
   </g>
   <g id="line2d_5">
    <path d="M 442.8 86.7456 
L 486.34222 476.37792 
" clip-path="url(#p3c39553f8e)" style="fill: none; stroke: #696969; stroke-width: 0.25; stroke-linecap: square"/>
   </g>
   <g id="line2d_6">
    <path d="M 442.8 86.7456 
L 482.5285 476.37792 
" clip-path="url(#p3c39553f8e)" style="fill: none; stroke: #696969; stroke-width: 0.25; stroke-linecap: square"/>
   </g>
   <g id="line2d_7">
    <path d="M 442.8 86.7456 
L 478.7223 476.37792 
" clip-path="url(#p3c39553f8e)" style="fill: none; stroke: #696969; stroke-width: 0.25; stroke-linecap: square"/>
   </g>
   <g id="line2d_8">
    <path d="M 442.8 86.7456 
L 474.922885 476.37792 
" clip-path="url(#p3c39553f8e)" style="fill: none; stroke: #696969; stroke-width: 0.25; stroke-linecap: square"/>
   </g>
   <g id="line2d_9">
    <path d="M 442.8 86.7456 
L 471.129529 476.37792 
" clip-path="url(#p3c39553f8e)" style="fill: none; stroke: #696969; stroke-width: 0.25; stroke-linecap: square"/>
   </g>
   <g id="line2d_10">
    <path d="M 442.8 86.7456 
L 467.341507 476.37792 
" clip-path="url(#p3c39553f8e)" style="fill: none; stroke: #696969; stroke-width: 0.25; stroke-linecap: square"/>
   </g>
   <g id="line2d_11">
    <path d="M 442.8 86.7456 
L 463.558101 476.37792 
" clip-path="url(#p3c39553f8e)" style="fill: none; stroke: #696969; stroke-width: 0.25; stroke-linecap: square"/>
   </g>
   <g id="line2d_12">
    <path d="M 442.8 86.7456 
L 459.778594 476.37792 
" clip-path="url(#p3c39553f8e)" style="fill: none; stroke: #696969; stroke-width: 0.25; stroke-linecap: square"/>
   </g>
   <g id="line2d_13">
    <path d="M 442.8 86.7456 
L 456.002273 476.37792 
" clip-path="url(#p3c39553f8e)" style="fill: none; stroke: #696969; stroke-width: 0.25; stroke-linecap: square"/>
   </g>
   <g id="line2d_14">
    <path d="M 442.8 86.7456 
L 452.228428 476.37792 
" clip-path="url(#p3c39553f8e)" style="fill: none; stroke: #696969; stroke-width: 0.25; stroke-linecap: square"/>
   </g>
   <g id="line2d_15">
    <path d="M 442.8 86.7456 
L 448.45635 476.37792 
" clip-path="url(#p3c39553f8e)" style="fill: none; stroke: #696969; stroke-width: 0.25; stroke-linecap: square"/>
   </g>
   <g id="line2d_16">
    <path d="M 442.8 86.7456 
L 444.685332 476.37792 
" clip-path="url(#p3c39553f8e)" style="fill: none; stroke: #696969; stroke-width: 0.25; stroke-linecap: square"/>
   </g>
   <g id="line2d_17">
    <path d="M 442.8 86.7456 
L 440.914668 476.37792 
" clip-path="url(#p3c39553f8e)" style="fill: none; stroke: #696969; stroke-width: 0.25; stroke-linecap: square"/>
   </g>
   <g id="line2d_18">
    <path d="M 442.8 86.7456 
L 437.14365 476.37792 
" clip-path="url(#p3c39553f8e)" style="fill: none; stroke: #696969; stroke-width: 0.25; stroke-linecap: square"/>
   </g>
   <g id="line2d_19">
    <path d="M 442.8 86.7456 
L 433.371572 476.37792 
" clip-path="url(#p3c39553f8e)" style="fill: none; stroke: #696969; stroke-width: 0.25; stroke-linecap: square"/>
   </g>
   <g id="line2d_20">
    <path d="M 442.8 86.7456 
L 429.597727 476.37792 
" clip-path="url(#p3c39553f8e)" style="fill: none; stroke: #696969; stroke-width: 0.25; stroke-linecap: square"/>
   </g>
   <g id="line2d_21">
    <path d="M 442.8 86.7456 
L 425.821406 476.37792 
" clip-path="url(#p3c39553f8e)" style="fill: none; stroke: #696969; stroke-width: 0.25; stroke-linecap: square"/>
   </g>
   <g id="line2d_22">
    <path d="M 442.8 86.7456 
L 422.041899 476.37792 
" clip-path="url(#p3c39553f8e)" style="fill: none; stroke: #696969; stroke-width: 0.25; stroke-linecap: square"/>
   </g>
   <g id="line2d_23">
    <path d="M 442.8 86.7456 
L 418.258493 476.37792 
" clip-path="url(#p3c39553f8e)" style="fill: none; stroke: #696969; stroke-width: 0.25; stroke-linecap: square"/>
   </g>
   <g id="line2d_24">
    <path d="M 442.8 86.7456 
L 414.470471 476.37792 
" clip-path="url(#p3c39553f8e)" style="fill: none; stroke: #696969; stroke-width: 0.25; stroke-linecap: square"/>
   </g>
   <g id="line2d_25">
    <path d="M 442.8 86.7456 
L 410.677115 476.37792 
" clip-path="url(#p3c39553f8e)" style="fill: none; stroke: #696969; stroke-width: 0.25; stroke-linecap: square"/>
   </g>
   <g id="line2d_26">
    <path d="M 442.8 86.7456 
L 406.8777 476.37792 
" clip-path="url(#p3c39553f8e)" style="fill: none; stroke: #696969; stroke-width: 0.25; stroke-linecap: square"/>
   </g>
   <g id="line2d_27">
    <path d="M 442.8 86.7456 
L 403.0715 476.37792 
" clip-path="url(#p3c39553f8e)" style="fill: none; stroke: #696969; stroke-width: 0.25; stroke-linecap: square"/>
   </g>
   <g id="line2d_28">
    <path d="M 442.8 86.7456 
L 399.25778 476.37792 
" clip-path="url(#p3c39553f8e)" style="fill: none; stroke: #696969; stroke-width: 0.25; stroke-linecap: square"/>
   </g>
   <g id="line2d_29">
    <path d="M 442.8 86.7456 
L 395.435803 476.37792 
" clip-path="url(#p3c39553f8e)" style="fill: none; stroke: #696969; stroke-width: 0.25; stroke-linecap: square"/>
   </g>
   <g id="line2d_30">
    <path d="M 442.8 86.7456 
L 391.604822 476.37792 
" clip-path="url(#p3c39553f8e)" style="fill: none; stroke: #696969; stroke-width: 0.25; stroke-linecap: square"/>
   </g>
   <g id="line2d_31">
    <path d="M 442.8 86.7456 
L 387.764085 476.37792 
" clip-path="url(#p3c39553f8e)" style="fill: none; stroke: #696969; stroke-width: 0.25; stroke-linecap: square"/>
   </g>
   <g id="line2d_32">
    <path d="M 442.8 86.7456 
L 383.912834 476.37792 
" clip-path="url(#p3c39553f8e)" style="fill: none; stroke: #696969; stroke-width: 0.25; stroke-linecap: square"/>
   </g>
   <g id="line2d_33">
    <path d="M 482.5285 476.37792 
L 488.204 532.03968 
" clip-path="url(#p3c39553f8e)" style="fill: none; stroke: #696969; stroke-width: 0.25; stroke-linecap: square"/>
   </g>
   <g id="line2d_34">
    <path d="M 478.7223 476.37792 
L 483.854057 532.03968 
" clip-path="url(#p3c39553f8e)" style="fill: none; stroke: #696969; stroke-width: 0.25; stroke-linecap: square"/>
   </g>
   <g id="line2d_35">
    <path d="M 474.922885 476.37792 
L 479.511869 532.03968 
" clip-path="url(#p3c39553f8e)" style="fill: none; stroke: #696969; stroke-width: 0.25; stroke-linecap: square"/>
   </g>
   <g id="line2d_36">
    <path d="M 471.129529 476.37792 
L 475.176604 532.03968 
" clip-path="url(#p3c39553f8e)" style="fill: none; stroke: #696969; stroke-width: 0.25; stroke-linecap: square"/>
   </g>
   <g id="line2d_37">
    <path d="M 467.341507 476.37792 
L 470.847437 532.03968 
" clip-path="url(#p3c39553f8e)" style="fill: none; stroke: #696969; stroke-width: 0.25; stroke-linecap: square"/>
   </g>
   <g id="line2d_38">
    <path d="M 463.558101 476.37792 
L 466.523544 532.03968 
" clip-path="url(#p3c39553f8e)" style="fill: none; stroke: #696969; stroke-width: 0.25; stroke-linecap: square"/>
   </g>
   <g id="line2d_39">
    <path d="M 459.778594 476.37792 
L 462.204107 532.03968 
" clip-path="url(#p3c39553f8e)" style="fill: none; stroke: #696969; stroke-width: 0.25; stroke-linecap: square"/>
   </g>
   <g id="line2d_40">
    <path d="M 456.002273 476.37792 
L 457.888312 532.03968 
" clip-path="url(#p3c39553f8e)" style="fill: none; stroke: #696969; stroke-width: 0.25; stroke-linecap: square"/>
   </g>
   <g id="line2d_41">
    <path d="M 452.228428 476.37792 
L 453.575346 532.03968 
" clip-path="url(#p3c39553f8e)" style="fill: none; stroke: #696969; stroke-width: 0.25; stroke-linecap: square"/>
   </g>
   <g id="line2d_42">
    <path d="M 448.45635 476.37792 
L 449.2644 532.03968 
" clip-path="url(#p3c39553f8e)" style="fill: none; stroke: #696969; stroke-width: 0.25; stroke-linecap: square"/>
   </g>
   <g id="line2d_43">
    <path d="M 444.685332 476.37792 
L 444.954666 532.03968 
" clip-path="url(#p3c39553f8e)" style="fill: none; stroke: #696969; stroke-width: 0.25; stroke-linecap: square"/>
   </g>
   <g id="line2d_44">
    <path d="M 440.914668 476.37792 
L 440.645334 532.03968 
" clip-path="url(#p3c39553f8e)" style="fill: none; stroke: #696969; stroke-width: 0.25; stroke-linecap: square"/>
   </g>
   <g id="line2d_45">
    <path d="M 437.14365 476.37792 
L 436.3356 532.03968 
" clip-path="url(#p3c39553f8e)" style="fill: none; stroke: #696969; stroke-width: 0.25; stroke-linecap: square"/>
   </g>
   <g id="line2d_46">
    <path d="M 433.371572 476.37792 
L 432.024654 532.03968 
" clip-path="url(#p3c39553f8e)" style="fill: none; stroke: #696969; stroke-width: 0.25; stroke-linecap: square"/>
   </g>
   <g id="line2d_47">
    <path d="M 429.597727 476.37792 
L 427.711688 532.03968 
" clip-path="url(#p3c39553f8e)" style="fill: none; stroke: #696969; stroke-width: 0.25; stroke-linecap: square"/>
   </g>
   <g id="line2d_48">
    <path d="M 425.821406 476.37792 
L 423.395893 532.03968 
" clip-path="url(#p3c39553f8e)" style="fill: none; stroke: #696969; stroke-width: 0.25; stroke-linecap: square"/>
   </g>
   <g id="line2d_49">
    <path d="M 422.041899 476.37792 
L 419.076456 532.03968 
" clip-path="url(#p3c39553f8e)" style="fill: none; stroke: #696969; stroke-width: 0.25; stroke-linecap: square"/>
   </g>
   <g id="line2d_50">
    <path d="M 418.258493 476.37792 
L 414.752563 532.03968 
" clip-path="url(#p3c39553f8e)" style="fill: none; stroke: #696969; stroke-width: 0.25; stroke-linecap: square"/>
   </g>
   <g id="line2d_51">
    <path d="M 414.470471 476.37792 
L 410.423396 532.03968 
" clip-path="url(#p3c39553f8e)" style="fill: none; stroke: #696969; stroke-width: 0.25; stroke-linecap: square"/>
   </g>
   <g id="line2d_52">
    <path d="M 410.677115 476.37792 
L 406.088131 532.03968 
" clip-path="url(#p3c39553f8e)" style="fill: none; stroke: #696969; stroke-width: 0.25; stroke-linecap: square"/>
   </g>
   <g id="line2d_53">
    <path d="M 406.8777 476.37792 
L 401.745943 532.03968 
" clip-path="url(#p3c39553f8e)" style="fill: none; stroke: #696969; stroke-width: 0.25; stroke-linecap: square"/>
   </g>
   <g id="line2d_54">
    <path d="M 403.0715 476.37792 
L 397.396 532.03968 
" clip-path="url(#p3c39553f8e)" style="fill: none; stroke: #696969; stroke-width: 0.25; stroke-linecap: square"/>
   </g>
   <g id="line2d_55">
    <path d="M 488.204 532.03968 
L 481.3934 643.3632 
" clip-path="url(#p3c39553f8e)" style="fill: none; stroke: #696969; stroke-width: 0.25; stroke-linecap: square"/>
   </g>
   <g id="line2d_56">
    <path d="M 483.854057 532.03968 
L 477.695948 643.3632 
" clip-path="url(#p3c39553f8e)" style="fill: none; stroke: #696969; stroke-width: 0.25; stroke-linecap: square"/>
   </g>
   <g id="line2d_57">
    <path d="M 479.511869 532.03968 
L 474.005088 643.3632 
" clip-path="url(#p3c39553f8e)" style="fill: none; stroke: #696969; stroke-width: 0.25; stroke-linecap: square"/>
   </g>
   <g id="line2d_58">
    <path d="M 475.176604 532.03968 
L 470.320114 643.3632 
" clip-path="url(#p3c39553f8e)" style="fill: none; stroke: #696969; stroke-width: 0.25; stroke-linecap: square"/>
   </g>
   <g id="line2d_59">
    <path d="M 470.847437 532.03968 
L 466.640321 643.3632 
" clip-path="url(#p3c39553f8e)" style="fill: none; stroke: #696969; stroke-width: 0.25; stroke-linecap: square"/>
   </g>
   <g id="line2d_60">
    <path d="M 466.523544 532.03968 
L 462.965012 643.3632 
" clip-path="url(#p3c39553f8e)" style="fill: none; stroke: #696969; stroke-width: 0.25; stroke-linecap: square"/>
   </g>
   <g id="line2d_61">
    <path d="M 462.204107 532.03968 
L 459.293491 643.3632 
" clip-path="url(#p3c39553f8e)" style="fill: none; stroke: #696969; stroke-width: 0.25; stroke-linecap: square"/>
   </g>
   <g id="line2d_62">
    <path d="M 457.888312 532.03968 
L 455.625065 643.3632 
" clip-path="url(#p3c39553f8e)" style="fill: none; stroke: #696969; stroke-width: 0.25; stroke-linecap: square"/>
   </g>
   <g id="line2d_63">
    <path d="M 453.575346 532.03968 
L 451.959044 643.3632 
" clip-path="url(#p3c39553f8e)" style="fill: none; stroke: #696969; stroke-width: 0.25; stroke-linecap: square"/>
   </g>
   <g id="line2d_64">
    <path d="M 449.2644 532.03968 
L 448.29474 643.3632 
" clip-path="url(#p3c39553f8e)" style="fill: none; stroke: #696969; stroke-width: 0.25; stroke-linecap: square"/>
   </g>
   <g id="line2d_65">
    <path d="M 444.954666 532.03968 
L 444.631466 643.3632 
" clip-path="url(#p3c39553f8e)" style="fill: none; stroke: #696969; stroke-width: 0.25; stroke-linecap: square"/>
   </g>
   <g id="line2d_66">
    <path d="M 440.645334 532.03968 
L 440.968534 643.3632 
" clip-path="url(#p3c39553f8e)" style="fill: none; stroke: #696969; stroke-width: 0.25; stroke-linecap: square"/>
   </g>
   <g id="line2d_67">
    <path d="M 436.3356 532.03968 
L 437.30526 643.3632 
" clip-path="url(#p3c39553f8e)" style="fill: none; stroke: #696969; stroke-width: 0.25; stroke-linecap: square"/>
   </g>
   <g id="line2d_68">
    <path d="M 432.024654 532.03968 
L 433.640956 643.3632 
" clip-path="url(#p3c39553f8e)" style="fill: none; stroke: #696969; stroke-width: 0.25; stroke-linecap: square"/>
   </g>
   <g id="line2d_69">
    <path d="M 427.711688 532.03968 
L 429.974935 643.3632 
" clip-path="url(#p3c39553f8e)" style="fill: none; stroke: #696969; stroke-width: 0.25; stroke-linecap: square"/>
   </g>
   <g id="line2d_70">
    <path d="M 423.395893 532.03968 
L 426.306509 643.3632 
" clip-path="url(#p3c39553f8e)" style="fill: none; stroke: #696969; stroke-width: 0.25; stroke-linecap: square"/>
   </g>
   <g id="line2d_71">
    <path d="M 419.076456 532.03968 
L 422.634988 643.3632 
" clip-path="url(#p3c39553f8e)" style="fill: none; stroke: #696969; stroke-width: 0.25; stroke-linecap: square"/>
   </g>
   <g id="line2d_72">
    <path d="M 414.752563 532.03968 
L 418.959679 643.3632 
" clip-path="url(#p3c39553f8e)" style="fill: none; stroke: #696969; stroke-width: 0.25; stroke-linecap: square"/>
   </g>
   <g id="line2d_73">
    <path d="M 410.423396 532.03968 
L 415.279886 643.3632 
" clip-path="url(#p3c39553f8e)" style="fill: none; stroke: #696969; stroke-width: 0.25; stroke-linecap: square"/>
   </g>
   <g id="line2d_74">
    <path d="M 406.088131 532.03968 
L 411.594912 643.3632 
" clip-path="url(#p3c39553f8e)" style="fill: none; stroke: #696969; stroke-width: 0.25; stroke-linecap: square"/>
   </g>
   <g id="line2d_75">
    <path d="M 401.745943 532.03968 
L 407.904052 643.3632 
" clip-path="url(#p3c39553f8e)" style="fill: none; stroke: #696969; stroke-width: 0.25; stroke-linecap: square"/>
   </g>
   <g id="line2d_76">
    <path d="M 397.396 532.03968 
L 404.2066 643.3632 
" clip-path="url(#p3c39553f8e)" style="fill: none; stroke: #696969; stroke-width: 0.25; stroke-linecap: square"/>
   </g>
   <g id="matplotlib.axis_1">
    <g id="xtick_1">
     <g id="line2d_77">
      <path d="M 303.6456 643.3632 
L 303.6456 86.7456 
" clip-path="url(#p3c39553f8e)" style="fill: none; stroke-dasharray: 1.85,0.8; stroke-dashoffset: 0; stroke: #d3d3d3; stroke-width: 0.5"/>
     </g>
     <g id="line2d_78">
      <defs>
       <path id="m31aadb248a" d="M 0 0 
L 0 3.5 
" style="stroke: #000000; stroke-width: 0.8"/>
      </defs>
      <g>
       <use xlink:href="#m31aadb248a" x="303.6456" y="643.3632" style="stroke: #000000; stroke-width: 0.8"/>
      </g>
     </g>
     <g id="text_1">
      <!-- −0.25 -->
      <g transform="translate(285.934506 660.406012)scale(0.14 -0.14)">
       <defs>
        <path id="Helvetica-2212" d="M 3547 1894 
L 3547 1369 
L 288 1369 
L 288 1894 
L 3547 1894 
z
" transform="scale(0.015625)"/>
        <path id="Helvetica-30" d="M 1731 4475 
Q 2600 4475 2988 3759 
Q 3288 3206 3288 2244 
Q 3288 1331 3016 734 
Q 2622 -122 1728 -122 
Q 922 -122 528 578 
Q 200 1163 200 2147 
Q 200 2909 397 3456 
Q 766 4475 1731 4475 
z
M 1725 391 
Q 2163 391 2422 778 
Q 2681 1166 2681 2222 
Q 2681 2984 2493 3476 
Q 2306 3969 1766 3969 
Q 1269 3969 1039 3501 
Q 809 3034 809 2125 
Q 809 1441 956 1025 
Q 1181 391 1725 391 
z
" transform="scale(0.015625)"/>
        <path id="Helvetica-2e" d="M 547 681 
L 1200 681 
L 1200 0 
L 547 0 
L 547 681 
z
" transform="scale(0.015625)"/>
        <path id="Helvetica-32" d="M 200 0 
Q 231 578 439 1006 
Q 647 1434 1250 1784 
L 1850 2131 
Q 2253 2366 2416 2531 
Q 2672 2791 2672 3125 
Q 2672 3516 2437 3745 
Q 2203 3975 1813 3975 
Q 1234 3975 1013 3538 
Q 894 3303 881 2888 
L 309 2888 
Q 319 3472 525 3841 
Q 891 4491 1816 4491 
Q 2584 4491 2939 4075 
Q 3294 3659 3294 3150 
Q 3294 2613 2916 2231 
Q 2697 2009 2131 1694 
L 1703 1456 
Q 1397 1288 1222 1134 
Q 909 863 828 531 
L 3272 531 
L 3272 0 
L 200 0 
z
" transform="scale(0.015625)"/>
        <path id="Helvetica-35" d="M 791 1141 
Q 847 659 1238 475 
Q 1438 381 1700 381 
Q 2200 381 2440 700 
Q 2681 1019 2681 1406 
Q 2681 1875 2395 2131 
Q 2109 2388 1709 2388 
Q 1419 2388 1211 2275 
Q 1003 2163 856 1963 
L 369 1991 
L 709 4400 
L 3034 4400 
L 3034 3856 
L 1131 3856 
L 941 2613 
Q 1097 2731 1238 2791 
Q 1488 2894 1816 2894 
Q 2431 2894 2859 2497 
Q 3288 2100 3288 1491 
Q 3288 856 2895 371 
Q 2503 -113 1644 -113 
Q 1097 -113 676 195 
Q 256 503 206 1141 
L 791 1141 
z
" transform="scale(0.015625)"/>
       </defs>
       <use xlink:href="#Helvetica-2212"/>
       <use xlink:href="#Helvetica-30" x="58.398438"/>
       <use xlink:href="#Helvetica-2e" x="114.013672"/>
       <use xlink:href="#Helvetica-32" x="141.796875"/>
       <use xlink:href="#Helvetica-35" x="197.412109"/>
      </g>
     </g>
    </g>
    <g id="xtick_2">
     <g id="line2d_79">
      <path d="M 442.8 643.3632 
L 442.8 86.7456 
" clip-path="url(#p3c39553f8e)" style="fill: none; stroke-dasharray: 1.85,0.8; stroke-dashoffset: 0; stroke: #d3d3d3; stroke-width: 0.5"/>
     </g>
     <g id="line2d_80">
      <g>
       <use xlink:href="#m31aadb248a" x="442.8" y="643.3632" style="stroke: #000000; stroke-width: 0.8"/>
      </g>
     </g>
     <g id="text_2">
      <!-- 0.00 -->
      <g transform="translate(429.177344 660.406012)scale(0.14 -0.14)">
       <use xlink:href="#Helvetica-30"/>
       <use xlink:href="#Helvetica-2e" x="55.615234"/>
       <use xlink:href="#Helvetica-30" x="83.398438"/>
       <use xlink:href="#Helvetica-30" x="139.013672"/>
      </g>
     </g>
    </g>
    <g id="xtick_3">
     <g id="line2d_81">
      <path d="M 581.9544 643.3632 
L 581.9544 86.7456 
" clip-path="url(#p3c39553f8e)" style="fill: none; stroke-dasharray: 1.85,0.8; stroke-dashoffset: 0; stroke: #d3d3d3; stroke-width: 0.5"/>
     </g>
     <g id="line2d_82">
      <g>
       <use xlink:href="#m31aadb248a" x="581.9544" y="643.3632" style="stroke: #000000; stroke-width: 0.8"/>
      </g>
     </g>
     <g id="text_3">
      <!-- 0.25 -->
      <g transform="translate(568.331744 660.406012)scale(0.14 -0.14)">
       <use xlink:href="#Helvetica-30"/>
       <use xlink:href="#Helvetica-2e" x="55.615234"/>
       <use xlink:href="#Helvetica-32" x="83.398438"/>
       <use xlink:href="#Helvetica-35" x="139.013672"/>
      </g>
     </g>
    </g>
   </g>
   <g id="matplotlib.axis_2"/>
   <g id="line2d_83">
    <path d="M 442.8 86.7456 
L 501.687166 476.37792 
" clip-path="url(#p3c39553f8e)" style="fill: none; stroke: #000000; stroke-linecap: square"/>
   </g>
   <g id="line2d_84">
    <path d="M 442.8 86.7456 
L 383.912834 476.37792 
" clip-path="url(#p3c39553f8e)" style="fill: none; stroke: #000000; stroke-linecap: square"/>
   </g>
   <g id="line2d_85">
    <path d="M 482.5285 476.37792 
L 488.204 532.03968 
" clip-path="url(#p3c39553f8e)" style="fill: none; stroke: #000000; stroke-linecap: square"/>
   </g>
   <g id="line2d_86">
    <path d="M 403.0715 476.37792 
L 397.396 532.03968 
" clip-path="url(#p3c39553f8e)" style="fill: none; stroke: #000000; stroke-linecap: square"/>
   </g>
   <g id="line2d_87">
    <path d="M 488.204 532.03968 
L 481.3934 643.3632 
" clip-path="url(#p3c39553f8e)" style="fill: none; stroke: #000000; stroke-linecap: square"/>
   </g>
   <g id="line2d_88">
    <path d="M 397.396 532.03968 
L 404.2066 643.3632 
" clip-path="url(#p3c39553f8e)" style="fill: none; stroke: #000000; stroke-linecap: square"/>
   </g>
   <g id="line2d_89">
    <path d="M 303.6456 643.3632 
L 581.9544 643.3632 
" clip-path="url(#p3c39553f8e)" style="fill: none; stroke: #696969; stroke-width: 4; stroke-linecap: square"/>
   </g>
   <g id="line2d_90">
    <path d="M 401.05368 476.37792 
L 303.6456 476.37792 
" clip-path="url(#p3c39553f8e)" style="fill: none; stroke: #000000; stroke-width: 6; stroke-linecap: square"/>
   </g>
   <g id="line2d_91">
    <path d="M 484.54632 476.37792 
L 581.9544 476.37792 
" clip-path="url(#p3c39553f8e)" style="fill: none; stroke: #000000; stroke-width: 6; stroke-linecap: square"/>
   </g>
   <g id="line2d_92">
    <path d="M 401.05368 476.37792 
L 303.6456 476.37792 
" clip-path="url(#p3c39553f8e)" style="fill: none; stroke: #696969; stroke-width: 4; stroke-linecap: square"/>
   </g>
   <g id="line2d_93">
    <path d="M 484.54632 476.37792 
L 581.9544 476.37792 
" clip-path="url(#p3c39553f8e)" style="fill: none; stroke: #696969; stroke-width: 4; stroke-linecap: square"/>
   </g>
   <g id="patch_4">
    <path d="M 303.6456 532.03968 
C 303.6456 535.728869 318.316476 539.270732 344.40298 541.879382 
C 370.489484 544.488032 405.908113 545.95512 442.8 545.95512 
C 479.691887 545.95512 515.110516 544.488032 541.19702 541.879382 
C 567.283524 539.270732 581.9544 535.728869 581.9544 532.03968 
" clip-path="url(#p3c39553f8e)" style="fill: none; stroke: #000000; stroke-linejoin: miter"/>
   </g>
   <g id="text_4">
    <!-- Electron Gun -->
    <g transform="translate(442.8 86.7456)scale(0.2 -0.2)">
     <defs>
      <path id="Helvetica-45" d="M 547 4591 
L 3894 4591 
L 3894 4028 
L 1153 4028 
L 1153 2634 
L 3688 2634 
L 3688 2103 
L 1153 2103 
L 1153 547 
L 3941 547 
L 3941 0 
L 547 0 
L 547 4591 
z
M 2244 4591 
L 2244 4591 
z
" transform="scale(0.015625)"/>
      <path id="Helvetica-6c" d="M 428 4591 
L 991 4591 
L 991 0 
L 428 0 
L 428 4591 
z
" transform="scale(0.015625)"/>
      <path id="Helvetica-65" d="M 1806 3422 
Q 2163 3422 2497 3255 
Q 2831 3088 3006 2822 
Q 3175 2569 3231 2231 
Q 3281 2000 3281 1494 
L 828 1494 
Q 844 984 1069 676 
Q 1294 369 1766 369 
Q 2206 369 2469 659 
Q 2619 828 2681 1050 
L 3234 1050 
Q 3213 866 3089 639 
Q 2966 413 2813 269 
Q 2556 19 2178 -69 
Q 1975 -119 1719 -119 
Q 1094 -119 659 336 
Q 225 791 225 1609 
Q 225 2416 662 2919 
Q 1100 3422 1806 3422 
z
M 2703 1941 
Q 2669 2306 2544 2525 
Q 2313 2931 1772 2931 
Q 1384 2931 1121 2651 
Q 859 2372 844 1941 
L 2703 1941 
z
M 1753 3428 
L 1753 3428 
z
" transform="scale(0.015625)"/>
      <path id="Helvetica-63" d="M 1703 3444 
Q 2269 3444 2623 3169 
Q 2978 2894 3050 2222 
L 2503 2222 
Q 2453 2531 2275 2736 
Q 2097 2941 1703 2941 
Q 1166 2941 934 2416 
Q 784 2075 784 1575 
Q 784 1072 996 728 
Q 1209 384 1666 384 
Q 2016 384 2220 598 
Q 2425 813 2503 1184 
L 3050 1184 
Q 2956 519 2581 211 
Q 2206 -97 1622 -97 
Q 966 -97 575 383 
Q 184 863 184 1581 
Q 184 2463 612 2953 
Q 1041 3444 1703 3444 
z
M 1616 3428 
L 1616 3428 
z
" transform="scale(0.015625)"/>
      <path id="Helvetica-74" d="M 525 4281 
L 1094 4281 
L 1094 3347 
L 1628 3347 
L 1628 2888 
L 1094 2888 
L 1094 703 
Q 1094 528 1213 469 
Q 1278 434 1431 434 
Q 1472 434 1519 436 
Q 1566 438 1628 444 
L 1628 0 
Q 1531 -28 1426 -40 
Q 1322 -53 1200 -53 
Q 806 -53 665 148 
Q 525 350 525 672 
L 525 2888 
L 72 2888 
L 72 3347 
L 525 3347 
L 525 4281 
z
" transform="scale(0.015625)"/>
      <path id="Helvetica-72" d="M 428 3347 
L 963 3347 
L 963 2769 
Q 1028 2938 1284 3180 
Q 1541 3422 1875 3422 
Q 1891 3422 1928 3419 
Q 1966 3416 2056 3406 
L 2056 2813 
Q 2006 2822 1964 2825 
Q 1922 2828 1872 2828 
Q 1447 2828 1219 2554 
Q 991 2281 991 1925 
L 991 0 
L 428 0 
L 428 3347 
z
" transform="scale(0.015625)"/>
      <path id="Helvetica-6f" d="M 1741 363 
Q 2300 363 2508 786 
Q 2716 1209 2716 1728 
Q 2716 2197 2566 2491 
Q 2328 2953 1747 2953 
Q 1231 2953 997 2559 
Q 763 2166 763 1609 
Q 763 1075 997 719 
Q 1231 363 1741 363 
z
M 1763 3444 
Q 2409 3444 2856 3012 
Q 3303 2581 3303 1744 
Q 3303 934 2909 406 
Q 2516 -122 1688 -122 
Q 997 -122 590 345 
Q 184 813 184 1600 
Q 184 2444 612 2944 
Q 1041 3444 1763 3444 
z
M 1744 3428 
L 1744 3428 
z
" transform="scale(0.015625)"/>
      <path id="Helvetica-6e" d="M 413 3347 
L 947 3347 
L 947 2872 
Q 1184 3166 1450 3294 
Q 1716 3422 2041 3422 
Q 2753 3422 3003 2925 
Q 3141 2653 3141 2147 
L 3141 0 
L 2569 0 
L 2569 2109 
Q 2569 2416 2478 2603 
Q 2328 2916 1934 2916 
Q 1734 2916 1606 2875 
Q 1375 2806 1200 2600 
Q 1059 2434 1017 2257 
Q 975 2081 975 1753 
L 975 0 
L 413 0 
L 413 3347 
z
M 1734 3428 
L 1734 3428 
z
" transform="scale(0.015625)"/>
      <path id="Helvetica-20" transform="scale(0.015625)"/>
      <path id="Helvetica-47" d="M 2472 4709 
Q 3119 4709 3591 4459 
Q 4275 4100 4428 3200 
L 3813 3200 
Q 3700 3703 3347 3933 
Q 2994 4163 2456 4163 
Q 1819 4163 1383 3684 
Q 947 3206 947 2259 
Q 947 1441 1306 927 
Q 1666 413 2478 413 
Q 3100 413 3508 773 
Q 3916 1134 3925 1941 
L 2488 1941 
L 2488 2456 
L 4503 2456 
L 4503 0 
L 4103 0 
L 3953 591 
Q 3638 244 3394 109 
Q 2984 -122 2353 -122 
Q 1538 -122 950 406 
Q 309 1069 309 2225 
Q 309 3378 934 4059 
Q 1528 4709 2472 4709 
z
M 2369 4716 
L 2369 4716 
z
" transform="scale(0.015625)"/>
      <path id="Helvetica-75" d="M 975 3347 
L 975 1125 
Q 975 869 1056 706 
Q 1206 406 1616 406 
Q 2203 406 2416 931 
Q 2531 1213 2531 1703 
L 2531 3347 
L 3094 3347 
L 3094 0 
L 2563 0 
L 2569 494 
Q 2459 303 2297 172 
Q 1975 -91 1516 -91 
Q 800 -91 541 388 
Q 400 644 400 1072 
L 400 3347 
L 975 3347 
z
M 1747 3428 
L 1747 3428 
z
" transform="scale(0.015625)"/>
     </defs>
     <use xlink:href="#Helvetica-45"/>
     <use xlink:href="#Helvetica-6c" x="66.699219"/>
     <use xlink:href="#Helvetica-65" x="88.916016"/>
     <use xlink:href="#Helvetica-63" x="144.53125"/>
     <use xlink:href="#Helvetica-74" x="194.53125"/>
     <use xlink:href="#Helvetica-72" x="222.314453"/>
     <use xlink:href="#Helvetica-6f" x="255.615234"/>
     <use xlink:href="#Helvetica-6e" x="311.230469"/>
     <use xlink:href="#Helvetica-20" x="366.845703"/>
     <use xlink:href="#Helvetica-47" x="394.628906"/>
     <use xlink:href="#Helvetica-75" x="472.412109"/>
     <use xlink:href="#Helvetica-6e" x="528.027344"/>
    </g>
   </g>
   <g id="text_5">
    <!-- Condenser Aperture -->
    <g transform="translate(609.78528 481.944096)scale(0.2 -0.2)">
     <defs>
      <path id="Helvetica-43" d="M 2422 4716 
Q 3294 4716 3775 4256 
Q 4256 3797 4309 3213 
L 3703 3213 
Q 3600 3656 3292 3915 
Q 2984 4175 2428 4175 
Q 1750 4175 1333 3698 
Q 916 3222 916 2238 
Q 916 1431 1292 929 
Q 1669 428 2416 428 
Q 3103 428 3463 956 
Q 3653 1234 3747 1688 
L 4353 1688 
Q 4272 963 3816 472 
Q 3269 -119 2341 -119 
Q 1541 -119 997 366 
Q 281 1006 281 2344 
Q 281 3359 819 4009 
Q 1400 4716 2422 4716 
z
M 2297 4716 
L 2297 4716 
z
" transform="scale(0.015625)"/>
      <path id="Helvetica-64" d="M 769 1634 
Q 769 1097 997 734 
Q 1225 372 1728 372 
Q 2119 372 2370 708 
Q 2622 1044 2622 1672 
Q 2622 2306 2362 2611 
Q 2103 2916 1722 2916 
Q 1297 2916 1033 2591 
Q 769 2266 769 1634 
z
M 1616 3406 
Q 2000 3406 2259 3244 
Q 2409 3150 2600 2916 
L 2600 4606 
L 3141 4606 
L 3141 0 
L 2634 0 
L 2634 466 
Q 2438 156 2169 18 
Q 1900 -119 1553 -119 
Q 994 -119 584 351 
Q 175 822 175 1603 
Q 175 2334 548 2870 
Q 922 3406 1616 3406 
z
" transform="scale(0.015625)"/>
      <path id="Helvetica-73" d="M 747 1050 
Q 772 769 888 619 
Q 1100 347 1625 347 
Q 1938 347 2175 483 
Q 2413 619 2413 903 
Q 2413 1119 2222 1231 
Q 2100 1300 1741 1391 
L 1294 1503 
Q 866 1609 663 1741 
Q 300 1969 300 2372 
Q 300 2847 642 3140 
Q 984 3434 1563 3434 
Q 2319 3434 2653 2991 
Q 2863 2709 2856 2384 
L 2325 2384 
Q 2309 2575 2191 2731 
Q 1997 2953 1519 2953 
Q 1200 2953 1036 2831 
Q 872 2709 872 2509 
Q 872 2291 1088 2159 
Q 1213 2081 1456 2022 
L 1828 1931 
Q 2434 1784 2641 1647 
Q 2969 1431 2969 969 
Q 2969 522 2630 197 
Q 2291 -128 1597 -128 
Q 850 -128 539 211 
Q 228 550 206 1050 
L 747 1050 
z
M 1578 3428 
L 1578 3428 
z
" transform="scale(0.015625)"/>
      <path id="Helvetica-41" d="M 2844 1881 
L 2147 3909 
L 1406 1881 
L 2844 1881 
z
M 1822 4591 
L 2525 4591 
L 4191 0 
L 3509 0 
L 3044 1375 
L 1228 1375 
L 731 0 
L 94 0 
L 1822 4591 
z
M 2144 4591 
L 2144 4591 
z
" transform="scale(0.015625)"/>
      <path id="Helvetica-70" d="M 1825 378 
Q 2219 378 2480 708 
Q 2741 1038 2741 1694 
Q 2741 2094 2625 2381 
Q 2406 2934 1825 2934 
Q 1241 2934 1025 2350 
Q 909 2038 909 1556 
Q 909 1169 1025 897 
Q 1244 378 1825 378 
z
M 369 3331 
L 916 3331 
L 916 2888 
Q 1084 3116 1284 3241 
Q 1569 3428 1953 3428 
Q 2522 3428 2919 2992 
Q 3316 2556 3316 1747 
Q 3316 653 2744 184 
Q 2381 -113 1900 -113 
Q 1522 -113 1266 53 
Q 1116 147 931 375 
L 931 -1334 
L 369 -1334 
L 369 3331 
z
" transform="scale(0.015625)"/>
     </defs>
     <use xlink:href="#Helvetica-43"/>
     <use xlink:href="#Helvetica-6f" x="72.216797"/>
     <use xlink:href="#Helvetica-6e" x="127.832031"/>
     <use xlink:href="#Helvetica-64" x="183.447266"/>
     <use xlink:href="#Helvetica-65" x="239.0625"/>
     <use xlink:href="#Helvetica-6e" x="294.677734"/>
     <use xlink:href="#Helvetica-73" x="350.292969"/>
     <use xlink:href="#Helvetica-65" x="400.292969"/>
     <use xlink:href="#Helvetica-72" x="455.908203"/>
     <use xlink:href="#Helvetica-20" x="489.208984"/>
     <use xlink:href="#Helvetica-41" x="516.992188"/>
     <use xlink:href="#Helvetica-70" x="583.691406"/>
     <use xlink:href="#Helvetica-65" x="639.306641"/>
     <use xlink:href="#Helvetica-72" x="694.921875"/>
     <use xlink:href="#Helvetica-74" x="728.222656"/>
     <use xlink:href="#Helvetica-75" x="756.005859"/>
     <use xlink:href="#Helvetica-72" x="811.621094"/>
     <use xlink:href="#Helvetica-65" x="844.921875"/>
    </g>
   </g>
   <g id="text_6">
    <!-- Condenser Lens -->
    <g transform="translate(609.78528 537.605856)scale(0.2 -0.2)">
     <defs>
      <path id="Helvetica-4c" d="M 488 4591 
L 1109 4591 
L 1109 547 
L 3434 547 
L 3434 0 
L 488 0 
L 488 4591 
z
" transform="scale(0.015625)"/>
     </defs>
     <use xlink:href="#Helvetica-43"/>
     <use xlink:href="#Helvetica-6f" x="72.216797"/>
     <use xlink:href="#Helvetica-6e" x="127.832031"/>
     <use xlink:href="#Helvetica-64" x="183.447266"/>
     <use xlink:href="#Helvetica-65" x="239.0625"/>
     <use xlink:href="#Helvetica-6e" x="294.677734"/>
     <use xlink:href="#Helvetica-73" x="350.292969"/>
     <use xlink:href="#Helvetica-65" x="400.292969"/>
     <use xlink:href="#Helvetica-72" x="455.908203"/>
     <use xlink:href="#Helvetica-20" x="489.208984"/>
     <use xlink:href="#Helvetica-4c" x="516.992188"/>
     <use xlink:href="#Helvetica-65" x="572.607422"/>
     <use xlink:href="#Helvetica-6e" x="628.222656"/>
     <use xlink:href="#Helvetica-73" x="683.837891"/>
    </g>
   </g>
   <g id="text_7">
    <!-- Detector -->
    <g transform="translate(609.78528 648.929376)scale(0.2 -0.2)">
     <defs>
      <path id="Helvetica-44" d="M 2250 531 
Q 2566 531 2769 597 
Q 3131 719 3363 1066 
Q 3547 1344 3628 1778 
Q 3675 2038 3675 2259 
Q 3675 3113 3336 3584 
Q 2997 4056 2244 4056 
L 1141 4056 
L 1141 531 
L 2250 531 
z
M 516 4591 
L 2375 4591 
Q 3322 4591 3844 3919 
Q 4309 3313 4309 2366 
Q 4309 1634 4034 1044 
Q 3550 0 2369 0 
L 516 0 
L 516 4591 
z
" transform="scale(0.015625)"/>
     </defs>
     <use xlink:href="#Helvetica-44"/>
     <use xlink:href="#Helvetica-65" x="72.216797"/>
     <use xlink:href="#Helvetica-74" x="127.832031"/>
     <use xlink:href="#Helvetica-65" x="155.615234"/>
     <use xlink:href="#Helvetica-63" x="211.230469"/>
     <use xlink:href="#Helvetica-74" x="261.230469"/>
     <use xlink:href="#Helvetica-6f" x="289.013672"/>
     <use xlink:href="#Helvetica-72" x="344.628906"/>
    </g>
   </g>
  </g>
  <g id="text_8">
   <!-- Condenser Aperture -->
   <g transform="translate(287.925 38.0376)scale(0.32 -0.32)">
    <use xlink:href="#Helvetica-43"/>
    <use xlink:href="#Helvetica-6f" x="72.216797"/>
    <use xlink:href="#Helvetica-6e" x="127.832031"/>
    <use xlink:href="#Helvetica-64" x="183.447266"/>
    <use xlink:href="#Helvetica-65" x="239.0625"/>
    <use xlink:href="#Helvetica-6e" x="294.677734"/>
    <use xlink:href="#Helvetica-73" x="350.292969"/>
    <use xlink:href="#Helvetica-65" x="400.292969"/>
    <use xlink:href="#Helvetica-72" x="455.908203"/>
    <use xlink:href="#Helvetica-20" x="489.208984"/>
    <use xlink:href="#Helvetica-41" x="516.992188"/>
    <use xlink:href="#Helvetica-70" x="583.691406"/>
    <use xlink:href="#Helvetica-65" x="639.306641"/>
    <use xlink:href="#Helvetica-72" x="694.921875"/>
    <use xlink:href="#Helvetica-74" x="728.222656"/>
    <use xlink:href="#Helvetica-75" x="756.005859"/>
    <use xlink:href="#Helvetica-72" x="811.621094"/>
    <use xlink:href="#Helvetica-65" x="844.921875"/>
   </g>
  </g>
 </g>
 <defs>
  <clipPath id="p3c39553f8e">
   <rect x="164.4912" y="86.7456" width="556.6176" height="556.6176"/>
  </clipPath>
 </defs>
</svg>
