<?xml version="1.0" encoding="utf-8" standalone="no"?>
<!DOCTYPE svg PUBLIC "-//W3C//DTD SVG 1.1//EN"
  "http://www.w3.org/Graphics/SVG/1.1/DTD/svg11.dtd">
<svg xmlns:xlink="http://www.w3.org/1999/xlink" width="720pt" height="722.88pt" viewBox="0 0 720 722.88" xmlns="http://www.w3.org/2000/svg" version="1.1">
 <metadata>
  <rdf:RDF xmlns:dc="http://purl.org/dc/elements/1.1/" xmlns:cc="http://creativecommons.org/ns#" xmlns:rdf="http://www.w3.org/1999/02/22-rdf-syntax-ns#">
   <cc:Work>
    <dc:type rdf:resource="http://purl.org/dc/dcmitype/StillImage"/>
    <dc:date>2022-09-19T10:25:39.845491</dc:date>
    <dc:format>image/svg+xml</dc:format>
    <dc:creator>
     <cc:Agent>
      <dc:title>Matplotlib v3.5.3, https://matplotlib.org/</dc:title>
     </cc:Agent>
    </dc:creator>
   </cc:Work>
  </rdf:RDF>
 </metadata>
 <defs>
  <style type="text/css">*{stroke-linejoin: round; stroke-linecap: butt}</style>
 </defs>
 <g id="figure_1">
  <g id="patch_1">
   <path d="M 0 722.88 
L 720 722.88 
L 720 0 
L 0 0 
z
" style="fill: #ffffff"/>
  </g>
  <g id="axes_1">
   <g id="patch_2">
    <path d="M 90.6912 643.3632 
L 647.3088 643.3632 
L 647.3088 86.7456 
L 90.6912 86.7456 
z
" style="fill: #ffffff"/>
   </g>
   <g id="patch_3">
    <path d="M 508.1544 253.73088 
C 508.1544 250.041691 493.483524 246.499828 467.39702 243.891178 
C 441.310516 241.282528 405.891887 239.81544 369 239.81544 
C 332.108113 239.81544 296.689484 241.282528 270.60298 243.891178 
C 244.516476 246.499828 229.8456 250.041691 229.8456 253.73088 
" clip-path="url(#p974f057779)" style="fill: none; stroke: #000000; stroke-linejoin: miter"/>
   </g>
   <g id="PolyCollection_1">
    <defs>
     <path id="m13bf73f8ef" d="M 369 -636.1344 
L 369 -636.1344 
L 394.237357 -469.14912 
L 343.762643 -469.14912 
L 343.762643 -469.14912 
L 369 -636.1344 
z
" style="stroke: #7fffd4"/>
    </defs>
    <g clip-path="url(#p974f057779)">
     <use xlink:href="#m13bf73f8ef" x="0" y="722.88" style="fill: #7fffd4; stroke: #7fffd4"/>
    </g>
   </g>
   <g id="PolyCollection_2">
    <defs>
     <path id="m0d6aa17d36" d="M 343.762643 -469.14912 
L 394.237357 -469.14912 
L 398.443583 -357.8256 
L 339.556417 -357.8256 
L 339.556417 -357.8256 
L 343.762643 -469.14912 
z
" style="stroke: #7fffd4"/>
    </defs>
    <g clip-path="url(#p974f057779)">
     <use xlink:href="#m0d6aa17d36" x="0" y="722.88" style="fill: #7fffd4; stroke: #7fffd4"/>
    </g>
   </g>
   <g id="PolyCollection_3">
    <defs>
     <path id="m5f0fdbdae1" d="M 339.556417 -357.8256 
L 398.443583 -357.8256 
L 379.515565 -79.5168 
L 358.484435 -79.5168 
L 358.484435 -79.5168 
L 339.556417 -357.8256 
z
" style="stroke: #7fffd4"/>
    </defs>
    <g clip-path="url(#p974f057779)">
     <use xlink:href="#m5f0fdbdae1" x="0" y="722.88" style="fill: #7fffd4; stroke: #7fffd4"/>
    </g>
   </g>
   <g id="line2d_1">
    <path d="M 369 86.7456 
L 394.237357 253.73088 
" clip-path="url(#p974f057779)" style="fill: none; stroke: #696969; stroke-width: 0.25; stroke-linecap: square"/>
   </g>
   <g id="line2d_2">
    <path d="M 369 86.7456 
L 392.586821 253.73088 
" clip-path="url(#p974f057779)" style="fill: none; stroke: #696969; stroke-width: 0.25; stroke-linecap: square"/>
   </g>
   <g id="line2d_3">
    <path d="M 369 86.7456 
L 390.940791 253.73088 
" clip-path="url(#p974f057779)" style="fill: none; stroke: #696969; stroke-width: 0.25; stroke-linecap: square"/>
   </g>
   <g id="line2d_4">
    <path d="M 369 86.7456 
L 389.298942 253.73088 
" clip-path="url(#p974f057779)" style="fill: none; stroke: #696969; stroke-width: 0.25; stroke-linecap: square"/>
   </g>
   <g id="line2d_5">
    <path d="M 369 86.7456 
L 387.660951 253.73088 
" clip-path="url(#p974f057779)" style="fill: none; stroke: #696969; stroke-width: 0.25; stroke-linecap: square"/>
   </g>
   <g id="line2d_6">
    <path d="M 369 86.7456 
L 386.0265 253.73088 
" clip-path="url(#p974f057779)" style="fill: none; stroke: #696969; stroke-width: 0.25; stroke-linecap: square"/>
   </g>
   <g id="line2d_7">
    <path d="M 369 86.7456 
L 384.395271 253.73088 
" clip-path="url(#p974f057779)" style="fill: none; stroke: #696969; stroke-width: 0.25; stroke-linecap: square"/>
   </g>
   <g id="line2d_8">
    <path d="M 369 86.7456 
L 382.766951 253.73088 
" clip-path="url(#p974f057779)" style="fill: none; stroke: #696969; stroke-width: 0.25; stroke-linecap: square"/>
   </g>
   <g id="line2d_9">
    <path d="M 369 86.7456 
L 381.141227 253.73088 
" clip-path="url(#p974f057779)" style="fill: none; stroke: #696969; stroke-width: 0.25; stroke-linecap: square"/>
   </g>
   <g id="line2d_10">
    <path d="M 369 86.7456 
L 379.517789 253.73088 
" clip-path="url(#p974f057779)" style="fill: none; stroke: #696969; stroke-width: 0.25; stroke-linecap: square"/>
   </g>
   <g id="line2d_11">
    <path d="M 369 86.7456 
L 377.896329 253.73088 
" clip-path="url(#p974f057779)" style="fill: none; stroke: #696969; stroke-width: 0.25; stroke-linecap: square"/>
   </g>
   <g id="line2d_12">
    <path d="M 369 86.7456 
L 376.27654 253.73088 
" clip-path="url(#p974f057779)" style="fill: none; stroke: #696969; stroke-width: 0.25; stroke-linecap: square"/>
   </g>
   <g id="line2d_13">
    <path d="M 369 86.7456 
L 374.658117 253.73088 
" clip-path="url(#p974f057779)" style="fill: none; stroke: #696969; stroke-width: 0.25; stroke-linecap: square"/>
   </g>
   <g id="line2d_14">
    <path d="M 369 86.7456 
L 373.040755 253.73088 
" clip-path="url(#p974f057779)" style="fill: none; stroke: #696969; stroke-width: 0.25; stroke-linecap: square"/>
   </g>
   <g id="line2d_15">
    <path d="M 369 86.7456 
L 371.42415 253.73088 
" clip-path="url(#p974f057779)" style="fill: none; stroke: #696969; stroke-width: 0.25; stroke-linecap: square"/>
   </g>
   <g id="line2d_16">
    <path d="M 369 86.7456 
L 369.808 253.73088 
" clip-path="url(#p974f057779)" style="fill: none; stroke: #696969; stroke-width: 0.25; stroke-linecap: square"/>
   </g>
   <g id="line2d_17">
    <path d="M 369 86.7456 
L 368.192 253.73088 
" clip-path="url(#p974f057779)" style="fill: none; stroke: #696969; stroke-width: 0.25; stroke-linecap: square"/>
   </g>
   <g id="line2d_18">
    <path d="M 369 86.7456 
L 366.57585 253.73088 
" clip-path="url(#p974f057779)" style="fill: none; stroke: #696969; stroke-width: 0.25; stroke-linecap: square"/>
   </g>
   <g id="line2d_19">
    <path d="M 369 86.7456 
L 364.959245 253.73088 
" clip-path="url(#p974f057779)" style="fill: none; stroke: #696969; stroke-width: 0.25; stroke-linecap: square"/>
   </g>
   <g id="line2d_20">
    <path d="M 369 86.7456 
L 363.341883 253.73088 
" clip-path="url(#p974f057779)" style="fill: none; stroke: #696969; stroke-width: 0.25; stroke-linecap: square"/>
   </g>
   <g id="line2d_21">
    <path d="M 369 86.7456 
L 361.72346 253.73088 
" clip-path="url(#p974f057779)" style="fill: none; stroke: #696969; stroke-width: 0.25; stroke-linecap: square"/>
   </g>
   <g id="line2d_22">
    <path d="M 369 86.7456 
L 360.103671 253.73088 
" clip-path="url(#p974f057779)" style="fill: none; stroke: #696969; stroke-width: 0.25; stroke-linecap: square"/>
   </g>
   <g id="line2d_23">
    <path d="M 369 86.7456 
L 358.482211 253.73088 
" clip-path="url(#p974f057779)" style="fill: none; stroke: #696969; stroke-width: 0.25; stroke-linecap: square"/>
   </g>
   <g id="line2d_24">
    <path d="M 369 86.7456 
L 356.858773 253.73088 
" clip-path="url(#p974f057779)" style="fill: none; stroke: #696969; stroke-width: 0.25; stroke-linecap: square"/>
   </g>
   <g id="line2d_25">
    <path d="M 369 86.7456 
L 355.233049 253.73088 
" clip-path="url(#p974f057779)" style="fill: none; stroke: #696969; stroke-width: 0.25; stroke-linecap: square"/>
   </g>
   <g id="line2d_26">
    <path d="M 369 86.7456 
L 353.604729 253.73088 
" clip-path="url(#p974f057779)" style="fill: none; stroke: #696969; stroke-width: 0.25; stroke-linecap: square"/>
   </g>
   <g id="line2d_27">
    <path d="M 369 86.7456 
L 351.9735 253.73088 
" clip-path="url(#p974f057779)" style="fill: none; stroke: #696969; stroke-width: 0.25; stroke-linecap: square"/>
   </g>
   <g id="line2d_28">
    <path d="M 369 86.7456 
L 350.339049 253.73088 
" clip-path="url(#p974f057779)" style="fill: none; stroke: #696969; stroke-width: 0.25; stroke-linecap: square"/>
   </g>
   <g id="line2d_29">
    <path d="M 369 86.7456 
L 348.701058 253.73088 
" clip-path="url(#p974f057779)" style="fill: none; stroke: #696969; stroke-width: 0.25; stroke-linecap: square"/>
   </g>
   <g id="line2d_30">
    <path d="M 369 86.7456 
L 347.059209 253.73088 
" clip-path="url(#p974f057779)" style="fill: none; stroke: #696969; stroke-width: 0.25; stroke-linecap: square"/>
   </g>
   <g id="line2d_31">
    <path d="M 369 86.7456 
L 345.413179 253.73088 
" clip-path="url(#p974f057779)" style="fill: none; stroke: #696969; stroke-width: 0.25; stroke-linecap: square"/>
   </g>
   <g id="line2d_32">
    <path d="M 369 86.7456 
L 343.762643 253.73088 
" clip-path="url(#p974f057779)" style="fill: none; stroke: #696969; stroke-width: 0.25; stroke-linecap: square"/>
   </g>
   <g id="line2d_33">
    <path d="M 394.237357 253.73088 
L 398.443583 365.0544 
" clip-path="url(#p974f057779)" style="fill: none; stroke: #696969; stroke-width: 0.25; stroke-linecap: square"/>
   </g>
   <g id="line2d_34">
    <path d="M 392.586821 253.73088 
L 396.517957 365.0544 
" clip-path="url(#p974f057779)" style="fill: none; stroke: #696969; stroke-width: 0.25; stroke-linecap: square"/>
   </g>
   <g id="line2d_35">
    <path d="M 390.940791 253.73088 
L 394.597589 365.0544 
" clip-path="url(#p974f057779)" style="fill: none; stroke: #696969; stroke-width: 0.25; stroke-linecap: square"/>
   </g>
   <g id="line2d_36">
    <path d="M 389.298942 253.73088 
L 392.682099 365.0544 
" clip-path="url(#p974f057779)" style="fill: none; stroke: #696969; stroke-width: 0.25; stroke-linecap: square"/>
   </g>
   <g id="line2d_37">
    <path d="M 387.660951 253.73088 
L 390.77111 365.0544 
" clip-path="url(#p974f057779)" style="fill: none; stroke: #696969; stroke-width: 0.25; stroke-linecap: square"/>
   </g>
   <g id="line2d_38">
    <path d="M 386.0265 253.73088 
L 388.86425 365.0544 
" clip-path="url(#p974f057779)" style="fill: none; stroke: #696969; stroke-width: 0.25; stroke-linecap: square"/>
   </g>
   <g id="line2d_39">
    <path d="M 384.395271 253.73088 
L 386.96115 365.0544 
" clip-path="url(#p974f057779)" style="fill: none; stroke: #696969; stroke-width: 0.25; stroke-linecap: square"/>
   </g>
   <g id="line2d_40">
    <path d="M 382.766951 253.73088 
L 385.061443 365.0544 
" clip-path="url(#p974f057779)" style="fill: none; stroke: #696969; stroke-width: 0.25; stroke-linecap: square"/>
   </g>
   <g id="line2d_41">
    <path d="M 381.141227 253.73088 
L 383.164764 365.0544 
" clip-path="url(#p974f057779)" style="fill: none; stroke: #696969; stroke-width: 0.25; stroke-linecap: square"/>
   </g>
   <g id="line2d_42">
    <path d="M 379.517789 253.73088 
L 381.270754 365.0544 
" clip-path="url(#p974f057779)" style="fill: none; stroke: #696969; stroke-width: 0.25; stroke-linecap: square"/>
   </g>
   <g id="line2d_43">
    <path d="M 377.896329 253.73088 
L 379.37905 365.0544 
" clip-path="url(#p974f057779)" style="fill: none; stroke: #696969; stroke-width: 0.25; stroke-linecap: square"/>
   </g>
   <g id="line2d_44">
    <path d="M 376.27654 253.73088 
L 377.489297 365.0544 
" clip-path="url(#p974f057779)" style="fill: none; stroke: #696969; stroke-width: 0.25; stroke-linecap: square"/>
   </g>
   <g id="line2d_45">
    <path d="M 374.658117 253.73088 
L 375.601136 365.0544 
" clip-path="url(#p974f057779)" style="fill: none; stroke: #696969; stroke-width: 0.25; stroke-linecap: square"/>
   </g>
   <g id="line2d_46">
    <path d="M 373.040755 253.73088 
L 373.714214 365.0544 
" clip-path="url(#p974f057779)" style="fill: none; stroke: #696969; stroke-width: 0.25; stroke-linecap: square"/>
   </g>
   <g id="line2d_47">
    <path d="M 371.42415 253.73088 
L 371.828175 365.0544 
" clip-path="url(#p974f057779)" style="fill: none; stroke: #696969; stroke-width: 0.25; stroke-linecap: square"/>
   </g>
   <g id="line2d_48">
    <path d="M 369.808 253.73088 
L 369.942666 365.0544 
" clip-path="url(#p974f057779)" style="fill: none; stroke: #696969; stroke-width: 0.25; stroke-linecap: square"/>
   </g>
   <g id="line2d_49">
    <path d="M 368.192 253.73088 
L 368.057334 365.0544 
" clip-path="url(#p974f057779)" style="fill: none; stroke: #696969; stroke-width: 0.25; stroke-linecap: square"/>
   </g>
   <g id="line2d_50">
    <path d="M 366.57585 253.73088 
L 366.171825 365.0544 
" clip-path="url(#p974f057779)" style="fill: none; stroke: #696969; stroke-width: 0.25; stroke-linecap: square"/>
   </g>
   <g id="line2d_51">
    <path d="M 364.959245 253.73088 
L 364.285786 365.0544 
" clip-path="url(#p974f057779)" style="fill: none; stroke: #696969; stroke-width: 0.25; stroke-linecap: square"/>
   </g>
   <g id="line2d_52">
    <path d="M 363.341883 253.73088 
L 362.398864 365.0544 
" clip-path="url(#p974f057779)" style="fill: none; stroke: #696969; stroke-width: 0.25; stroke-linecap: square"/>
   </g>
   <g id="line2d_53">
    <path d="M 361.72346 253.73088 
L 360.510703 365.0544 
" clip-path="url(#p974f057779)" style="fill: none; stroke: #696969; stroke-width: 0.25; stroke-linecap: square"/>
   </g>
   <g id="line2d_54">
    <path d="M 360.103671 253.73088 
L 358.62095 365.0544 
" clip-path="url(#p974f057779)" style="fill: none; stroke: #696969; stroke-width: 0.25; stroke-linecap: square"/>
   </g>
   <g id="line2d_55">
    <path d="M 358.482211 253.73088 
L 356.729246 365.0544 
" clip-path="url(#p974f057779)" style="fill: none; stroke: #696969; stroke-width: 0.25; stroke-linecap: square"/>
   </g>
   <g id="line2d_56">
    <path d="M 356.858773 253.73088 
L 354.835236 365.0544 
" clip-path="url(#p974f057779)" style="fill: none; stroke: #696969; stroke-width: 0.25; stroke-linecap: square"/>
   </g>
   <g id="line2d_57">
    <path d="M 355.233049 253.73088 
L 352.938557 365.0544 
" clip-path="url(#p974f057779)" style="fill: none; stroke: #696969; stroke-width: 0.25; stroke-linecap: square"/>
   </g>
   <g id="line2d_58">
    <path d="M 353.604729 253.73088 
L 351.03885 365.0544 
" clip-path="url(#p974f057779)" style="fill: none; stroke: #696969; stroke-width: 0.25; stroke-linecap: square"/>
   </g>
   <g id="line2d_59">
    <path d="M 351.9735 253.73088 
L 349.13575 365.0544 
" clip-path="url(#p974f057779)" style="fill: none; stroke: #696969; stroke-width: 0.25; stroke-linecap: square"/>
   </g>
   <g id="line2d_60">
    <path d="M 350.339049 253.73088 
L 347.22889 365.0544 
" clip-path="url(#p974f057779)" style="fill: none; stroke: #696969; stroke-width: 0.25; stroke-linecap: square"/>
   </g>
   <g id="line2d_61">
    <path d="M 348.701058 253.73088 
L 345.317901 365.0544 
" clip-path="url(#p974f057779)" style="fill: none; stroke: #696969; stroke-width: 0.25; stroke-linecap: square"/>
   </g>
   <g id="line2d_62">
    <path d="M 347.059209 253.73088 
L 343.402411 365.0544 
" clip-path="url(#p974f057779)" style="fill: none; stroke: #696969; stroke-width: 0.25; stroke-linecap: square"/>
   </g>
   <g id="line2d_63">
    <path d="M 345.413179 253.73088 
L 341.482043 365.0544 
" clip-path="url(#p974f057779)" style="fill: none; stroke: #696969; stroke-width: 0.25; stroke-linecap: square"/>
   </g>
   <g id="line2d_64">
    <path d="M 343.762643 253.73088 
L 339.556417 365.0544 
" clip-path="url(#p974f057779)" style="fill: none; stroke: #696969; stroke-width: 0.25; stroke-linecap: square"/>
   </g>
   <g id="line2d_65">
    <path d="M 398.443583 365.0544 
L 379.515565 643.3632 
" clip-path="url(#p974f057779)" style="fill: none; stroke: #696969; stroke-width: 0.25; stroke-linecap: square"/>
   </g>
   <g id="line2d_66">
    <path d="M 396.517957 365.0544 
L 378.827842 643.3632 
" clip-path="url(#p974f057779)" style="fill: none; stroke: #696969; stroke-width: 0.25; stroke-linecap: square"/>
   </g>
   <g id="line2d_67">
    <path d="M 394.597589 365.0544 
L 378.141996 643.3632 
" clip-path="url(#p974f057779)" style="fill: none; stroke: #696969; stroke-width: 0.25; stroke-linecap: square"/>
   </g>
   <g id="line2d_68">
    <path d="M 392.682099 365.0544 
L 377.457892 643.3632 
" clip-path="url(#p974f057779)" style="fill: none; stroke: #696969; stroke-width: 0.25; stroke-linecap: square"/>
   </g>
   <g id="line2d_69">
    <path d="M 390.77111 365.0544 
L 376.775396 643.3632 
" clip-path="url(#p974f057779)" style="fill: none; stroke: #696969; stroke-width: 0.25; stroke-linecap: square"/>
   </g>
   <g id="line2d_70">
    <path d="M 388.86425 365.0544 
L 376.094375 643.3632 
" clip-path="url(#p974f057779)" style="fill: none; stroke: #696969; stroke-width: 0.25; stroke-linecap: square"/>
   </g>
   <g id="line2d_71">
    <path d="M 386.96115 365.0544 
L 375.414696 643.3632 
" clip-path="url(#p974f057779)" style="fill: none; stroke: #696969; stroke-width: 0.25; stroke-linecap: square"/>
   </g>
   <g id="line2d_72">
    <path d="M 385.061443 365.0544 
L 374.73623 643.3632 
" clip-path="url(#p974f057779)" style="fill: none; stroke: #696969; stroke-width: 0.25; stroke-linecap: square"/>
   </g>
   <g id="line2d_73">
    <path d="M 383.164764 365.0544 
L 374.058844 643.3632 
" clip-path="url(#p974f057779)" style="fill: none; stroke: #696969; stroke-width: 0.25; stroke-linecap: square"/>
   </g>
   <g id="line2d_74">
    <path d="M 381.270754 365.0544 
L 373.382412 643.3632 
" clip-path="url(#p974f057779)" style="fill: none; stroke: #696969; stroke-width: 0.25; stroke-linecap: square"/>
   </g>
   <g id="line2d_75">
    <path d="M 379.37905 365.0544 
L 372.706804 643.3632 
" clip-path="url(#p974f057779)" style="fill: none; stroke: #696969; stroke-width: 0.25; stroke-linecap: square"/>
   </g>
   <g id="line2d_76">
    <path d="M 377.489297 365.0544 
L 372.031892 643.3632 
" clip-path="url(#p974f057779)" style="fill: none; stroke: #696969; stroke-width: 0.25; stroke-linecap: square"/>
   </g>
   <g id="line2d_77">
    <path d="M 375.601136 365.0544 
L 371.357549 643.3632 
" clip-path="url(#p974f057779)" style="fill: none; stroke: #696969; stroke-width: 0.25; stroke-linecap: square"/>
   </g>
   <g id="line2d_78">
    <path d="M 373.714214 365.0544 
L 370.683648 643.3632 
" clip-path="url(#p974f057779)" style="fill: none; stroke: #696969; stroke-width: 0.25; stroke-linecap: square"/>
   </g>
   <g id="line2d_79">
    <path d="M 371.828175 365.0544 
L 370.010063 643.3632 
" clip-path="url(#p974f057779)" style="fill: none; stroke: #696969; stroke-width: 0.25; stroke-linecap: square"/>
   </g>
   <g id="line2d_80">
    <path d="M 369.942666 365.0544 
L 369.336666 643.3632 
" clip-path="url(#p974f057779)" style="fill: none; stroke: #696969; stroke-width: 0.25; stroke-linecap: square"/>
   </g>
   <g id="line2d_81">
    <path d="M 368.057334 365.0544 
L 368.663334 643.3632 
" clip-path="url(#p974f057779)" style="fill: none; stroke: #696969; stroke-width: 0.25; stroke-linecap: square"/>
   </g>
   <g id="line2d_82">
    <path d="M 366.171825 365.0544 
L 367.989937 643.3632 
" clip-path="url(#p974f057779)" style="fill: none; stroke: #696969; stroke-width: 0.25; stroke-linecap: square"/>
   </g>
   <g id="line2d_83">
    <path d="M 364.285786 365.0544 
L 367.316352 643.3632 
" clip-path="url(#p974f057779)" style="fill: none; stroke: #696969; stroke-width: 0.25; stroke-linecap: square"/>
   </g>
   <g id="line2d_84">
    <path d="M 362.398864 365.0544 
L 366.642451 643.3632 
" clip-path="url(#p974f057779)" style="fill: none; stroke: #696969; stroke-width: 0.25; stroke-linecap: square"/>
   </g>
   <g id="line2d_85">
    <path d="M 360.510703 365.0544 
L 365.968108 643.3632 
" clip-path="url(#p974f057779)" style="fill: none; stroke: #696969; stroke-width: 0.25; stroke-linecap: square"/>
   </g>
   <g id="line2d_86">
    <path d="M 358.62095 365.0544 
L 365.293196 643.3632 
" clip-path="url(#p974f057779)" style="fill: none; stroke: #696969; stroke-width: 0.25; stroke-linecap: square"/>
   </g>
   <g id="line2d_87">
    <path d="M 356.729246 365.0544 
L 364.617588 643.3632 
" clip-path="url(#p974f057779)" style="fill: none; stroke: #696969; stroke-width: 0.25; stroke-linecap: square"/>
   </g>
   <g id="line2d_88">
    <path d="M 354.835236 365.0544 
L 363.941156 643.3632 
" clip-path="url(#p974f057779)" style="fill: none; stroke: #696969; stroke-width: 0.25; stroke-linecap: square"/>
   </g>
   <g id="line2d_89">
    <path d="M 352.938557 365.0544 
L 363.26377 643.3632 
" clip-path="url(#p974f057779)" style="fill: none; stroke: #696969; stroke-width: 0.25; stroke-linecap: square"/>
   </g>
   <g id="line2d_90">
    <path d="M 351.03885 365.0544 
L 362.585304 643.3632 
" clip-path="url(#p974f057779)" style="fill: none; stroke: #696969; stroke-width: 0.25; stroke-linecap: square"/>
   </g>
   <g id="line2d_91">
    <path d="M 349.13575 365.0544 
L 361.905625 643.3632 
" clip-path="url(#p974f057779)" style="fill: none; stroke: #696969; stroke-width: 0.25; stroke-linecap: square"/>
   </g>
   <g id="line2d_92">
    <path d="M 347.22889 365.0544 
L 361.224604 643.3632 
" clip-path="url(#p974f057779)" style="fill: none; stroke: #696969; stroke-width: 0.25; stroke-linecap: square"/>
   </g>
   <g id="line2d_93">
    <path d="M 345.317901 365.0544 
L 360.542108 643.3632 
" clip-path="url(#p974f057779)" style="fill: none; stroke: #696969; stroke-width: 0.25; stroke-linecap: square"/>
   </g>
   <g id="line2d_94">
    <path d="M 343.402411 365.0544 
L 359.858004 643.3632 
" clip-path="url(#p974f057779)" style="fill: none; stroke: #696969; stroke-width: 0.25; stroke-linecap: square"/>
   </g>
   <g id="line2d_95">
    <path d="M 341.482043 365.0544 
L 359.172158 643.3632 
" clip-path="url(#p974f057779)" style="fill: none; stroke: #696969; stroke-width: 0.25; stroke-linecap: square"/>
   </g>
   <g id="line2d_96">
    <path d="M 339.556417 365.0544 
L 358.484435 643.3632 
" clip-path="url(#p974f057779)" style="fill: none; stroke: #696969; stroke-width: 0.25; stroke-linecap: square"/>
   </g>
   <g id="matplotlib.axis_1">
    <g id="xtick_1">
     <g id="line2d_97">
      <path d="M 229.8456 643.3632 
L 229.8456 86.7456 
" clip-path="url(#p974f057779)" style="fill: none; stroke-dasharray: 1.85,0.8; stroke-dashoffset: 0; stroke: #d3d3d3; stroke-width: 0.5"/>
     </g>
     <g id="line2d_98">
      <defs>
       <path id="m78c231a2bb" d="M 0 0 
L 0 3.5 
" style="stroke: #000000; stroke-width: 0.8"/>
      </defs>
      <g>
       <use xlink:href="#m78c231a2bb" x="229.8456" y="643.3632" style="stroke: #000000; stroke-width: 0.8"/>
      </g>
     </g>
     <g id="text_1">
      <!-- −0.25 -->
      <g transform="translate(212.134506 660.406012)scale(0.14 -0.14)">
       <defs>
        <path id="Helvetica-2212" d="M 3547 1894 
L 3547 1369 
L 288 1369 
L 288 1894 
L 3547 1894 
z
" transform="scale(0.015625)"/>
        <path id="Helvetica-30" d="M 1731 4475 
Q 2600 4475 2988 3759 
Q 3288 3206 3288 2244 
Q 3288 1331 3016 734 
Q 2622 -122 1728 -122 
Q 922 -122 528 578 
Q 200 1163 200 2147 
Q 200 2909 397 3456 
Q 766 4475 1731 4475 
z
M 1725 391 
Q 2163 391 2422 778 
Q 2681 1166 2681 2222 
Q 2681 2984 2493 3476 
Q 2306 3969 1766 3969 
Q 1269 3969 1039 3501 
Q 809 3034 809 2125 
Q 809 1441 956 1025 
Q 1181 391 1725 391 
z
" transform="scale(0.015625)"/>
        <path id="Helvetica-2e" d="M 547 681 
L 1200 681 
L 1200 0 
L 547 0 
L 547 681 
z
" transform="scale(0.015625)"/>
        <path id="Helvetica-32" d="M 200 0 
Q 231 578 439 1006 
Q 647 1434 1250 1784 
L 1850 2131 
Q 2253 2366 2416 2531 
Q 2672 2791 2672 3125 
Q 2672 3516 2437 3745 
Q 2203 3975 1813 3975 
Q 1234 3975 1013 3538 
Q 894 3303 881 2888 
L 309 2888 
Q 319 3472 525 3841 
Q 891 4491 1816 4491 
Q 2584 4491 2939 4075 
Q 3294 3659 3294 3150 
Q 3294 2613 2916 2231 
Q 2697 2009 2131 1694 
L 1703 1456 
Q 1397 1288 1222 1134 
Q 909 863 828 531 
L 3272 531 
L 3272 0 
L 200 0 
z
" transform="scale(0.015625)"/>
        <path id="Helvetica-35" d="M 791 1141 
Q 847 659 1238 475 
Q 1438 381 1700 381 
Q 2200 381 2440 700 
Q 2681 1019 2681 1406 
Q 2681 1875 2395 2131 
Q 2109 2388 1709 2388 
Q 1419 2388 1211 2275 
Q 1003 2163 856 1963 
L 369 1991 
L 709 4400 
L 3034 4400 
L 3034 3856 
L 1131 3856 
L 941 2613 
Q 1097 2731 1238 2791 
Q 1488 2894 1816 2894 
Q 2431 2894 2859 2497 
Q 3288 2100 3288 1491 
Q 3288 856 2895 371 
Q 2503 -113 1644 -113 
Q 1097 -113 676 195 
Q 256 503 206 1141 
L 791 1141 
z
" transform="scale(0.015625)"/>
       </defs>
       <use xlink:href="#Helvetica-2212"/>
       <use xlink:href="#Helvetica-30" x="58.398438"/>
       <use xlink:href="#Helvetica-2e" x="114.013672"/>
       <use xlink:href="#Helvetica-32" x="141.796875"/>
       <use xlink:href="#Helvetica-35" x="197.412109"/>
      </g>
     </g>
    </g>
    <g id="xtick_2">
     <g id="line2d_99">
      <path d="M 369 643.3632 
L 369 86.7456 
" clip-path="url(#p974f057779)" style="fill: none; stroke-dasharray: 1.85,0.8; stroke-dashoffset: 0; stroke: #d3d3d3; stroke-width: 0.5"/>
     </g>
     <g id="line2d_100">
      <g>
       <use xlink:href="#m78c231a2bb" x="369" y="643.3632" style="stroke: #000000; stroke-width: 0.8"/>
      </g>
     </g>
     <g id="text_2">
      <!-- 0.00 -->
      <g transform="translate(355.377344 660.406012)scale(0.14 -0.14)">
       <use xlink:href="#Helvetica-30"/>
       <use xlink:href="#Helvetica-2e" x="55.615234"/>
       <use xlink:href="#Helvetica-30" x="83.398438"/>
       <use xlink:href="#Helvetica-30" x="139.013672"/>
      </g>
     </g>
    </g>
    <g id="xtick_3">
     <g id="line2d_101">
      <path d="M 508.1544 643.3632 
L 508.1544 86.7456 
" clip-path="url(#p974f057779)" style="fill: none; stroke-dasharray: 1.85,0.8; stroke-dashoffset: 0; stroke: #d3d3d3; stroke-width: 0.5"/>
     </g>
     <g id="line2d_102">
      <g>
       <use xlink:href="#m78c231a2bb" x="508.1544" y="643.3632" style="stroke: #000000; stroke-width: 0.8"/>
      </g>
     </g>
     <g id="text_3">
      <!-- 0.25 -->
      <g transform="translate(494.531744 660.406012)scale(0.14 -0.14)">
       <use xlink:href="#Helvetica-30"/>
       <use xlink:href="#Helvetica-2e" x="55.615234"/>
       <use xlink:href="#Helvetica-32" x="83.398438"/>
       <use xlink:href="#Helvetica-35" x="139.013672"/>
      </g>
     </g>
    </g>
   </g>
   <g id="matplotlib.axis_2"/>
   <g id="line2d_103">
    <path d="M 369 86.7456 
L 394.237357 253.73088 
" clip-path="url(#p974f057779)" style="fill: none; stroke: #000000; stroke-linecap: square"/>
   </g>
   <g id="line2d_104">
    <path d="M 369 86.7456 
L 343.762643 253.73088 
" clip-path="url(#p974f057779)" style="fill: none; stroke: #000000; stroke-linecap: square"/>
   </g>
   <g id="line2d_105">
    <path d="M 394.237357 253.73088 
L 398.443583 365.0544 
" clip-path="url(#p974f057779)" style="fill: none; stroke: #000000; stroke-linecap: square"/>
   </g>
   <g id="line2d_106">
    <path d="M 343.762643 253.73088 
L 339.556417 365.0544 
" clip-path="url(#p974f057779)" style="fill: none; stroke: #000000; stroke-linecap: square"/>
   </g>
   <g id="line2d_107">
    <path d="M 398.443583 365.0544 
L 379.515565 643.3632 
" clip-path="url(#p974f057779)" style="fill: none; stroke: #000000; stroke-linecap: square"/>
   </g>
   <g id="line2d_108">
    <path d="M 339.556417 365.0544 
L 358.484435 643.3632 
" clip-path="url(#p974f057779)" style="fill: none; stroke: #000000; stroke-linecap: square"/>
   </g>
   <g id="line2d_109">
    <path d="M 229.8456 643.3632 
L 508.1544 643.3632 
" clip-path="url(#p974f057779)" style="fill: none; stroke: #696969; stroke-width: 4; stroke-linecap: square"/>
   </g>
   <g id="line2d_110">
    <path d="M 229.8456 365.0544 
L 508.1544 365.0544 
" clip-path="url(#p974f057779)" style="fill: none; stroke: #000000; stroke-opacity: 0.8; stroke-width: 6; stroke-linecap: square"/>
   </g>
   <g id="patch_4">
    <path d="M 229.8456 253.73088 
C 229.8456 257.420069 244.516476 260.961932 270.60298 263.570582 
C 296.689484 266.179232 332.108113 267.64632 369 267.64632 
C 405.891887 267.64632 441.310516 266.179232 467.39702 263.570582 
C 493.483524 260.961932 508.1544 257.420069 508.1544 253.73088 
" clip-path="url(#p974f057779)" style="fill: none; stroke: #000000; stroke-linejoin: miter"/>
   </g>
   <g id="line2d_111">
    <path d="M 229.8456 365.0544 
L 299.4228 365.0544 
" clip-path="url(#p974f057779)" style="fill: none; stroke: #f08080; stroke-width: 4; stroke-linecap: square"/>
   </g>
   <g id="line2d_112">
    <path d="M 299.4228 365.0544 
L 369 365.0544 
" clip-path="url(#p974f057779)" style="fill: none; stroke: #add8e6; stroke-width: 4; stroke-linecap: square"/>
   </g>
   <g id="line2d_113">
    <path d="M 369 365.0544 
L 438.5772 365.0544 
" clip-path="url(#p974f057779)" style="fill: none; stroke: #f08080; stroke-width: 4; stroke-linecap: square"/>
   </g>
   <g id="line2d_114">
    <path d="M 438.5772 365.0544 
L 508.1544 365.0544 
" clip-path="url(#p974f057779)" style="fill: none; stroke: #add8e6; stroke-width: 4; stroke-linecap: square"/>
   </g>
   <g id="text_4">
    <!-- Electron Gun -->
    <g transform="translate(369 86.7456)scale(0.2 -0.2)">
     <defs>
      <path id="Helvetica-45" d="M 547 4591 
L 3894 4591 
L 3894 4028 
L 1153 4028 
L 1153 2634 
L 3688 2634 
L 3688 2103 
L 1153 2103 
L 1153 547 
L 3941 547 
L 3941 0 
L 547 0 
L 547 4591 
z
M 2244 4591 
L 2244 4591 
z
" transform="scale(0.015625)"/>
      <path id="Helvetica-6c" d="M 428 4591 
L 991 4591 
L 991 0 
L 428 0 
L 428 4591 
z
" transform="scale(0.015625)"/>
      <path id="Helvetica-65" d="M 1806 3422 
Q 2163 3422 2497 3255 
Q 2831 3088 3006 2822 
Q 3175 2569 3231 2231 
Q 3281 2000 3281 1494 
L 828 1494 
Q 844 984 1069 676 
Q 1294 369 1766 369 
Q 2206 369 2469 659 
Q 2619 828 2681 1050 
L 3234 1050 
Q 3213 866 3089 639 
Q 2966 413 2813 269 
Q 2556 19 2178 -69 
Q 1975 -119 1719 -119 
Q 1094 -119 659 336 
Q 225 791 225 1609 
Q 225 2416 662 2919 
Q 1100 3422 1806 3422 
z
M 2703 1941 
Q 2669 2306 2544 2525 
Q 2313 2931 1772 2931 
Q 1384 2931 1121 2651 
Q 859 2372 844 1941 
L 2703 1941 
z
M 1753 3428 
L 1753 3428 
z
" transform="scale(0.015625)"/>
      <path id="Helvetica-63" d="M 1703 3444 
Q 2269 3444 2623 3169 
Q 2978 2894 3050 2222 
L 2503 2222 
Q 2453 2531 2275 2736 
Q 2097 2941 1703 2941 
Q 1166 2941 934 2416 
Q 784 2075 784 1575 
Q 784 1072 996 728 
Q 1209 384 1666 384 
Q 2016 384 2220 598 
Q 2425 813 2503 1184 
L 3050 1184 
Q 2956 519 2581 211 
Q 2206 -97 1622 -97 
Q 966 -97 575 383 
Q 184 863 184 1581 
Q 184 2463 612 2953 
Q 1041 3444 1703 3444 
z
M 1616 3428 
L 1616 3428 
z
" transform="scale(0.015625)"/>
      <path id="Helvetica-74" d="M 525 4281 
L 1094 4281 
L 1094 3347 
L 1628 3347 
L 1628 2888 
L 1094 2888 
L 1094 703 
Q 1094 528 1213 469 
Q 1278 434 1431 434 
Q 1472 434 1519 436 
Q 1566 438 1628 444 
L 1628 0 
Q 1531 -28 1426 -40 
Q 1322 -53 1200 -53 
Q 806 -53 665 148 
Q 525 350 525 672 
L 525 2888 
L 72 2888 
L 72 3347 
L 525 3347 
L 525 4281 
z
" transform="scale(0.015625)"/>
      <path id="Helvetica-72" d="M 428 3347 
L 963 3347 
L 963 2769 
Q 1028 2938 1284 3180 
Q 1541 3422 1875 3422 
Q 1891 3422 1928 3419 
Q 1966 3416 2056 3406 
L 2056 2813 
Q 2006 2822 1964 2825 
Q 1922 2828 1872 2828 
Q 1447 2828 1219 2554 
Q 991 2281 991 1925 
L 991 0 
L 428 0 
L 428 3347 
z
" transform="scale(0.015625)"/>
      <path id="Helvetica-6f" d="M 1741 363 
Q 2300 363 2508 786 
Q 2716 1209 2716 1728 
Q 2716 2197 2566 2491 
Q 2328 2953 1747 2953 
Q 1231 2953 997 2559 
Q 763 2166 763 1609 
Q 763 1075 997 719 
Q 1231 363 1741 363 
z
M 1763 3444 
Q 2409 3444 2856 3012 
Q 3303 2581 3303 1744 
Q 3303 934 2909 406 
Q 2516 -122 1688 -122 
Q 997 -122 590 345 
Q 184 813 184 1600 
Q 184 2444 612 2944 
Q 1041 3444 1763 3444 
z
M 1744 3428 
L 1744 3428 
z
" transform="scale(0.015625)"/>
      <path id="Helvetica-6e" d="M 413 3347 
L 947 3347 
L 947 2872 
Q 1184 3166 1450 3294 
Q 1716 3422 2041 3422 
Q 2753 3422 3003 2925 
Q 3141 2653 3141 2147 
L 3141 0 
L 2569 0 
L 2569 2109 
Q 2569 2416 2478 2603 
Q 2328 2916 1934 2916 
Q 1734 2916 1606 2875 
Q 1375 2806 1200 2600 
Q 1059 2434 1017 2257 
Q 975 2081 975 1753 
L 975 0 
L 413 0 
L 413 3347 
z
M 1734 3428 
L 1734 3428 
z
" transform="scale(0.015625)"/>
      <path id="Helvetica-20" transform="scale(0.015625)"/>
      <path id="Helvetica-47" d="M 2472 4709 
Q 3119 4709 3591 4459 
Q 4275 4100 4428 3200 
L 3813 3200 
Q 3700 3703 3347 3933 
Q 2994 4163 2456 4163 
Q 1819 4163 1383 3684 
Q 947 3206 947 2259 
Q 947 1441 1306 927 
Q 1666 413 2478 413 
Q 3100 413 3508 773 
Q 3916 1134 3925 1941 
L 2488 1941 
L 2488 2456 
L 4503 2456 
L 4503 0 
L 4103 0 
L 3953 591 
Q 3638 244 3394 109 
Q 2984 -122 2353 -122 
Q 1538 -122 950 406 
Q 309 1069 309 2225 
Q 309 3378 934 4059 
Q 1528 4709 2472 4709 
z
M 2369 4716 
L 2369 4716 
z
" transform="scale(0.015625)"/>
      <path id="Helvetica-75" d="M 975 3347 
L 975 1125 
Q 975 869 1056 706 
Q 1206 406 1616 406 
Q 2203 406 2416 931 
Q 2531 1213 2531 1703 
L 2531 3347 
L 3094 3347 
L 3094 0 
L 2563 0 
L 2569 494 
Q 2459 303 2297 172 
Q 1975 -91 1516 -91 
Q 800 -91 541 388 
Q 400 644 400 1072 
L 400 3347 
L 975 3347 
z
M 1747 3428 
L 1747 3428 
z
" transform="scale(0.015625)"/>
     </defs>
     <use xlink:href="#Helvetica-45"/>
     <use xlink:href="#Helvetica-6c" x="66.699219"/>
     <use xlink:href="#Helvetica-65" x="88.916016"/>
     <use xlink:href="#Helvetica-63" x="144.53125"/>
     <use xlink:href="#Helvetica-74" x="194.53125"/>
     <use xlink:href="#Helvetica-72" x="222.314453"/>
     <use xlink:href="#Helvetica-6f" x="255.615234"/>
     <use xlink:href="#Helvetica-6e" x="311.230469"/>
     <use xlink:href="#Helvetica-20" x="366.845703"/>
     <use xlink:href="#Helvetica-47" x="394.628906"/>
     <use xlink:href="#Helvetica-75" x="472.412109"/>
     <use xlink:href="#Helvetica-6e" x="528.027344"/>
    </g>
   </g>
   <g id="text_5">
    <!-- Condenser Lens -->
    <g transform="translate(535.98528 259.297056)scale(0.2 -0.2)">
     <defs>
      <path id="Helvetica-43" d="M 2422 4716 
Q 3294 4716 3775 4256 
Q 4256 3797 4309 3213 
L 3703 3213 
Q 3600 3656 3292 3915 
Q 2984 4175 2428 4175 
Q 1750 4175 1333 3698 
Q 916 3222 916 2238 
Q 916 1431 1292 929 
Q 1669 428 2416 428 
Q 3103 428 3463 956 
Q 3653 1234 3747 1688 
L 4353 1688 
Q 4272 963 3816 472 
Q 3269 -119 2341 -119 
Q 1541 -119 997 366 
Q 281 1006 281 2344 
Q 281 3359 819 4009 
Q 1400 4716 2422 4716 
z
M 2297 4716 
L 2297 4716 
z
" transform="scale(0.015625)"/>
      <path id="Helvetica-64" d="M 769 1634 
Q 769 1097 997 734 
Q 1225 372 1728 372 
Q 2119 372 2370 708 
Q 2622 1044 2622 1672 
Q 2622 2306 2362 2611 
Q 2103 2916 1722 2916 
Q 1297 2916 1033 2591 
Q 769 2266 769 1634 
z
M 1616 3406 
Q 2000 3406 2259 3244 
Q 2409 3150 2600 2916 
L 2600 4606 
L 3141 4606 
L 3141 0 
L 2634 0 
L 2634 466 
Q 2438 156 2169 18 
Q 1900 -119 1553 -119 
Q 994 -119 584 351 
Q 175 822 175 1603 
Q 175 2334 548 2870 
Q 922 3406 1616 3406 
z
" transform="scale(0.015625)"/>
      <path id="Helvetica-73" d="M 747 1050 
Q 772 769 888 619 
Q 1100 347 1625 347 
Q 1938 347 2175 483 
Q 2413 619 2413 903 
Q 2413 1119 2222 1231 
Q 2100 1300 1741 1391 
L 1294 1503 
Q 866 1609 663 1741 
Q 300 1969 300 2372 
Q 300 2847 642 3140 
Q 984 3434 1563 3434 
Q 2319 3434 2653 2991 
Q 2863 2709 2856 2384 
L 2325 2384 
Q 2309 2575 2191 2731 
Q 1997 2953 1519 2953 
Q 1200 2953 1036 2831 
Q 872 2709 872 2509 
Q 872 2291 1088 2159 
Q 1213 2081 1456 2022 
L 1828 1931 
Q 2434 1784 2641 1647 
Q 2969 1431 2969 969 
Q 2969 522 2630 197 
Q 2291 -128 1597 -128 
Q 850 -128 539 211 
Q 228 550 206 1050 
L 747 1050 
z
M 1578 3428 
L 1578 3428 
z
" transform="scale(0.015625)"/>
      <path id="Helvetica-4c" d="M 488 4591 
L 1109 4591 
L 1109 547 
L 3434 547 
L 3434 0 
L 488 0 
L 488 4591 
z
" transform="scale(0.015625)"/>
     </defs>
     <use xlink:href="#Helvetica-43"/>
     <use xlink:href="#Helvetica-6f" x="72.216797"/>
     <use xlink:href="#Helvetica-6e" x="127.832031"/>
     <use xlink:href="#Helvetica-64" x="183.447266"/>
     <use xlink:href="#Helvetica-65" x="239.0625"/>
     <use xlink:href="#Helvetica-6e" x="294.677734"/>
     <use xlink:href="#Helvetica-73" x="350.292969"/>
     <use xlink:href="#Helvetica-65" x="400.292969"/>
     <use xlink:href="#Helvetica-72" x="455.908203"/>
     <use xlink:href="#Helvetica-20" x="489.208984"/>
     <use xlink:href="#Helvetica-4c" x="516.992188"/>
     <use xlink:href="#Helvetica-65" x="572.607422"/>
     <use xlink:href="#Helvetica-6e" x="628.222656"/>
     <use xlink:href="#Helvetica-73" x="683.837891"/>
    </g>
   </g>
   <g id="text_6">
    <!-- Upper Condenser Stigmator -->
    <g transform="translate(535.98528 370.620576)scale(0.2 -0.2)">
     <defs>
      <path id="Helvetica-55" d="M 1163 4591 
L 1163 1753 
Q 1163 1253 1350 922 
Q 1628 422 2288 422 
Q 3078 422 3363 963 
Q 3516 1256 3516 1753 
L 3516 4591 
L 4147 4591 
L 4147 2013 
Q 4147 1166 3919 709 
Q 3500 -122 2338 -122 
Q 1175 -122 759 709 
Q 531 1166 531 2013 
L 531 4591 
L 1163 4591 
z
M 2341 4591 
L 2341 4591 
z
" transform="scale(0.015625)"/>
      <path id="Helvetica-70" d="M 1825 378 
Q 2219 378 2480 708 
Q 2741 1038 2741 1694 
Q 2741 2094 2625 2381 
Q 2406 2934 1825 2934 
Q 1241 2934 1025 2350 
Q 909 2038 909 1556 
Q 909 1169 1025 897 
Q 1244 378 1825 378 
z
M 369 3331 
L 916 3331 
L 916 2888 
Q 1084 3116 1284 3241 
Q 1569 3428 1953 3428 
Q 2522 3428 2919 2992 
Q 3316 2556 3316 1747 
Q 3316 653 2744 184 
Q 2381 -113 1900 -113 
Q 1522 -113 1266 53 
Q 1116 147 931 375 
L 931 -1334 
L 369 -1334 
L 369 3331 
z
" transform="scale(0.015625)"/>
      <path id="Helvetica-53" d="M 894 1481 
Q 916 1091 1078 847 
Q 1388 391 2169 391 
Q 2519 391 2806 491 
Q 3363 684 3363 1184 
Q 3363 1559 3128 1719 
Q 2891 1875 2384 1991 
L 1763 2131 
Q 1153 2269 900 2434 
Q 463 2722 463 3294 
Q 463 3913 891 4309 
Q 1319 4706 2103 4706 
Q 2825 4706 3329 4357 
Q 3834 4009 3834 3244 
L 3250 3244 
Q 3203 3613 3050 3809 
Q 2766 4169 2084 4169 
Q 1534 4169 1293 3937 
Q 1053 3706 1053 3400 
Q 1053 3063 1334 2906 
Q 1519 2806 2169 2656 
L 2813 2509 
Q 3278 2403 3531 2219 
Q 3969 1897 3969 1284 
Q 3969 522 3414 194 
Q 2859 -134 2125 -134 
Q 1269 -134 784 303 
Q 300 738 309 1481 
L 894 1481 
z
M 2150 4716 
L 2150 4716 
z
" transform="scale(0.015625)"/>
      <path id="Helvetica-69" d="M 413 3331 
L 984 3331 
L 984 0 
L 413 0 
L 413 3331 
z
M 413 4591 
L 984 4591 
L 984 3953 
L 413 3953 
L 413 4591 
z
" transform="scale(0.015625)"/>
      <path id="Helvetica-67" d="M 1594 3406 
Q 1988 3406 2281 3213 
Q 2441 3103 2606 2894 
L 2606 3316 
L 3125 3316 
L 3125 272 
Q 3125 -366 2938 -734 
Q 2588 -1416 1616 -1416 
Q 1075 -1416 706 -1173 
Q 338 -931 294 -416 
L 866 -416 
Q 906 -641 1028 -763 
Q 1219 -950 1628 -950 
Q 2275 -950 2475 -494 
Q 2594 -225 2584 466 
Q 2416 209 2178 84 
Q 1941 -41 1550 -41 
Q 1006 -41 598 345 
Q 191 731 191 1622 
Q 191 2463 602 2934 
Q 1013 3406 1594 3406 
z
M 2606 1688 
Q 2606 2309 2350 2609 
Q 2094 2909 1697 2909 
Q 1103 2909 884 2353 
Q 769 2056 769 1575 
Q 769 1009 998 714 
Q 1228 419 1616 419 
Q 2222 419 2469 966 
Q 2606 1275 2606 1688 
z
M 1659 3428 
L 1659 3428 
z
" transform="scale(0.015625)"/>
      <path id="Helvetica-6d" d="M 413 3347 
L 969 3347 
L 969 2872 
Q 1169 3119 1331 3231 
Q 1609 3422 1963 3422 
Q 2363 3422 2606 3225 
Q 2744 3113 2856 2894 
Q 3044 3163 3297 3292 
Q 3550 3422 3866 3422 
Q 4541 3422 4784 2934 
Q 4916 2672 4916 2228 
L 4916 0 
L 4331 0 
L 4331 2325 
Q 4331 2659 4164 2784 
Q 3997 2909 3756 2909 
Q 3425 2909 3186 2687 
Q 2947 2466 2947 1947 
L 2947 0 
L 2375 0 
L 2375 2184 
Q 2375 2525 2294 2681 
Q 2166 2916 1816 2916 
Q 1497 2916 1236 2669 
Q 975 2422 975 1775 
L 975 0 
L 413 0 
L 413 3347 
z
" transform="scale(0.015625)"/>
      <path id="Helvetica-61" d="M 844 891 
Q 844 647 1022 506 
Q 1200 366 1444 366 
Q 1741 366 2019 503 
Q 2488 731 2488 1250 
L 2488 1703 
Q 2384 1638 2221 1594 
Q 2059 1550 1903 1531 
L 1563 1488 
Q 1256 1447 1103 1359 
Q 844 1213 844 891 
z
M 2206 2028 
Q 2400 2053 2466 2191 
Q 2503 2266 2503 2406 
Q 2503 2694 2298 2823 
Q 2094 2953 1713 2953 
Q 1272 2953 1088 2716 
Q 984 2584 953 2325 
L 428 2325 
Q 444 2944 830 3186 
Q 1216 3428 1725 3428 
Q 2316 3428 2684 3203 
Q 3050 2978 3050 2503 
L 3050 575 
Q 3050 488 3086 434 
Q 3122 381 3238 381 
Q 3275 381 3322 386 
Q 3369 391 3422 400 
L 3422 -16 
Q 3291 -53 3222 -62 
Q 3153 -72 3034 -72 
Q 2744 -72 2613 134 
Q 2544 244 2516 444 
Q 2344 219 2022 53 
Q 1700 -113 1313 -113 
Q 847 -113 551 170 
Q 256 453 256 878 
Q 256 1344 547 1600 
Q 838 1856 1309 1916 
L 2206 2028 
z
M 1741 3428 
L 1741 3428 
z
" transform="scale(0.015625)"/>
     </defs>
     <use xlink:href="#Helvetica-55"/>
     <use xlink:href="#Helvetica-70" x="72.216797"/>
     <use xlink:href="#Helvetica-70" x="127.832031"/>
     <use xlink:href="#Helvetica-65" x="183.447266"/>
     <use xlink:href="#Helvetica-72" x="239.0625"/>
     <use xlink:href="#Helvetica-20" x="272.363281"/>
     <use xlink:href="#Helvetica-43" x="300.146484"/>
     <use xlink:href="#Helvetica-6f" x="372.363281"/>
     <use xlink:href="#Helvetica-6e" x="427.978516"/>
     <use xlink:href="#Helvetica-64" x="483.59375"/>
     <use xlink:href="#Helvetica-65" x="539.208984"/>
     <use xlink:href="#Helvetica-6e" x="594.824219"/>
     <use xlink:href="#Helvetica-73" x="650.439453"/>
     <use xlink:href="#Helvetica-65" x="700.439453"/>
     <use xlink:href="#Helvetica-72" x="756.054688"/>
     <use xlink:href="#Helvetica-20" x="789.355469"/>
     <use xlink:href="#Helvetica-53" x="817.138672"/>
     <use xlink:href="#Helvetica-74" x="883.837891"/>
     <use xlink:href="#Helvetica-69" x="911.621094"/>
     <use xlink:href="#Helvetica-67" x="933.837891"/>
     <use xlink:href="#Helvetica-6d" x="989.453125"/>
     <use xlink:href="#Helvetica-61" x="1072.753906"/>
     <use xlink:href="#Helvetica-74" x="1128.369141"/>
     <use xlink:href="#Helvetica-6f" x="1156.152344"/>
     <use xlink:href="#Helvetica-72" x="1211.767578"/>
    </g>
   </g>
   <g id="text_7">
    <!-- Detector -->
    <g transform="translate(535.98528 648.929376)scale(0.2 -0.2)">
     <defs>
      <path id="Helvetica-44" d="M 2250 531 
Q 2566 531 2769 597 
Q 3131 719 3363 1066 
Q 3547 1344 3628 1778 
Q 3675 2038 3675 2259 
Q 3675 3113 3336 3584 
Q 2997 4056 2244 4056 
L 1141 4056 
L 1141 531 
L 2250 531 
z
M 516 4591 
L 2375 4591 
Q 3322 4591 3844 3919 
Q 4309 3313 4309 2366 
Q 4309 1634 4034 1044 
Q 3550 0 2369 0 
L 516 0 
L 516 4591 
z
" transform="scale(0.015625)"/>
     </defs>
     <use xlink:href="#Helvetica-44"/>
     <use xlink:href="#Helvetica-65" x="72.216797"/>
     <use xlink:href="#Helvetica-74" x="127.832031"/>
     <use xlink:href="#Helvetica-65" x="155.615234"/>
     <use xlink:href="#Helvetica-63" x="211.230469"/>
     <use xlink:href="#Helvetica-74" x="261.230469"/>
     <use xlink:href="#Helvetica-6f" x="289.013672"/>
     <use xlink:href="#Helvetica-72" x="344.628906"/>
    </g>
   </g>
  </g>
  <g id="text_8">
   <!-- Condenser Astigmatism -->
   <g transform="translate(190.165 38.0376)scale(0.32 -0.32)">
    <defs>
     <path id="Helvetica-41" d="M 2844 1881 
L 2147 3909 
L 1406 1881 
L 2844 1881 
z
M 1822 4591 
L 2525 4591 
L 4191 0 
L 3509 0 
L 3044 1375 
L 1228 1375 
L 731 0 
L 94 0 
L 1822 4591 
z
M 2144 4591 
L 2144 4591 
z
" transform="scale(0.015625)"/>
    </defs>
    <use xlink:href="#Helvetica-43"/>
    <use xlink:href="#Helvetica-6f" x="72.216797"/>
    <use xlink:href="#Helvetica-6e" x="127.832031"/>
    <use xlink:href="#Helvetica-64" x="183.447266"/>
    <use xlink:href="#Helvetica-65" x="239.0625"/>
    <use xlink:href="#Helvetica-6e" x="294.677734"/>
    <use xlink:href="#Helvetica-73" x="350.292969"/>
    <use xlink:href="#Helvetica-65" x="400.292969"/>
    <use xlink:href="#Helvetica-72" x="455.908203"/>
    <use xlink:href="#Helvetica-20" x="489.208984"/>
    <use xlink:href="#Helvetica-41" x="516.992188"/>
    <use xlink:href="#Helvetica-73" x="583.691406"/>
    <use xlink:href="#Helvetica-74" x="633.691406"/>
    <use xlink:href="#Helvetica-69" x="661.474609"/>
    <use xlink:href="#Helvetica-67" x="683.691406"/>
    <use xlink:href="#Helvetica-6d" x="739.306641"/>
    <use xlink:href="#Helvetica-61" x="822.607422"/>
    <use xlink:href="#Helvetica-74" x="878.222656"/>
    <use xlink:href="#Helvetica-69" x="906.005859"/>
    <use xlink:href="#Helvetica-73" x="928.222656"/>
    <use xlink:href="#Helvetica-6d" x="978.222656"/>
   </g>
  </g>
 </g>
 <defs>
  <clipPath id="p974f057779">
   <rect x="90.6912" y="86.7456" width="556.6176" height="556.6176"/>
  </clipPath>
 </defs>
</svg>
