<?xml version="1.0" encoding="utf-8" standalone="no"?>
<!DOCTYPE svg PUBLIC "-//W3C//DTD SVG 1.1//EN"
  "http://www.w3.org/Graphics/SVG/1.1/DTD/svg11.dtd">
<!-- Created with matplotlib (https://matplotlib.org/) -->
<svg height="71.731708pt" version="1.1" viewBox="0 0 258.743016 71.731708" width="258.743016pt" xmlns="http://www.w3.org/2000/svg" xmlns:xlink="http://www.w3.org/1999/xlink">
 <metadata>
  <rdf:RDF xmlns:cc="http://creativecommons.org/ns#" xmlns:dc="http://purl.org/dc/elements/1.1/" xmlns:rdf="http://www.w3.org/1999/02/22-rdf-syntax-ns#">
   <cc:Work>
    <dc:type rdf:resource="http://purl.org/dc/dcmitype/StillImage"/>
    <dc:date>2022-09-06T16:42:45.811547</dc:date>
    <dc:format>image/svg+xml</dc:format>
    <dc:creator>
     <cc:Agent>
      <dc:title>Matplotlib v3.3.3, https://matplotlib.org/</dc:title>
     </cc:Agent>
    </dc:creator>
   </cc:Work>
  </rdf:RDF>
 </metadata>
 <defs>
  <style type="text/css">*{stroke-linecap:butt;stroke-linejoin:round;}</style>
 </defs>
 <g id="figure_1">
  <g id="patch_1">
   <path d="M 0 71.731708 
L 258.743016 71.731708 
L 258.743016 0 
L 0 0 
z
" style="fill:none;"/>
  </g>
  <g id="text_1">
   <!-- $M_{doubledef} = \left[\begin{matrix}1 &amp; z_{prop} &amp; 0 &amp; 0 &amp; low_{defx} z_{prop}\\0 &amp; 1 &amp; 0 &amp; 0 &amp; low_{defx} + up_{defx}\\0 &amp; 0 &amp; 1 &amp; z_{prop} &amp; low_{defy} z_{prop}\\0 &amp; 0 &amp; 0 &amp; 1 &amp; low_{defy} + up_{defy}\\0 &amp; 0 &amp; 0 &amp; 0 &amp; 1\end{matrix}\right]$ -->
   <g transform="translate(0 38.854646)scale(0.12 -0.12)">
    <defs>
     <path d="M 90.796875 60.71875 
C 91.703125 64.109375 91.90625 65.109375 99 65.109375 
C 100.90625 65.109375 101.796875 65.109375 101.796875 67 
C 101.796875 68 101.09375 68 99.203125 68 
L 87.203125 68 
C 84.703125 68 84.59375 67.90625 83.5 66.296875 
L 47 8.78125 
L 39.5 65.796875 
C 39.203125 68 39.09375 68 36.5 68 
L 24.09375 68 
C 22.203125 68 21.296875 68 21.296875 66.109375 
C 21.296875 65.109375 22.203125 65.109375 23.703125 65.109375 
C 29.796875 65.109375 29.796875 64.3125 29.796875 63.21875 
C 29.796875 63.03125 29.796875 62.421875 29.40625 60.921875 
L 16.59375 9.90625 
C 15.40625 5.109375 13.09375 2.90625 6.40625 2.90625 
C 6.09375 2.90625 4.90625 2.90625 4.90625 1.140625 
C 4.90625 0 5.796875 0 6.203125 0 
C 8.203125 0 13.296875 0 15.296875 0 
L 20.09375 0 
C 21.5 0 23.203125 0 24.59375 0 
C 25.296875 0 26.40625 0 26.40625 1.90625 
C 26.40625 2.8125 25.40625 2.90625 25 2.90625 
C 21.703125 2.90625 18.5 3.5 18.5 7.09375 
C 18.5 8.09375 18.5 8.1875 18.90625 9.578125 
L 32.703125 64.515625 
L 32.796875 64.515625 
L 41.09375 2.6875 
C 41.40625 0.296875 41.5 0 42.40625 0 
C 43.5 0 44 0.796875 44.5 1.703125 
L 84.703125 65.015625 
L 84.796875 65.015625 
L 70.296875 7.390625 
C 69.40625 3.90625 69.203125 2.90625 62.203125 2.90625 
C 60.296875 2.90625 59.296875 2.90625 59.296875 1.09375 
C 59.296875 0 60.203125 0 60.796875 0 
C 62.5 0 64.5 0 66.203125 0 
L 78 0 
C 79.703125 0 81.796875 0 83.5 0 
C 84.296875 0 85.40625 0 85.40625 1.90625 
C 85.40625 2.90625 84.5 2.90625 83 2.90625 
C 76.90625 2.90625 76.90625 3.65625 76.90625 4.59375 
C 76.90625 4.703125 76.90625 5.390625 77.09375 6.1875 
z
" id="CMMI12-77"/>
     <path d="M 50.296875 66.515625 
C 50.40625 66.90625 50.59375 67.5 50.59375 68 
C 50.59375 69 49.59375 69 49.40625 69 
C 49.296875 69 44.40625 68.5625 43.90625 68.4375 
C 42.203125 68.328125 40.703125 68.09375 38.90625 68.09375 
C 36.40625 67.890625 35.703125 67.796875 35.703125 66 
C 35.703125 65 36.5 65 37.90625 65 
C 42.796875 65 42.90625 64.109375 42.90625 63.125 
C 42.90625 62.53125 42.703125 61.75 42.59375 61.453125 
L 36.5 37.421875 
C 35.40625 40.015625 32.703125 44 27.5 44 
C 16.203125 44 4 29.4375 4 14.671875 
C 4 4.796875 9.796875 -1 16.59375 -1 
C 22.09375 -1 26.796875 3.296875 29.59375 6.59375 
C 30.59375 0.703125 35.296875 -1 38.296875 -1 
C 41.296875 -1 43.703125 0.796875 45.5 4.390625 
C 47.09375 7.78125 48.5 13.875 48.5 14.265625 
C 48.5 14.765625 48.09375 15.171875 47.5 15.171875 
C 46.59375 15.171875 46.5 14.671875 46.09375 13.171875 
C 44.59375 7.28125 42.703125 1 38.59375 1 
C 35.703125 1 35.5 3.578125 35.5 5.578125 
C 35.5 5.96875 35.5 8.046875 36.203125 10.84375 
z
M 30.09375 11.875 
C 29.59375 10.171875 29.59375 9.984375 28.203125 8.078125 
C 26 5.28125 21.59375 1 16.90625 1 
C 12.796875 1 10.5 4.6875 10.5 10.578125 
C 10.5 16.0625 13.59375 27.234375 15.5 31.4375 
C 18.90625 38.421875 23.59375 42.015625 27.5 42.015625 
C 34.09375 42.015625 35.40625 33.828125 35.40625 33.03125 
C 35.40625 32.9375 35.09375 31.625 35 31.4375 
z
" id="CMMI12-100"/>
     <path d="M 45.59375 27.4375 
C 45.59375 36.921875 39.40625 44 30.296875 44 
C 17.09375 44 4.09375 29.640625 4.09375 15.5625 
C 4.09375 6.09375 10.296875 -1 19.40625 -1 
C 32.703125 -1 45.59375 13.375 45.59375 27.4375 
z
M 19.5 1 
C 14.5 1 10.796875 4.984375 10.796875 11.96875 
C 10.796875 16.5625 13.203125 26.75 16 31.734375 
C 20.5 39.421875 26.09375 42.015625 30.203125 42.015625 
C 35.09375 42.015625 38.90625 38.015625 38.90625 31.03125 
C 38.90625 27.046875 36.796875 16.359375 33 10.28125 
C 28.90625 3.59375 23.40625 1 19.5 1 
z
" id="CMMI12-111"/>
     <path d="M 34.09375 5.78125 
C 35.40625 0.203125 40.203125 -1 42.59375 -1 
C 45.796875 -1 48.203125 1.09375 49.796875 4.484375 
C 51.5 8.078125 52.796875 13.96875 52.796875 14.265625 
C 52.796875 14.765625 52.40625 15.171875 51.796875 15.171875 
C 50.90625 15.171875 50.796875 14.671875 50.40625 13.171875 
C 48.59375 6.28125 46.796875 1 42.796875 1 
C 39.796875 1 39.796875 4.296875 39.796875 5.59375 
C 39.796875 7.890625 40.09375 8.875 41.09375 13.078125 
C 41.796875 15.765625 42.5 18.453125 43.09375 21.25 
L 47.203125 37.515625 
C 47.90625 40.015625 47.90625 40.21875 47.90625 40.515625 
C 47.90625 42.015625 46.703125 43.015625 45.203125 43.015625 
C 42.296875 43.015625 41.59375 40.515625 41 38.015625 
C 40 34.125 34.59375 12.671875 33.90625 9.1875 
C 33.796875 9.1875 29.90625 1 22.59375 1 
C 17.40625 1 16.40625 5.484375 16.40625 9.1875 
C 16.40625 14.875 19.203125 22.84375 21.796875 29.53125 
C 23 32.734375 23.5 34.03125 23.5 36.015625 
C 23.5 40.3125 20.40625 44 15.59375 44 
C 6.40625 44 2.703125 29.53125 2.703125 28.734375 
C 2.703125 28.34375 3.09375 27.84375 3.796875 27.84375 
C 4.703125 27.84375 4.796875 28.234375 5.203125 29.625 
C 7.59375 38.140625 11.5 41.90625 15.296875 41.90625 
C 16.296875 41.90625 17.90625 41.90625 17.90625 38.71875 
C 17.90625 36.125 16.796875 33.234375 15.296875 29.4375 
C 10.90625 17.5625 10.40625 13.765625 10.40625 10.78125 
C 10.40625 0.59375 18.09375 -1 22.203125 -1 
C 28.59375 -1 32.09375 3.390625 34.09375 5.78125 
z
" id="CMMI12-117"/>
     <path d="M 23.09375 66.515625 
C 23.203125 66.921875 23.40625 67.515625 23.40625 68 
C 23.40625 69 22.40625 69 22.203125 69 
C 22.09375 69 18.5 68.640625 16.703125 68.390625 
C 15 68.390625 13.5 68.09375 11.703125 68.09375 
C 9.296875 67.890625 8.59375 67.796875 8.59375 66 
C 8.59375 65 9.59375 65 10.59375 65 
C 15.703125 65 15.703125 64.109375 15.703125 63.125 
C 15.703125 62.4375 14.90625 59.546875 14.5 57.75 
L 12.09375 48.203125 
C 11.09375 44.234375 5.40625 21.671875 5 19.875 
C 4.5 17.40625 4.5 15.703125 4.5 14.40625 
C 4.5 4.28125 10.203125 -1 16.703125 -1 
C 28.296875 -1 40.296875 13.875 40.296875 28.34375 
C 40.296875 37.515625 35.09375 44 27.59375 44 
C 22.40625 44 17.703125 39.71875 15.796875 37.71875 
z
M 16.796875 1 
C 13.59375 1 10.09375 3.390625 10.09375 11.171875 
C 10.09375 14.46875 10.40625 16.359375 12.203125 23.34375 
C 12.5 24.640625 14.09375 31.03125 14.5 32.328125 
C 14.703125 33.125 20.59375 42.015625 27.40625 42.015625 
C 31.796875 42.015625 33.796875 37.625 33.796875 32.4375 
C 33.796875 27.640625 31 16.359375 28.5 11.171875 
C 26 5.78125 21.40625 1 16.796875 1 
z
" id="CMMI12-98"/>
     <path d="M 25.40625 66.515625 
C 25.5 66.90625 25.703125 67.5 25.703125 68 
C 25.703125 69 24.703125 69 24.5 69 
C 24.40625 69 20.796875 68.640625 19 68.390625 
C 17.296875 68.390625 15.796875 68.09375 14 68.09375 
C 11.59375 67.890625 10.90625 67.796875 10.90625 66 
C 10.90625 65 11.90625 65 12.90625 65 
C 18 65 18 64.09375 18 63.109375 
C 18 62.71875 18 62.515625 17.5 60.734375 
L 5.09375 11.421875 
C 4.796875 10.328125 4.59375 9.53125 4.59375 7.953125 
C 4.59375 2.984375 8.296875 -1 13.40625 -1 
C 16.703125 -1 18.90625 1.1875 20.5 4.28125 
C 22.203125 7.546875 23.59375 13.8125 23.59375 14.203125 
C 23.59375 14.703125 23.203125 15.109375 22.59375 15.109375 
C 21.703125 15.109375 21.59375 14.609375 21.203125 13.125 
C 19.40625 6.265625 17.59375 1 13.59375 1 
C 10.59375 1 10.59375 4.171875 10.59375 5.578125 
C 10.59375 5.96875 10.59375 8.046875 11.296875 10.84375 
z
" id="CMMI12-108"/>
     <path d="M 17.90625 23.109375 
C 20.59375 23.109375 27.40625 23.109375 32.203125 24.921875 
C 39.796875 27.859375 40.5 33.71875 40.5 35.53125 
C 40.5 39.96875 36.703125 44 30.09375 44 
C 19.59375 44 4.5 34.53125 4.5 16.765625 
C 4.5 6.28125 10.5 -1 19.59375 -1 
C 33.203125 -1 41.796875 9.515625 41.796875 10.8125 
C 41.796875 11.40625 41.203125 11.90625 40.796875 11.90625 
C 40.5 11.90625 40.40625 11.8125 39.5 10.921875 
C 33.09375 2.484375 23.59375 1 19.796875 1 
C 14.09375 1 11.09375 5.46875 11.09375 12.84375 
C 11.09375 14.234375 11.09375 16.734375 12.59375 23.109375 
z
M 13.09375 25 
C 17.40625 40.5 26.90625 42.015625 30.09375 42.015625 
C 34.5 42.015625 37.5 39.40625 37.5 35.578125 
C 37.5 25 21.5 25 17.296875 25 
z
" id="CMMI12-101"/>
     <path d="M 44.59375 40.09375 
C 46.59375 40.09375 47.40625 40.09375 47.40625 42 
C 47.40625 43 46.59375 43 44.796875 43 
L 36.703125 43 
C 38.59375 53.578125 40 60.890625 40.796875 64.171875 
C 41.40625 66.640625 43.5 69 46.09375 69 
C 48.203125 69 50.296875 68.09375 51.296875 67.15625 
C 47.40625 66.75 46.203125 63.78125 46.203125 62.015625 
C 46.203125 59.953125 47.703125 58.734375 49.59375 58.734375 
C 51.59375 58.734375 54.59375 60.46875 54.59375 64.359375 
C 54.59375 68.640625 50.40625 71 46 71 
C 41.703125 71 37.5 67.71875 35.5 63.71875 
C 33.703125 60.125 32.703125 56.421875 30.40625 43 
L 23.703125 43 
C 21.796875 43 20.796875 43 20.796875 41.203125 
C 20.796875 40.09375 21.40625 40.09375 23.40625 40.09375 
L 29.796875 40.09375 
C 28 30.875 23.90625 8.46875 21.59375 -2.140625 
C 19.90625 -10.765625 18.40625 -18 13.40625 -18 
C 13.09375 -18 10.203125 -18 8.40625 -16.109375 
C 13.5 -15.703125 13.5 -11.34375 13.5 -11.25 
C 13.5 -9.265625 12 -8.078125 10.09375 -8.078125 
C 8.09375 -8.078125 5.09375 -9.765625 5.09375 -13.546875 
C 5.09375 -17.8125 9.5 -20 13.40625 -20 
C 23.59375 -20 27.796875 -1.84375 28.90625 3.109375 
C 30.703125 10.75 35.59375 37.125 36.09375 40.09375 
z
" id="CMMI12-102"/>
     <path d="M 64.296875 31.515625 
C 65.796875 31.515625 67.296875 31.515625 67.296875 33.203125 
C 67.296875 35 65.59375 35 63.90625 35 
L 8 35 
C 6.296875 35 4.59375 35 4.59375 33.203125 
C 4.59375 31.515625 6.09375 31.515625 7.59375 31.515625 
z
M 63.90625 14 
C 65.59375 14 67.296875 14 67.296875 15.796875 
C 67.296875 17.484375 65.796875 17.484375 64.296875 17.484375 
L 7.59375 17.484375 
C 6.09375 17.484375 4.59375 17.484375 4.59375 15.796875 
C 4.59375 14 6.296875 14 8 14 
z
" id="CMR17-61"/>
     <path d="M 32.59375 -176 
L 39.5 -176 
L 39.5 -3 
L 65.90625 -3 
L 65.90625 3.90625 
L 32.59375 3.90625 
z
" id="CMEX10-50"/>
     <path d="M 32.59375 -60.09375 
L 39.5 -60.09375 
L 39.5 0.09375 
L 32.59375 0.09375 
z
" id="CMEX10-54"/>
     <path d="M 32.59375 -175.90625 
L 65.90625 -175.90625 
L 65.90625 -169 
L 39.5 -169 
L 39.5 4 
L 32.59375 4 
z
" id="CMEX10-52"/>
     <path d="M 26.59375 63.40625 
C 26.59375 65.5 26.5 65.5 25.09375 65.5 
C 21.203125 61.1875 15.296875 59.796875 9.703125 59.796875 
C 9.40625 59.796875 8.90625 59.796875 8.796875 59.5 
C 8.703125 59.296875 8.703125 59.09375 8.703125 57 
C 11.796875 57 17 57.59375 21 59.984375 
L 21 7.203125 
C 21 3.6875 20.796875 2.5 12.203125 2.5 
L 9.203125 2.5 
L 9.203125 0 
C 14 0 19 0 23.796875 0 
C 28.59375 0 33.59375 0 38.40625 0 
L 38.40625 2.5 
L 35.40625 2.5 
C 26.796875 2.5 26.59375 3.59375 26.59375 7.15625 
z
" id="CMR17-49"/>
     <path d="M 12.703125 7.59375 
C 17 12.546875 20.5 15.6875 25.5 20.25 
C 31.5 25.5 34.09375 28.015625 35.5 29.546875 
C 42.5 36.53125 46 42.390625 46 43.1875 
C 46 44 45.203125 44 45 44 
C 44.296875 44 44.09375 43.640625 43.59375 42.96875 
C 41.09375 38.96875 38.703125 36.984375 36.09375 36.984375 
C 34 36.984375 32.90625 37.828125 31 40.078125 
C 28.90625 42.421875 27.203125 44 24.296875 44 
C 17 44 12.59375 35.265625 12.59375 33.25 
C 12.59375 32.9375 12.703125 32.3125 13.59375 32.3125 
C 14.40625 32.3125 14.5 32.671875 14.796875 33.328125 
C 16.5 37.0625 21.296875 37.71875 23.203125 37.71875 
C 25.296875 37.71875 27.296875 37.125 29.40625 36.359375 
C 33.203125 35 34.796875 35 35.796875 35 
C 36.5 35 36.90625 35 37.40625 35.09375 
C 34.09375 31.15625 28.703125 26.296875 24.203125 22.15625 
L 14.09375 12.75 
C 8 6.484375 4.296875 0.515625 4.296875 -0.1875 
C 4.296875 -0.796875 4.796875 -1 5.40625 -1 
C 6 -1 6.09375 -0.890625 6.796875 0.21875 
C 8.40625 2.546875 11.59375 6 15.296875 6 
C 17.40625 6 18.40625 5.34375 20.40625 3.015625 
C 22.296875 0.953125 24 -1 27.203125 -1 
C 37 -1 42.59375 11.4375 42.59375 13.6875 
C 42.59375 14.109375 42.5 14.71875 41.5 14.71875 
C 40.703125 14.71875 40.59375 14.328125 40.296875 13.359375 
C 38.09375 7.625 32.203125 5.28125 28.296875 5.28125 
C 26.203125 5.28125 24.203125 5.875 22.09375 6.640625 
C 18.09375 8 17 8 15.703125 8 
C 14.703125 8 13.59375 8 12.703125 7.59375 
z
" id="CMMI12-122"/>
     <path d="M 4.296875 -12.328125 
C 3.59375 -15.3125 3.203125 -16.109375 -0.90625 -16.109375 
C -2.09375 -16.109375 -3.09375 -16.109375 -3.09375 -18 
C -3.09375 -18.203125 -3 -19 -1.90625 -19 
C -0.59375 -19 0.796875 -19 2.09375 -19 
L 6.40625 -19 
C 8.5 -19 13.59375 -19 15.703125 -19 
C 16.296875 -19 17.5 -19 17.5 -17.203125 
C 17.5 -16.109375 16.796875 -16.109375 15.09375 -16.109375 
C 10.5 -16.109375 10.203125 -15.421875 10.203125 -14.640625 
C 10.203125 -13.453125 14.703125 3.421875 15.296875 5.6875 
C 16.40625 2.890625 19.09375 -1 24.296875 -1 
C 35.59375 -1 47.796875 13.671875 47.796875 28.34375 
C 47.796875 37.515625 42.59375 44 35.09375 44 
C 28.703125 44 23.296875 37.8125 22.203125 36.421875 
C 21.40625 41.40625 17.5 44 13.5 44 
C 10.59375 44 8.296875 42.609375 6.40625 38.8125 
C 4.59375 35.21875 3.203125 29.140625 3.203125 28.734375 
C 3.203125 28.34375 3.59375 27.84375 4.296875 27.84375 
C 5.09375 27.84375 5.203125 27.9375 5.796875 30.234375 
C 7.296875 36.125 9.203125 42.015625 13.203125 42.015625 
C 15.5 42.015625 16.296875 40.421875 16.296875 37.453125 
C 16.296875 35.078125 16 34.078125 15.59375 32.296875 
z
M 21.59375 31.140625 
C 22.296875 33.921875 25.09375 36.828125 26.703125 38.21875 
C 27.796875 39.21875 31.09375 42.015625 34.90625 42.015625 
C 39.296875 42.015625 41.296875 37.625 41.296875 32.4375 
C 41.296875 27.640625 38.5 16.359375 36 11.171875 
C 33.5 5.78125 28.90625 1 24.296875 1 
C 17.5 1 16.40625 9.578125 16.40625 9.984375 
C 16.40625 10.28125 16.59375 11.078125 16.703125 11.578125 
z
" id="CMMI12-112"/>
     <path d="M 38.90625 40.8125 
C 35.796875 40.21875 34.203125 38.015625 34.203125 35.828125 
C 34.203125 33.421875 36.09375 32.625 37.5 32.625 
C 40.296875 32.625 42.59375 35.03125 42.59375 38.015625 
C 42.59375 41.21875 39.5 44 34.5 44 
C 30.5 44 25.90625 42.203125 21.703125 36.125 
C 21 41.40625 17 44 13 44 
C 9.09375 44 7.09375 41.015625 5.90625 38.8125 
C 4.203125 35.21875 2.703125 29.234375 2.703125 28.734375 
C 2.703125 28.34375 3.09375 27.84375 3.796875 27.84375 
C 4.59375 27.84375 4.703125 27.9375 5.296875 30.234375 
C 6.796875 36.21875 8.703125 42.015625 12.703125 42.015625 
C 15.09375 42.015625 15.796875 40.3125 15.796875 37.421875 
C 15.796875 35.21875 14.796875 31.328125 14.09375 28.234375 
L 11.296875 17.46875 
C 10.90625 15.5625 9.796875 11.078125 9.296875 9.28125 
C 8.59375 6.6875 7.5 2 7.5 1.5 
C 7.5 0.09375 8.59375 -1 10.09375 -1 
C 11.203125 -1 13.09375 -0.296875 13.703125 1.703125 
C 14 2.5 17.703125 17.5625 18.296875 19.859375 
C 18.796875 22.046875 19.40625 24.15625 19.90625 26.34375 
C 20.296875 27.734375 20.703125 29.34375 21 30.640625 
C 21.296875 31.53125 24 36.421875 26.5 38.625 
C 27.703125 39.71875 30.296875 42.015625 34.40625 42.015625 
C 36 42.015625 37.59375 41.71875 38.90625 40.8125 
z
" id="CMMI12-114"/>
     <path d="M 42 31.640625 
C 42 37.75 41.90625 48.125 37.703125 56.109375 
C 34 63.109375 28.09375 65.59375 22.90625 65.59375 
C 18.09375 65.59375 12 63.40625 8.203125 56.203125 
C 4.203125 48.71875 3.796875 39.4375 3.796875 31.640625 
C 3.796875 25.953125 3.90625 17.28125 7 9.671875 
C 11.296875 -0.609375 19 -2 22.90625 -2 
C 27.5 -2 34.5 -0.109375 38.59375 9.375 
C 41.59375 16.28125 42 24.359375 42 31.640625 
z
M 22.90625 -0.40625 
C 16.5 -0.40625 12.703125 5.078125 11.296875 12.6875 
C 10.203125 18.5625 10.203125 27.15625 10.203125 32.75 
C 10.203125 40.4375 10.203125 46.828125 11.5 52.921875 
C 13.40625 61.390625 19 64 22.90625 64 
C 27 64 32.296875 61.296875 34.203125 53.125 
C 35.5 47.4375 35.59375 40.734375 35.59375 32.75 
C 35.59375 26.25 35.59375 18.265625 34.40625 12.375 
C 32.296875 1.484375 26.40625 -0.40625 22.90625 -0.40625 
z
" id="CMR17-48"/>
     <path d="M 34.40625 6.09375 
C 36.59375 0.09375 42.796875 -1 46.59375 -1 
C 54.203125 -1 58.703125 5.59375 61.5 12.46875 
C 63.796875 18.265625 67.5 31.4375 67.5 37.328125 
C 67.5 43.40625 64.40625 44 63.5 44 
C 61.09375 44 58.90625 41.609375 58.90625 39.609375 
C 58.90625 38.421875 59.59375 37.71875 60.09375 37.328125 
C 61 36.421875 63.59375 33.734375 63.59375 28.546875 
C 63.59375 25.140625 60.796875 15.765625 58.703125 11.078125 
C 55.90625 4.984375 52.203125 1 47 1 
C 41.40625 1 39.59375 5.1875 39.59375 9.78125 
C 39.59375 12.671875 40.5 16.171875 40.90625 17.859375 
L 45.09375 34.625 
C 45.59375 36.625 46.5 40.109375 46.5 40.515625 
C 46.5 42.015625 45.296875 43.015625 43.796875 43.015625 
C 40.90625 43.015625 40.203125 40.515625 39.59375 38.125 
C 38.59375 34.234375 34.40625 17.359375 34 15.171875 
C 33.59375 13.46875 33.59375 12.375 33.59375 10.171875 
C 33.59375 7.78125 30.40625 3.984375 30.296875 3.796875 
C 29.203125 2.6875 27.59375 1 24.5 1 
C 16.59375 1 16.59375 8.484375 16.59375 10.171875 
C 16.59375 13.375 17.296875 17.765625 21.796875 29.640625 
C 23 32.734375 23.5 34.03125 23.5 36.015625 
C 23.5 40.21875 20.5 44 15.59375 44 
C 6.40625 44 2.703125 29.53125 2.703125 28.734375 
C 2.703125 28.34375 3.09375 27.84375 3.796875 27.84375 
C 4.703125 27.84375 4.796875 28.234375 5.203125 29.625 
C 7.703125 38.34375 11.59375 41.90625 15.296875 41.90625 
C 16.296875 41.90625 17.90625 41.90625 17.90625 38.71875 
C 17.90625 38.21875 17.90625 36.125 16.203125 31.734375 
C 11.5 19.265625 10.5 15.171875 10.5 11.375 
C 10.5 0.890625 19.09375 -1 24.203125 -1 
C 25.90625 -1 30.40625 -1 34.40625 6.09375 
z
" id="CMMI12-119"/>
     <path d="M 47.40625 40.71875 
C 44.203125 40.109375 43 37.71875 43 35.828125 
C 43 33.421875 44.90625 32.625 46.296875 32.625 
C 49.296875 32.625 51.40625 35.21875 51.40625 37.921875 
C 51.40625 42.109375 46.59375 44 42.40625 44 
C 36.296875 44 32.90625 38.015625 32 36.125 
C 29.703125 44 23.5 44 21.703125 44 
C 11.5 44 6.09375 30.9375 6.09375 28.734375 
C 6.09375 28.34375 6.5 27.84375 7.203125 27.84375 
C 8 27.84375 8.203125 28.4375 8.40625 28.84375 
C 11.796875 39.921875 18.5 42.015625 21.40625 42.015625 
C 25.90625 42.015625 26.796875 37.8125 26.796875 35.421875 
C 26.796875 33.234375 26.203125 30.9375 25 26.140625 
L 21.59375 12.46875 
C 20.09375 6.484375 17.203125 1 11.90625 1 
C 11.40625 1 8.90625 1 6.796875 2.296875 
C 10.40625 3 11.203125 5.984375 11.203125 7.1875 
C 11.203125 9.1875 9.703125 10.375 7.796875 10.375 
C 5.40625 10.375 2.796875 8.28125 2.796875 5.09375 
C 2.796875 0.890625 7.5 -1 11.796875 -1 
C 16.59375 -1 20 2.796875 22.09375 6.890625 
C 23.703125 1 28.703125 -1 32.40625 -1 
C 42.59375 -1 48 12.078125 48 14.265625 
C 48 14.765625 47.59375 15.171875 47 15.171875 
C 46.09375 15.171875 46 14.671875 45.703125 13.875 
C 43 5.09375 37.203125 1 32.703125 1 
C 29.203125 1 27.296875 3.59375 27.296875 7.6875 
C 27.296875 9.875 27.703125 11.46875 29.296875 18.0625 
L 32.796875 31.625 
C 34.296875 37.625 37.703125 42.015625 42.296875 42.015625 
C 42.5 42.015625 45.296875 42.015625 47.40625 40.71875 
z
" id="CMMI12-120"/>
     <path d="M 37.703125 23 
L 64.203125 23 
C 65.59375 23 67.296875 23 67.296875 24.6875 
C 67.296875 26.484375 65.703125 26.484375 64.203125 26.484375 
L 37.703125 26.484375 
L 37.703125 52.90625 
C 37.703125 54.296875 37.703125 56 36 56 
C 34.203125 56 34.203125 54.40625 34.203125 52.90625 
L 34.203125 26.484375 
L 7.703125 26.484375 
C 6.296875 26.484375 4.59375 26.484375 4.59375 24.796875 
C 4.59375 23 6.203125 23 7.703125 23 
L 34.203125 23 
L 34.203125 -3.40625 
C 34.203125 -4.796875 34.203125 -6.5 35.90625 -6.5 
C 37.703125 -6.5 37.703125 -4.90625 37.703125 -3.40625 
z
" id="CMR17-43"/>
     <path d="M 26.296875 -10.9375 
C 23.59375 -14.671875 19.703125 -18 14.796875 -18 
C 13.59375 -18 8.796875 -18 7.296875 -13.890625 
C 7.59375 -13.984375 8.09375 -13.984375 8.296875 -13.984375 
C 11.296875 -13.984375 13.296875 -11.390625 13.296875 -9.09375 
C 13.296875 -6.796875 11.40625 -6 9.90625 -6 
C 8.296875 -6 4.796875 -7.15625 4.796875 -11.859375 
C 4.796875 -16.734375 9.09375 -20.09375 14.796875 -20.09375 
C 24.796875 -20.09375 34.90625 -10.9375 37.703125 0.09375 
L 47.5 38.828125 
C 47.59375 39.328125 47.796875 39.9375 47.796875 40.53125 
C 47.796875 42.015625 46.59375 43.015625 45.09375 43.015625 
C 44.203125 43.015625 42.09375 42.609375 41.296875 39.609375 
L 33.90625 10.28125 
C 33.40625 8.484375 33.40625 8.28125 32.59375 7.1875 
C 30.59375 4.390625 27.296875 1 22.5 1 
C 16.90625 1 16.40625 6.484375 16.40625 9.1875 
C 16.40625 14.875 19.09375 22.546875 21.796875 29.734375 
C 22.90625 32.625 23.5 34.03125 23.5 36.015625 
C 23.5 40.21875 20.5 44 15.59375 44 
C 6.40625 44 2.703125 29.53125 2.703125 28.734375 
C 2.703125 28.34375 3.09375 27.84375 3.796875 27.84375 
C 4.703125 27.84375 4.796875 28.234375 5.203125 29.640625 
C 7.59375 38.015625 11.40625 42.015625 15.296875 42.015625 
C 16.203125 42.015625 17.90625 42.015625 17.90625 38.71875 
C 17.90625 36.125 16.796875 33.234375 15.296875 29.4375 
C 10.40625 16.359375 10.40625 13.078125 10.40625 10.671875 
C 10.40625 1.203125 17.203125 -1 22.203125 -1 
C 25.09375 -1 28.703125 -0.09375 32.203125 3.59375 
L 32.296875 3.5 
C 30.796875 -2.296875 29.796875 -6.125 26.296875 -10.9375 
z
" id="CMMI12-121"/>
     <path d="M 27.09375 -176 
L 34 -176 
L 34 3.90625 
L 0.703125 3.90625 
L 0.703125 -3 
L 27.09375 -3 
z
" id="CMEX10-51"/>
     <path d="M 27.09375 -60.09375 
L 34 -60.09375 
L 34 0.09375 
L 27.09375 0.09375 
z
" id="CMEX10-55"/>
     <path d="M 27.09375 -169 
L 0.703125 -169 
L 0.703125 -175.90625 
L 34 -175.90625 
L 34 4 
L 27.09375 4 
z
" id="CMEX10-53"/>
    </defs>
    <use transform="scale(0.996264)" xlink:href="#CMMI12-77"/>
    <use transform="translate(94.373425 -14.943915)scale(0.697382)" xlink:href="#CMMI12-100"/>
    <use transform="translate(129.855632 -14.943915)scale(0.697382)" xlink:href="#CMMI12-111"/>
    <use transform="translate(162.682193 -14.943915)scale(0.697382)" xlink:href="#CMMI12-117"/>
    <use transform="translate(201.546249 -14.943915)scale(0.697382)" xlink:href="#CMMI12-98"/>
    <use transform="translate(230.579237 -14.943915)scale(0.697382)" xlink:href="#CMMI12-108"/>
    <use transform="translate(252.45302 -14.943915)scale(0.697382)" xlink:href="#CMMI12-101"/>
    <use transform="translate(284.101277 -14.943915)scale(0.697382)" xlink:href="#CMMI12-100"/>
    <use transform="translate(319.583483 -14.943915)scale(0.697382)" xlink:href="#CMMI12-101"/>
    <use transform="translate(351.23174 -14.943915)scale(0.697382)" xlink:href="#CMMI12-102"/>
    <use transform="translate(420.507904 0)scale(0.996264)" xlink:href="#CMR17-61"/>
    <use transform="translate(519.896701 336.235029)scale(0.247871)" xlink:href="#CMEX10-50"/>
    <use transform="translate(519.896701 292.609349)scale(0.247871)" xlink:href="#CMEX10-54"/>
    <use transform="translate(519.896701 277.736975)scale(0.247871)" xlink:href="#CMEX10-54"/>
    <use transform="translate(519.896701 262.8646)scale(0.247871)" xlink:href="#CMEX10-54"/>
    <use transform="translate(519.896701 247.992225)scale(0.247871)" xlink:href="#CMEX10-54"/>
    <use transform="translate(519.896701 233.11985)scale(0.247871)" xlink:href="#CMEX10-54"/>
    <use transform="translate(519.896701 218.247475)scale(0.247871)" xlink:href="#CMEX10-54"/>
    <use transform="translate(519.896701 203.3751)scale(0.247871)" xlink:href="#CMEX10-54"/>
    <use transform="translate(519.896701 188.502725)scale(0.247871)" xlink:href="#CMEX10-54"/>
    <use transform="translate(519.896701 173.63035)scale(0.247871)" xlink:href="#CMEX10-54"/>
    <use transform="translate(519.896701 158.757975)scale(0.247871)" xlink:href="#CMEX10-54"/>
    <use transform="translate(519.896701 143.8856)scale(0.247871)" xlink:href="#CMEX10-54"/>
    <use transform="translate(519.896701 129.013225)scale(0.247871)" xlink:href="#CMEX10-54"/>
    <use transform="translate(519.896701 114.14085)scale(0.247871)" xlink:href="#CMEX10-54"/>
    <use transform="translate(519.896701 99.268475)scale(0.247871)" xlink:href="#CMEX10-54"/>
    <use transform="translate(519.896701 84.3961)scale(0.247871)" xlink:href="#CMEX10-54"/>
    <use transform="translate(519.896701 69.523725)scale(0.247871)" xlink:href="#CMEX10-54"/>
    <use transform="translate(519.896701 54.65135)scale(0.247871)" xlink:href="#CMEX10-54"/>
    <use transform="translate(519.896701 39.778975)scale(0.247871)" xlink:href="#CMEX10-54"/>
    <use transform="translate(519.896701 24.9066)scale(0.247871)" xlink:href="#CMEX10-54"/>
    <use transform="translate(519.896701 10.034225)scale(0.247871)" xlink:href="#CMEX10-54"/>
    <use transform="translate(519.896701 -4.83815)scale(0.247871)" xlink:href="#CMEX10-54"/>
    <use transform="translate(519.896701 -19.710525)scale(0.247871)" xlink:href="#CMEX10-54"/>
    <use transform="translate(519.896701 -34.5829)scale(0.247871)" xlink:href="#CMEX10-54"/>
    <use transform="translate(519.896701 -49.455275)scale(0.247871)" xlink:href="#CMEX10-54"/>
    <use transform="translate(519.896701 -64.327649)scale(0.247871)" xlink:href="#CMEX10-54"/>
    <use transform="translate(519.896701 -79.200024)scale(0.247871)" xlink:href="#CMEX10-54"/>
    <use transform="translate(519.896701 -94.072399)scale(0.247871)" xlink:href="#CMEX10-54"/>
    <use transform="translate(519.896701 -108.944774)scale(0.247871)" xlink:href="#CMEX10-54"/>
    <use transform="translate(519.896701 -123.817149)scale(0.247871)" xlink:href="#CMEX10-54"/>
    <use transform="translate(519.896701 -138.689524)scale(0.247871)" xlink:href="#CMEX10-54"/>
    <use transform="translate(519.896701 -153.561899)scale(0.247871)" xlink:href="#CMEX10-54"/>
    <use transform="translate(519.896701 -168.434274)scale(0.247871)" xlink:href="#CMEX10-54"/>
    <use transform="translate(519.896701 -183.306649)scale(0.247871)" xlink:href="#CMEX10-54"/>
    <use transform="translate(519.896701 -198.179024)scale(0.247871)" xlink:href="#CMEX10-54"/>
    <use transform="translate(519.896701 -213.051399)scale(0.247871)" xlink:href="#CMEX10-54"/>
    <use transform="translate(519.896701 -227.923774)scale(0.247871)" xlink:href="#CMEX10-54"/>
    <use transform="translate(519.896701 -243.787594)scale(0.247871)" xlink:href="#CMEX10-52"/>
    <use transform="translate(536.421449 249.066383)scale(0.996264)" xlink:href="#CMR17-49"/>
    <use transform="translate(592.074566 249.066383)scale(0.996264)" xlink:href="#CMMI12-122"/>
    <use transform="translate(637.390319 234.122468)scale(0.697382)" xlink:href="#CMMI12-112"/>
    <use transform="translate(671.661825 234.122468)scale(0.697382)" xlink:href="#CMMI12-114"/>
    <use transform="translate(704.331094 234.122468)scale(0.697382)" xlink:href="#CMMI12-111"/>
    <use transform="translate(737.157656 234.122468)scale(0.697382)" xlink:href="#CMMI12-112"/>
    <use transform="translate(781.889934 249.066383)scale(0.996264)" xlink:href="#CMR17-48"/>
    <use transform="translate(904.624185 249.066383)scale(0.996264)" xlink:href="#CMR17-48"/>
    <use transform="translate(1121.436717 249.066383)scale(0.996264)" xlink:href="#CMMI12-108"/>
    <use transform="translate(1152.685121 249.066383)scale(0.996264)" xlink:href="#CMMI12-111"/>
    <use transform="translate(1199.580431 249.066383)scale(0.996264)" xlink:href="#CMMI12-119"/>
    <use transform="translate(1269.31242 234.122468)scale(0.697382)" xlink:href="#CMMI12-100"/>
    <use transform="translate(1304.794627 234.122468)scale(0.697382)" xlink:href="#CMMI12-101"/>
    <use transform="translate(1336.442883 234.122468)scale(0.697382)" xlink:href="#CMMI12-102"/>
    <use transform="translate(1377.546907 234.122468)scale(0.697382)" xlink:href="#CMMI12-120"/>
    <use transform="translate(1416.848698 249.066383)scale(0.996264)" xlink:href="#CMMI12-122"/>
    <use transform="translate(1462.164451 234.122468)scale(0.697382)" xlink:href="#CMMI12-112"/>
    <use transform="translate(1496.435957 234.122468)scale(0.697382)" xlink:href="#CMMI12-114"/>
    <use transform="translate(1529.105226 234.122468)scale(0.697382)" xlink:href="#CMMI12-111"/>
    <use transform="translate(1561.931788 234.122468)scale(0.697382)" xlink:href="#CMMI12-112"/>
    <use transform="translate(536.421449 124.533381)scale(0.996264)" xlink:href="#CMR17-48"/>
    <use transform="translate(659.155699 124.533381)scale(0.996264)" xlink:href="#CMR17-49"/>
    <use transform="translate(781.889934 124.533381)scale(0.996264)" xlink:href="#CMR17-48"/>
    <use transform="translate(904.624185 124.533381)scale(0.996264)" xlink:href="#CMR17-48"/>
    <use transform="translate(1027.35842 124.533381)scale(0.996264)" xlink:href="#CMMI12-108"/>
    <use transform="translate(1058.606824 124.533381)scale(0.996264)" xlink:href="#CMMI12-111"/>
    <use transform="translate(1105.502133 124.533381)scale(0.996264)" xlink:href="#CMMI12-119"/>
    <use transform="translate(1175.234123 109.589467)scale(0.697382)" xlink:href="#CMMI12-100"/>
    <use transform="translate(1210.716329 109.589467)scale(0.697382)" xlink:href="#CMMI12-101"/>
    <use transform="translate(1242.364586 109.589467)scale(0.697382)" xlink:href="#CMMI12-102"/>
    <use transform="translate(1283.468609 109.589467)scale(0.697382)" xlink:href="#CMMI12-120"/>
    <use transform="translate(1344.909607 124.533381)scale(0.996264)" xlink:href="#CMR17-43"/>
    <use transform="translate(1438.763603 124.533381)scale(0.996264)" xlink:href="#CMMI12-117"/>
    <use transform="translate(1494.283932 124.533381)scale(0.996264)" xlink:href="#CMMI12-112"/>
    <use transform="translate(1543.243446 109.589467)scale(0.697382)" xlink:href="#CMMI12-100"/>
    <use transform="translate(1578.725653 109.589467)scale(0.697382)" xlink:href="#CMMI12-101"/>
    <use transform="translate(1610.373909 109.589467)scale(0.697382)" xlink:href="#CMMI12-102"/>
    <use transform="translate(1651.477932 109.589467)scale(0.697382)" xlink:href="#CMMI12-120"/>
    <use transform="translate(536.421449 0.00038)scale(0.996264)" xlink:href="#CMR17-48"/>
    <use transform="translate(659.155699 0.00038)scale(0.996264)" xlink:href="#CMR17-48"/>
    <use transform="translate(781.889934 0.00038)scale(0.996264)" xlink:href="#CMR17-49"/>
    <use transform="translate(837.543051 0.00038)scale(0.996264)" xlink:href="#CMMI12-122"/>
    <use transform="translate(882.858805 -14.943534)scale(0.697382)" xlink:href="#CMMI12-112"/>
    <use transform="translate(917.130311 -14.943534)scale(0.697382)" xlink:href="#CMMI12-114"/>
    <use transform="translate(949.79958 -14.943534)scale(0.697382)" xlink:href="#CMMI12-111"/>
    <use transform="translate(982.626141 -14.943534)scale(0.697382)" xlink:href="#CMMI12-112"/>
    <use transform="translate(1122.940067 0.00038)scale(0.996264)" xlink:href="#CMMI12-108"/>
    <use transform="translate(1154.188471 0.00038)scale(0.996264)" xlink:href="#CMMI12-111"/>
    <use transform="translate(1201.083781 0.00038)scale(0.996264)" xlink:href="#CMMI12-119"/>
    <use transform="translate(1270.81577 -14.943534)scale(0.697382)" xlink:href="#CMMI12-100"/>
    <use transform="translate(1306.297977 -14.943534)scale(0.697382)" xlink:href="#CMMI12-101"/>
    <use transform="translate(1337.946233 -14.943534)scale(0.697382)" xlink:href="#CMMI12-102"/>
    <use transform="translate(1379.050256 -14.943534)scale(0.697382)" xlink:href="#CMMI12-121"/>
    <use transform="translate(1415.345363 0.00038)scale(0.996264)" xlink:href="#CMMI12-122"/>
    <use transform="translate(1460.661116 -14.943534)scale(0.697382)" xlink:href="#CMMI12-112"/>
    <use transform="translate(1494.932623 -14.943534)scale(0.697382)" xlink:href="#CMMI12-114"/>
    <use transform="translate(1527.601891 -14.943534)scale(0.697382)" xlink:href="#CMMI12-111"/>
    <use transform="translate(1560.428453 -14.943534)scale(0.697382)" xlink:href="#CMMI12-112"/>
    <use transform="translate(536.421449 -124.532621)scale(0.996264)" xlink:href="#CMR17-48"/>
    <use transform="translate(659.155699 -124.532621)scale(0.996264)" xlink:href="#CMR17-48"/>
    <use transform="translate(781.889934 -124.532621)scale(0.996264)" xlink:href="#CMR17-48"/>
    <use transform="translate(904.624185 -124.532621)scale(0.996264)" xlink:href="#CMR17-49"/>
    <use transform="translate(1030.365104 -124.532621)scale(0.996264)" xlink:href="#CMMI12-108"/>
    <use transform="translate(1061.613508 -124.532621)scale(0.996264)" xlink:href="#CMMI12-111"/>
    <use transform="translate(1108.508818 -124.532621)scale(0.996264)" xlink:href="#CMMI12-119"/>
    <use transform="translate(1178.240807 -139.476536)scale(0.697382)" xlink:href="#CMMI12-100"/>
    <use transform="translate(1213.723014 -139.476536)scale(0.697382)" xlink:href="#CMMI12-101"/>
    <use transform="translate(1245.37127 -139.476536)scale(0.697382)" xlink:href="#CMMI12-102"/>
    <use transform="translate(1286.475293 -139.476536)scale(0.697382)" xlink:href="#CMMI12-121"/>
    <use transform="translate(1344.909607 -124.532621)scale(0.996264)" xlink:href="#CMR17-43"/>
    <use transform="translate(1438.763603 -124.532621)scale(0.996264)" xlink:href="#CMMI12-117"/>
    <use transform="translate(1494.283932 -124.532621)scale(0.996264)" xlink:href="#CMMI12-112"/>
    <use transform="translate(1543.243446 -139.476536)scale(0.697382)" xlink:href="#CMMI12-100"/>
    <use transform="translate(1578.725653 -139.476536)scale(0.697382)" xlink:href="#CMMI12-101"/>
    <use transform="translate(1610.373909 -139.476536)scale(0.697382)" xlink:href="#CMMI12-102"/>
    <use transform="translate(1651.477932 -139.476536)scale(0.697382)" xlink:href="#CMMI12-121"/>
    <use transform="translate(536.421449 -249.065622)scale(0.996264)" xlink:href="#CMR17-48"/>
    <use transform="translate(659.155699 -249.065622)scale(0.996264)" xlink:href="#CMR17-48"/>
    <use transform="translate(781.889934 -249.065622)scale(0.996264)" xlink:href="#CMR17-48"/>
    <use transform="translate(904.624185 -249.065622)scale(0.996264)" xlink:href="#CMR17-48"/>
    <use transform="translate(1336.223841 -249.065622)scale(0.996264)" xlink:href="#CMR17-49"/>
    <use transform="translate(1690.779724 336.235029)scale(0.247871)" xlink:href="#CMEX10-51"/>
    <use transform="translate(1690.779724 292.609349)scale(0.247871)" xlink:href="#CMEX10-55"/>
    <use transform="translate(1690.779724 277.736975)scale(0.247871)" xlink:href="#CMEX10-55"/>
    <use transform="translate(1690.779724 262.8646)scale(0.247871)" xlink:href="#CMEX10-55"/>
    <use transform="translate(1690.779724 247.992225)scale(0.247871)" xlink:href="#CMEX10-55"/>
    <use transform="translate(1690.779724 233.11985)scale(0.247871)" xlink:href="#CMEX10-55"/>
    <use transform="translate(1690.779724 218.247475)scale(0.247871)" xlink:href="#CMEX10-55"/>
    <use transform="translate(1690.779724 203.3751)scale(0.247871)" xlink:href="#CMEX10-55"/>
    <use transform="translate(1690.779724 188.502725)scale(0.247871)" xlink:href="#CMEX10-55"/>
    <use transform="translate(1690.779724 173.63035)scale(0.247871)" xlink:href="#CMEX10-55"/>
    <use transform="translate(1690.779724 158.757975)scale(0.247871)" xlink:href="#CMEX10-55"/>
    <use transform="translate(1690.779724 143.8856)scale(0.247871)" xlink:href="#CMEX10-55"/>
    <use transform="translate(1690.779724 129.013225)scale(0.247871)" xlink:href="#CMEX10-55"/>
    <use transform="translate(1690.779724 114.14085)scale(0.247871)" xlink:href="#CMEX10-55"/>
    <use transform="translate(1690.779724 99.268475)scale(0.247871)" xlink:href="#CMEX10-55"/>
    <use transform="translate(1690.779724 84.3961)scale(0.247871)" xlink:href="#CMEX10-55"/>
    <use transform="translate(1690.779724 69.523725)scale(0.247871)" xlink:href="#CMEX10-55"/>
    <use transform="translate(1690.779724 54.65135)scale(0.247871)" xlink:href="#CMEX10-55"/>
    <use transform="translate(1690.779724 39.778975)scale(0.247871)" xlink:href="#CMEX10-55"/>
    <use transform="translate(1690.779724 24.9066)scale(0.247871)" xlink:href="#CMEX10-55"/>
    <use transform="translate(1690.779724 10.034225)scale(0.247871)" xlink:href="#CMEX10-55"/>
    <use transform="translate(1690.779724 -4.83815)scale(0.247871)" xlink:href="#CMEX10-55"/>
    <use transform="translate(1690.779724 -19.710525)scale(0.247871)" xlink:href="#CMEX10-55"/>
    <use transform="translate(1690.779724 -34.5829)scale(0.247871)" xlink:href="#CMEX10-55"/>
    <use transform="translate(1690.779724 -49.455275)scale(0.247871)" xlink:href="#CMEX10-55"/>
    <use transform="translate(1690.779724 -64.327649)scale(0.247871)" xlink:href="#CMEX10-55"/>
    <use transform="translate(1690.779724 -79.200024)scale(0.247871)" xlink:href="#CMEX10-55"/>
    <use transform="translate(1690.779724 -94.072399)scale(0.247871)" xlink:href="#CMEX10-55"/>
    <use transform="translate(1690.779724 -108.944774)scale(0.247871)" xlink:href="#CMEX10-55"/>
    <use transform="translate(1690.779724 -123.817149)scale(0.247871)" xlink:href="#CMEX10-55"/>
    <use transform="translate(1690.779724 -138.689524)scale(0.247871)" xlink:href="#CMEX10-55"/>
    <use transform="translate(1690.779724 -153.561899)scale(0.247871)" xlink:href="#CMEX10-55"/>
    <use transform="translate(1690.779724 -168.434274)scale(0.247871)" xlink:href="#CMEX10-55"/>
    <use transform="translate(1690.779724 -183.306649)scale(0.247871)" xlink:href="#CMEX10-55"/>
    <use transform="translate(1690.779724 -198.179024)scale(0.247871)" xlink:href="#CMEX10-55"/>
    <use transform="translate(1690.779724 -213.051399)scale(0.247871)" xlink:href="#CMEX10-55"/>
    <use transform="translate(1690.779724 -227.923774)scale(0.247871)" xlink:href="#CMEX10-55"/>
    <use transform="translate(1690.779724 -243.787594)scale(0.247871)" xlink:href="#CMEX10-53"/>
   </g>
  </g>
 </g>
</svg>
