<?xml version="1.0" encoding="utf-8" standalone="no"?>
<!DOCTYPE svg PUBLIC "-//W3C//DTD SVG 1.1//EN"
  "http://www.w3.org/Graphics/SVG/1.1/DTD/svg11.dtd">
<!-- Created with matplotlib (https://matplotlib.org/) -->
<svg height="78.904882pt" version="1.1" viewBox="0 0 149.796235 78.904882" width="149.796235pt" xmlns="http://www.w3.org/2000/svg" xmlns:xlink="http://www.w3.org/1999/xlink">
 <metadata>
  <rdf:RDF xmlns:cc="http://creativecommons.org/ns#" xmlns:dc="http://purl.org/dc/elements/1.1/" xmlns:rdf="http://www.w3.org/1999/02/22-rdf-syntax-ns#">
   <cc:Work>
    <dc:type rdf:resource="http://purl.org/dc/dcmitype/StillImage"/>
    <dc:date>2022-09-06T16:42:45.619089</dc:date>
    <dc:format>image/svg+xml</dc:format>
    <dc:creator>
     <cc:Agent>
      <dc:title>Matplotlib v3.3.3, https://matplotlib.org/</dc:title>
     </cc:Agent>
    </dc:creator>
   </cc:Work>
  </rdf:RDF>
 </metadata>
 <defs>
  <style type="text/css">*{stroke-linecap:butt;stroke-linejoin:round;}</style>
 </defs>
 <g id="figure_1">
  <g id="patch_1">
   <path d="M 0 78.904882 
L 149.796235 78.904882 
L 149.796235 0 
L 0 0 
z
" style="fill:none;"/>
  </g>
  <g id="text_1">
   <!-- $M_{lens} = \left[\begin{matrix}1 &amp; 0 &amp; 0 &amp; 0 &amp; 0\\- \frac{1}{f} &amp; 1 &amp; 0 &amp; 0 &amp; 0\\0 &amp; 0 &amp; 1 &amp; 0 &amp; 0\\0 &amp; 0 &amp; - \frac{1}{f} &amp; 1 &amp; 0\\0 &amp; 0 &amp; 0 &amp; 0 &amp; 1\end{matrix}\right]$ -->
   <g transform="translate(0 42.441233)scale(0.12 -0.12)">
    <defs>
     <path d="M 90.796875 60.71875 
C 91.703125 64.109375 91.90625 65.109375 99 65.109375 
C 100.90625 65.109375 101.796875 65.109375 101.796875 67 
C 101.796875 68 101.09375 68 99.203125 68 
L 87.203125 68 
C 84.703125 68 84.59375 67.90625 83.5 66.296875 
L 47 8.78125 
L 39.5 65.796875 
C 39.203125 68 39.09375 68 36.5 68 
L 24.09375 68 
C 22.203125 68 21.296875 68 21.296875 66.109375 
C 21.296875 65.109375 22.203125 65.109375 23.703125 65.109375 
C 29.796875 65.109375 29.796875 64.3125 29.796875 63.21875 
C 29.796875 63.03125 29.796875 62.421875 29.40625 60.921875 
L 16.59375 9.90625 
C 15.40625 5.109375 13.09375 2.90625 6.40625 2.90625 
C 6.09375 2.90625 4.90625 2.90625 4.90625 1.140625 
C 4.90625 0 5.796875 0 6.203125 0 
C 8.203125 0 13.296875 0 15.296875 0 
L 20.09375 0 
C 21.5 0 23.203125 0 24.59375 0 
C 25.296875 0 26.40625 0 26.40625 1.90625 
C 26.40625 2.8125 25.40625 2.90625 25 2.90625 
C 21.703125 2.90625 18.5 3.5 18.5 7.09375 
C 18.5 8.09375 18.5 8.1875 18.90625 9.578125 
L 32.703125 64.515625 
L 32.796875 64.515625 
L 41.09375 2.6875 
C 41.40625 0.296875 41.5 0 42.40625 0 
C 43.5 0 44 0.796875 44.5 1.703125 
L 84.703125 65.015625 
L 84.796875 65.015625 
L 70.296875 7.390625 
C 69.40625 3.90625 69.203125 2.90625 62.203125 2.90625 
C 60.296875 2.90625 59.296875 2.90625 59.296875 1.09375 
C 59.296875 0 60.203125 0 60.796875 0 
C 62.5 0 64.5 0 66.203125 0 
L 78 0 
C 79.703125 0 81.796875 0 83.5 0 
C 84.296875 0 85.40625 0 85.40625 1.90625 
C 85.40625 2.90625 84.5 2.90625 83 2.90625 
C 76.90625 2.90625 76.90625 3.65625 76.90625 4.59375 
C 76.90625 4.703125 76.90625 5.390625 77.09375 6.1875 
z
" id="CMMI12-77"/>
     <path d="M 25.40625 66.515625 
C 25.5 66.90625 25.703125 67.5 25.703125 68 
C 25.703125 69 24.703125 69 24.5 69 
C 24.40625 69 20.796875 68.640625 19 68.390625 
C 17.296875 68.390625 15.796875 68.09375 14 68.09375 
C 11.59375 67.890625 10.90625 67.796875 10.90625 66 
C 10.90625 65 11.90625 65 12.90625 65 
C 18 65 18 64.09375 18 63.109375 
C 18 62.71875 18 62.515625 17.5 60.734375 
L 5.09375 11.421875 
C 4.796875 10.328125 4.59375 9.53125 4.59375 7.953125 
C 4.59375 2.984375 8.296875 -1 13.40625 -1 
C 16.703125 -1 18.90625 1.1875 20.5 4.28125 
C 22.203125 7.546875 23.59375 13.8125 23.59375 14.203125 
C 23.59375 14.703125 23.203125 15.109375 22.59375 15.109375 
C 21.703125 15.109375 21.59375 14.609375 21.203125 13.125 
C 19.40625 6.265625 17.59375 1 13.59375 1 
C 10.59375 1 10.59375 4.171875 10.59375 5.578125 
C 10.59375 5.96875 10.59375 8.046875 11.296875 10.84375 
z
" id="CMMI12-108"/>
     <path d="M 17.90625 23.109375 
C 20.59375 23.109375 27.40625 23.109375 32.203125 24.921875 
C 39.796875 27.859375 40.5 33.71875 40.5 35.53125 
C 40.5 39.96875 36.703125 44 30.09375 44 
C 19.59375 44 4.5 34.53125 4.5 16.765625 
C 4.5 6.28125 10.5 -1 19.59375 -1 
C 33.203125 -1 41.796875 9.515625 41.796875 10.8125 
C 41.796875 11.40625 41.203125 11.90625 40.796875 11.90625 
C 40.5 11.90625 40.40625 11.8125 39.5 10.921875 
C 33.09375 2.484375 23.59375 1 19.796875 1 
C 14.09375 1 11.09375 5.46875 11.09375 12.84375 
C 11.09375 14.234375 11.09375 16.734375 12.59375 23.109375 
z
M 13.09375 25 
C 17.40625 40.5 26.90625 42.015625 30.09375 42.015625 
C 34.5 42.015625 37.5 39.40625 37.5 35.578125 
C 37.5 25 21.5 25 17.296875 25 
z
" id="CMMI12-101"/>
     <path d="M 20.59375 29.234375 
C 20.796875 29.84375 23.296875 34.828125 27 38.015625 
C 29.59375 40.40625 33 42.015625 36.90625 42.015625 
C 40.90625 42.015625 42.296875 39.015625 42.296875 35.03125 
C 42.296875 29.34375 38.203125 17.96875 36.203125 12.578125 
C 35.296875 10.171875 34.796875 8.875 34.796875 7.078125 
C 34.796875 2.59375 37.90625 -1 42.703125 -1 
C 52 -1 55.5 13.671875 55.5 14.265625 
C 55.5 14.765625 55.09375 15.171875 54.5 15.171875 
C 53.59375 15.171875 53.5 14.875 53 13.171875 
C 50.703125 4.984375 46.90625 1 43 1 
C 42 1 40.40625 1 40.40625 4.203125 
C 40.40625 6.703125 41.5 9.703125 42.09375 11.09375 
C 44.09375 16.609375 48.296875 27.8125 48.296875 33.515625 
C 48.296875 39.5 44.796875 44 37.203125 44 
C 28.296875 44 23.59375 37.734375 21.796875 35.234375 
C 21.5 40.90625 17.40625 44 13 44 
C 9.796875 44 7.59375 42.109375 5.90625 38.71875 
C 4.09375 35.125 2.703125 29.140625 2.703125 28.734375 
C 2.703125 28.34375 3.09375 27.84375 3.796875 27.84375 
C 4.59375 27.84375 4.703125 27.9375 5.296875 30.234375 
C 6.90625 36.328125 8.703125 42.015625 12.703125 42.015625 
C 15 42.015625 15.796875 40.40625 15.796875 37.421875 
C 15.796875 35.21875 14.796875 31.328125 14.09375 28.234375 
L 11.296875 17.46875 
C 10.90625 15.5625 9.796875 11.078125 9.296875 9.28125 
C 8.59375 6.6875 7.5 2 7.5 1.5 
C 7.5 0.09375 8.59375 -1 10.09375 -1 
C 11.296875 -1 12.703125 -0.40625 13.5 1.09375 
C 13.703125 1.59375 14.59375 5.09375 15.09375 7.078125 
L 17.296875 16.0625 
z
" id="CMMI12-110"/>
     <path d="M 22.796875 20 
C 24.5 19.703125 27.203125 19.109375 27.796875 19 
C 29.09375 18.625 33.59375 17.03125 33.59375 12.234375 
C 33.59375 9.15625 30.796875 1.09375 19.203125 1.09375 
C 17.09375 1.09375 9.59375 1.09375 7.59375 6.8125 
C 11.59375 6.3125 13.59375 9.421875 13.59375 11.640625 
C 13.59375 13.75 12.203125 14.84375 10.203125 14.84375 
C 8 14.84375 5.09375 13.140625 5.09375 8.625 
C 5.09375 2.703125 11.09375 -1 19.09375 -1 
C 34.296875 -1 38.796875 10.171875 38.796875 15.375 
C 38.796875 16.859375 38.796875 19.65625 35.59375 22.84375 
C 33.09375 25.25 30.703125 25.75 25.296875 26.84375 
C 22.59375 27.4375 18.296875 28.34375 18.296875 32.828125 
C 18.296875 34.828125 20.09375 42.015625 29.59375 42.015625 
C 33.796875 42.015625 37.90625 40.453125 38.90625 37 
C 34.5 37 34.296875 33.203125 34.296875 33.109375 
C 34.296875 31 36.203125 30.40625 37.09375 30.40625 
C 38.5 30.40625 41.296875 31.484375 41.296875 35.640625 
C 41.296875 39.765625 37.5 44 29.703125 44 
C 16.59375 44 13.09375 33.75 13.09375 29.671875 
C 13.09375 22.09375 20.5 20.5 22.796875 20 
z
" id="CMMI12-115"/>
     <path d="M 64.296875 31.515625 
C 65.796875 31.515625 67.296875 31.515625 67.296875 33.203125 
C 67.296875 35 65.59375 35 63.90625 35 
L 8 35 
C 6.296875 35 4.59375 35 4.59375 33.203125 
C 4.59375 31.515625 6.09375 31.515625 7.59375 31.515625 
z
M 63.90625 14 
C 65.59375 14 67.296875 14 67.296875 15.796875 
C 67.296875 17.484375 65.796875 17.484375 64.296875 17.484375 
L 7.59375 17.484375 
C 6.09375 17.484375 4.59375 17.484375 4.59375 15.796875 
C 4.59375 14 6.296875 14 8 14 
z
" id="CMR17-61"/>
     <path d="M 32.59375 -176 
L 39.5 -176 
L 39.5 -3 
L 65.90625 -3 
L 65.90625 3.90625 
L 32.59375 3.90625 
z
" id="CMEX10-50"/>
     <path d="M 32.59375 -60.09375 
L 39.5 -60.09375 
L 39.5 0.09375 
L 32.59375 0.09375 
z
" id="CMEX10-54"/>
     <path d="M 32.59375 -175.90625 
L 65.90625 -175.90625 
L 65.90625 -169 
L 39.5 -169 
L 39.5 4 
L 32.59375 4 
z
" id="CMEX10-52"/>
     <path d="M 26.59375 63.40625 
C 26.59375 65.5 26.5 65.5 25.09375 65.5 
C 21.203125 61.1875 15.296875 59.796875 9.703125 59.796875 
C 9.40625 59.796875 8.90625 59.796875 8.796875 59.5 
C 8.703125 59.296875 8.703125 59.09375 8.703125 57 
C 11.796875 57 17 57.59375 21 59.984375 
L 21 7.203125 
C 21 3.6875 20.796875 2.5 12.203125 2.5 
L 9.203125 2.5 
L 9.203125 0 
C 14 0 19 0 23.796875 0 
C 28.59375 0 33.59375 0 38.40625 0 
L 38.40625 2.5 
L 35.40625 2.5 
C 26.796875 2.5 26.59375 3.59375 26.59375 7.15625 
z
" id="CMR17-49"/>
     <path d="M 42 31.640625 
C 42 37.75 41.90625 48.125 37.703125 56.109375 
C 34 63.109375 28.09375 65.59375 22.90625 65.59375 
C 18.09375 65.59375 12 63.40625 8.203125 56.203125 
C 4.203125 48.71875 3.796875 39.4375 3.796875 31.640625 
C 3.796875 25.953125 3.90625 17.28125 7 9.671875 
C 11.296875 -0.609375 19 -2 22.90625 -2 
C 27.5 -2 34.5 -0.109375 38.59375 9.375 
C 41.59375 16.28125 42 24.359375 42 31.640625 
z
M 22.90625 -0.40625 
C 16.5 -0.40625 12.703125 5.078125 11.296875 12.6875 
C 10.203125 18.5625 10.203125 27.15625 10.203125 32.75 
C 10.203125 40.4375 10.203125 46.828125 11.5 52.921875 
C 13.40625 61.390625 19 64 22.90625 64 
C 27 64 32.296875 61.296875 34.203125 53.125 
C 35.5 47.4375 35.59375 40.734375 35.59375 32.75 
C 35.59375 26.25 35.59375 18.265625 34.40625 12.375 
C 32.296875 1.484375 26.40625 -0.40625 22.90625 -0.40625 
z
" id="CMR17-48"/>
     <path d="M 65.90625 23 
C 67.59375 23 69.40625 23 69.40625 25 
C 69.40625 27 67.59375 27 65.90625 27 
L 11.796875 27 
C 10.09375 27 8.296875 27 8.296875 25 
C 8.296875 23 10.09375 23 11.796875 23 
z
" id="CMSY10-0"/>
     <path d="M 44.59375 40.09375 
C 46.59375 40.09375 47.40625 40.09375 47.40625 42 
C 47.40625 43 46.59375 43 44.796875 43 
L 36.703125 43 
C 38.59375 53.578125 40 60.890625 40.796875 64.171875 
C 41.40625 66.640625 43.5 69 46.09375 69 
C 48.203125 69 50.296875 68.09375 51.296875 67.15625 
C 47.40625 66.75 46.203125 63.78125 46.203125 62.015625 
C 46.203125 59.953125 47.703125 58.734375 49.59375 58.734375 
C 51.59375 58.734375 54.59375 60.46875 54.59375 64.359375 
C 54.59375 68.640625 50.40625 71 46 71 
C 41.703125 71 37.5 67.71875 35.5 63.71875 
C 33.703125 60.125 32.703125 56.421875 30.40625 43 
L 23.703125 43 
C 21.796875 43 20.796875 43 20.796875 41.203125 
C 20.796875 40.09375 21.40625 40.09375 23.40625 40.09375 
L 29.796875 40.09375 
C 28 30.875 23.90625 8.46875 21.59375 -2.140625 
C 19.90625 -10.765625 18.40625 -18 13.40625 -18 
C 13.09375 -18 10.203125 -18 8.40625 -16.109375 
C 13.5 -15.703125 13.5 -11.34375 13.5 -11.25 
C 13.5 -9.265625 12 -8.078125 10.09375 -8.078125 
C 8.09375 -8.078125 5.09375 -9.765625 5.09375 -13.546875 
C 5.09375 -17.8125 9.5 -20 13.40625 -20 
C 23.59375 -20 27.796875 -1.84375 28.90625 3.109375 
C 30.703125 10.75 35.59375 37.125 36.09375 40.09375 
z
" id="CMMI12-102"/>
     <path d="M 27.09375 -176 
L 34 -176 
L 34 3.90625 
L 0.703125 3.90625 
L 0.703125 -3 
L 27.09375 -3 
z
" id="CMEX10-51"/>
     <path d="M 27.09375 -60.09375 
L 34 -60.09375 
L 34 0.09375 
L 27.09375 0.09375 
z
" id="CMEX10-55"/>
     <path d="M 27.09375 -169 
L 0.703125 -169 
L 0.703125 -175.90625 
L 34 -175.90625 
L 34 4 
L 27.09375 4 
z
" id="CMEX10-53"/>
    </defs>
    <use transform="scale(0.996264)" xlink:href="#CMMI12-77"/>
    <use transform="translate(94.373425 -14.943915)scale(0.697382)" xlink:href="#CMMI12-108"/>
    <use transform="translate(116.247209 -14.943915)scale(0.697382)" xlink:href="#CMMI12-101"/>
    <use transform="translate(147.895465 -14.943915)scale(0.697382)" xlink:href="#CMMI12-110"/>
    <use transform="translate(188.656308 -14.943915)scale(0.697382)" xlink:href="#CMMI12-115"/>
    <use transform="translate(248.993338 0)scale(0.996264)" xlink:href="#CMR17-61"/>
    <use transform="translate(348.382135 343.671209)scale(0.247871)" xlink:href="#CMEX10-50"/>
    <use transform="translate(348.382135 300.045529)scale(0.247871)" xlink:href="#CMEX10-54"/>
    <use transform="translate(348.382135 285.173154)scale(0.247871)" xlink:href="#CMEX10-54"/>
    <use transform="translate(348.382135 270.300779)scale(0.247871)" xlink:href="#CMEX10-54"/>
    <use transform="translate(348.382135 255.428404)scale(0.247871)" xlink:href="#CMEX10-54"/>
    <use transform="translate(348.382135 240.55603)scale(0.247871)" xlink:href="#CMEX10-54"/>
    <use transform="translate(348.382135 225.683655)scale(0.247871)" xlink:href="#CMEX10-54"/>
    <use transform="translate(348.382135 210.81128)scale(0.247871)" xlink:href="#CMEX10-54"/>
    <use transform="translate(348.382135 195.938905)scale(0.247871)" xlink:href="#CMEX10-54"/>
    <use transform="translate(348.382135 181.06653)scale(0.247871)" xlink:href="#CMEX10-54"/>
    <use transform="translate(348.382135 166.194155)scale(0.247871)" xlink:href="#CMEX10-54"/>
    <use transform="translate(348.382135 151.32178)scale(0.247871)" xlink:href="#CMEX10-54"/>
    <use transform="translate(348.382135 136.449405)scale(0.247871)" xlink:href="#CMEX10-54"/>
    <use transform="translate(348.382135 121.57703)scale(0.247871)" xlink:href="#CMEX10-54"/>
    <use transform="translate(348.382135 106.704655)scale(0.247871)" xlink:href="#CMEX10-54"/>
    <use transform="translate(348.382135 91.83228)scale(0.247871)" xlink:href="#CMEX10-54"/>
    <use transform="translate(348.382135 76.959905)scale(0.247871)" xlink:href="#CMEX10-54"/>
    <use transform="translate(348.382135 62.08753)scale(0.247871)" xlink:href="#CMEX10-54"/>
    <use transform="translate(348.382135 47.215155)scale(0.247871)" xlink:href="#CMEX10-54"/>
    <use transform="translate(348.382135 32.34278)scale(0.247871)" xlink:href="#CMEX10-54"/>
    <use transform="translate(348.382135 17.470405)scale(0.247871)" xlink:href="#CMEX10-54"/>
    <use transform="translate(348.382135 2.59803)scale(0.247871)" xlink:href="#CMEX10-54"/>
    <use transform="translate(348.382135 -12.274345)scale(0.247871)" xlink:href="#CMEX10-54"/>
    <use transform="translate(348.382135 -27.14672)scale(0.247871)" xlink:href="#CMEX10-54"/>
    <use transform="translate(348.382135 -42.019095)scale(0.247871)" xlink:href="#CMEX10-54"/>
    <use transform="translate(348.382135 -56.89147)scale(0.247871)" xlink:href="#CMEX10-54"/>
    <use transform="translate(348.382135 -71.763845)scale(0.247871)" xlink:href="#CMEX10-54"/>
    <use transform="translate(348.382135 -86.63622)scale(0.247871)" xlink:href="#CMEX10-54"/>
    <use transform="translate(348.382135 -101.508594)scale(0.247871)" xlink:href="#CMEX10-54"/>
    <use transform="translate(348.382135 -116.380969)scale(0.247871)" xlink:href="#CMEX10-54"/>
    <use transform="translate(348.382135 -131.253344)scale(0.247871)" xlink:href="#CMEX10-54"/>
    <use transform="translate(348.382135 -146.125719)scale(0.247871)" xlink:href="#CMEX10-54"/>
    <use transform="translate(348.382135 -160.998094)scale(0.247871)" xlink:href="#CMEX10-54"/>
    <use transform="translate(348.382135 -175.870469)scale(0.247871)" xlink:href="#CMEX10-54"/>
    <use transform="translate(348.382135 -190.742844)scale(0.247871)" xlink:href="#CMEX10-54"/>
    <use transform="translate(348.382135 -205.615219)scale(0.247871)" xlink:href="#CMEX10-54"/>
    <use transform="translate(348.382135 -220.487594)scale(0.247871)" xlink:href="#CMEX10-54"/>
    <use transform="translate(348.382135 -235.359969)scale(0.247871)" xlink:href="#CMEX10-54"/>
    <use transform="translate(348.382135 -251.223789)scale(0.247871)" xlink:href="#CMEX10-52"/>
    <use transform="translate(402.552911 259.621512)scale(0.996264)" xlink:href="#CMR17-49"/>
    <use transform="translate(495.852042 259.621512)scale(0.996264)" xlink:href="#CMR17-48"/>
    <use transform="translate(589.151187 259.621512)scale(0.996264)" xlink:href="#CMR17-48"/>
    <use transform="translate(682.450318 259.621512)scale(0.996264)" xlink:href="#CMR17-48"/>
    <use transform="translate(738.103435 259.621512)scale(0.996264)" xlink:href="#CMR17-48"/>
    <use transform="translate(364.906883 135.088511)scale(0.996264)" xlink:href="#CMSY10-0"/>
    <use transform="translate(448.150293 174.314612)scale(0.697382)" xlink:href="#CMR17-49"/>
    <use transform="translate(443.589864 100.733258)scale(0.697382)" xlink:href="#CMMI12-102"/>
    <use transform="translate(495.852042 135.088511)scale(0.996264)" xlink:href="#CMR17-49"/>
    <use transform="translate(589.151187 135.088511)scale(0.996264)" xlink:href="#CMR17-48"/>
    <use transform="translate(682.450318 135.088511)scale(0.996264)" xlink:href="#CMR17-48"/>
    <use transform="translate(738.103435 135.088511)scale(0.996264)" xlink:href="#CMR17-48"/>
    <use transform="translate(402.552911 0.00038)scale(0.996264)" xlink:href="#CMR17-48"/>
    <use transform="translate(495.852042 0.00038)scale(0.996264)" xlink:href="#CMR17-48"/>
    <use transform="translate(589.151187 0.00038)scale(0.996264)" xlink:href="#CMR17-49"/>
    <use transform="translate(682.450318 0.00038)scale(0.996264)" xlink:href="#CMR17-48"/>
    <use transform="translate(738.103435 0.00038)scale(0.996264)" xlink:href="#CMR17-48"/>
    <use transform="translate(402.552911 -124.532621)scale(0.996264)" xlink:href="#CMR17-48"/>
    <use transform="translate(495.852042 -124.532621)scale(0.996264)" xlink:href="#CMR17-48"/>
    <use transform="translate(551.505159 -124.532621)scale(0.996264)" xlink:href="#CMSY10-0"/>
    <use transform="translate(634.748569 -85.30652)scale(0.697382)" xlink:href="#CMR17-49"/>
    <use transform="translate(630.18814 -158.887874)scale(0.697382)" xlink:href="#CMMI12-102"/>
    <use transform="translate(682.450318 -124.532621)scale(0.996264)" xlink:href="#CMR17-49"/>
    <use transform="translate(738.103435 -124.532621)scale(0.996264)" xlink:href="#CMR17-48"/>
    <use transform="translate(402.552911 -259.620752)scale(0.996264)" xlink:href="#CMR17-48"/>
    <use transform="translate(495.852042 -259.620752)scale(0.996264)" xlink:href="#CMR17-48"/>
    <use transform="translate(589.151187 -259.620752)scale(0.996264)" xlink:href="#CMR17-48"/>
    <use transform="translate(682.450318 -259.620752)scale(0.996264)" xlink:href="#CMR17-48"/>
    <use transform="translate(738.103435 -259.620752)scale(0.996264)" xlink:href="#CMR17-49"/>
    <use transform="translate(783.793912 343.671209)scale(0.247871)" xlink:href="#CMEX10-51"/>
    <use transform="translate(783.793912 300.045529)scale(0.247871)" xlink:href="#CMEX10-55"/>
    <use transform="translate(783.793912 285.173154)scale(0.247871)" xlink:href="#CMEX10-55"/>
    <use transform="translate(783.793912 270.300779)scale(0.247871)" xlink:href="#CMEX10-55"/>
    <use transform="translate(783.793912 255.428404)scale(0.247871)" xlink:href="#CMEX10-55"/>
    <use transform="translate(783.793912 240.55603)scale(0.247871)" xlink:href="#CMEX10-55"/>
    <use transform="translate(783.793912 225.683655)scale(0.247871)" xlink:href="#CMEX10-55"/>
    <use transform="translate(783.793912 210.81128)scale(0.247871)" xlink:href="#CMEX10-55"/>
    <use transform="translate(783.793912 195.938905)scale(0.247871)" xlink:href="#CMEX10-55"/>
    <use transform="translate(783.793912 181.06653)scale(0.247871)" xlink:href="#CMEX10-55"/>
    <use transform="translate(783.793912 166.194155)scale(0.247871)" xlink:href="#CMEX10-55"/>
    <use transform="translate(783.793912 151.32178)scale(0.247871)" xlink:href="#CMEX10-55"/>
    <use transform="translate(783.793912 136.449405)scale(0.247871)" xlink:href="#CMEX10-55"/>
    <use transform="translate(783.793912 121.57703)scale(0.247871)" xlink:href="#CMEX10-55"/>
    <use transform="translate(783.793912 106.704655)scale(0.247871)" xlink:href="#CMEX10-55"/>
    <use transform="translate(783.793912 91.83228)scale(0.247871)" xlink:href="#CMEX10-55"/>
    <use transform="translate(783.793912 76.959905)scale(0.247871)" xlink:href="#CMEX10-55"/>
    <use transform="translate(783.793912 62.08753)scale(0.247871)" xlink:href="#CMEX10-55"/>
    <use transform="translate(783.793912 47.215155)scale(0.247871)" xlink:href="#CMEX10-55"/>
    <use transform="translate(783.793912 32.34278)scale(0.247871)" xlink:href="#CMEX10-55"/>
    <use transform="translate(783.793912 17.470405)scale(0.247871)" xlink:href="#CMEX10-55"/>
    <use transform="translate(783.793912 2.59803)scale(0.247871)" xlink:href="#CMEX10-55"/>
    <use transform="translate(783.793912 -12.274345)scale(0.247871)" xlink:href="#CMEX10-55"/>
    <use transform="translate(783.793912 -27.14672)scale(0.247871)" xlink:href="#CMEX10-55"/>
    <use transform="translate(783.793912 -42.019095)scale(0.247871)" xlink:href="#CMEX10-55"/>
    <use transform="translate(783.793912 -56.89147)scale(0.247871)" xlink:href="#CMEX10-55"/>
    <use transform="translate(783.793912 -71.763845)scale(0.247871)" xlink:href="#CMEX10-55"/>
    <use transform="translate(783.793912 -86.63622)scale(0.247871)" xlink:href="#CMEX10-55"/>
    <use transform="translate(783.793912 -101.508594)scale(0.247871)" xlink:href="#CMEX10-55"/>
    <use transform="translate(783.793912 -116.380969)scale(0.247871)" xlink:href="#CMEX10-55"/>
    <use transform="translate(783.793912 -131.253344)scale(0.247871)" xlink:href="#CMEX10-55"/>
    <use transform="translate(783.793912 -146.125719)scale(0.247871)" xlink:href="#CMEX10-55"/>
    <use transform="translate(783.793912 -160.998094)scale(0.247871)" xlink:href="#CMEX10-55"/>
    <use transform="translate(783.793912 -175.870469)scale(0.247871)" xlink:href="#CMEX10-55"/>
    <use transform="translate(783.793912 -190.742844)scale(0.247871)" xlink:href="#CMEX10-55"/>
    <use transform="translate(783.793912 -205.615219)scale(0.247871)" xlink:href="#CMEX10-55"/>
    <use transform="translate(783.793912 -220.487594)scale(0.247871)" xlink:href="#CMEX10-55"/>
    <use transform="translate(783.793912 -235.359969)scale(0.247871)" xlink:href="#CMEX10-55"/>
    <use transform="translate(783.793912 -251.223789)scale(0.247871)" xlink:href="#CMEX10-53"/>
    <path d="M 443.589864 159.499396 
L 484.693888 159.499396 
L 484.693888 160.490841 
L 443.589864 160.490841 
L 443.589864 159.499396 
z
"/>
    <path d="M 630.18814 -100.121736 
L 671.292164 -100.121736 
L 671.292164 -99.130291 
L 630.18814 -99.130291 
L 630.18814 -100.121736 
z
"/>
   </g>
  </g>
 </g>
</svg>
