<?xml version="1.0" encoding="utf-8" standalone="no"?>
<!DOCTYPE svg PUBLIC "-//W3C//DTD SVG 1.1//EN"
  "http://www.w3.org/Graphics/SVG/1.1/DTD/svg11.dtd">
<!-- Created with matplotlib (https://matplotlib.org/) -->
<svg height="78.904882pt" version="1.1" viewBox="0 0 155.774184 78.904882" width="155.774184pt" xmlns="http://www.w3.org/2000/svg" xmlns:xlink="http://www.w3.org/1999/xlink">
 <metadata>
  <rdf:RDF xmlns:cc="http://creativecommons.org/ns#" xmlns:dc="http://purl.org/dc/elements/1.1/" xmlns:rdf="http://www.w3.org/1999/02/22-rdf-syntax-ns#">
   <cc:Work>
    <dc:type rdf:resource="http://purl.org/dc/dcmitype/StillImage"/>
    <dc:date>2022-09-06T16:42:45.653540</dc:date>
    <dc:format>image/svg+xml</dc:format>
    <dc:creator>
     <cc:Agent>
      <dc:title>Matplotlib v3.3.3, https://matplotlib.org/</dc:title>
     </cc:Agent>
    </dc:creator>
   </cc:Work>
  </rdf:RDF>
 </metadata>
 <defs>
  <style type="text/css">*{stroke-linecap:butt;stroke-linejoin:round;}</style>
 </defs>
 <g id="figure_1">
  <g id="patch_1">
   <path d="M 0 78.904882 
L 155.774184 78.904882 
L 155.774184 0 
L 0 0 
z
" style="fill:none;"/>
  </g>
  <g id="text_1">
   <!-- $M_{stig} = \left[\begin{matrix}1 &amp; 0 &amp; 0 &amp; 0 &amp; 0\\- \frac{1}{f_{x}} &amp; 1 &amp; 0 &amp; 0 &amp; 0\\0 &amp; 0 &amp; 1 &amp; 0 &amp; 0\\0 &amp; 0 &amp; - \frac{1}{f_{y}} &amp; 1 &amp; 0\\0 &amp; 0 &amp; 0 &amp; 0 &amp; 1\end{matrix}\right]$ -->
   <g transform="translate(0 42.441233)scale(0.12 -0.12)">
    <defs>
     <path d="M 90.796875 60.71875 
C 91.703125 64.109375 91.90625 65.109375 99 65.109375 
C 100.90625 65.109375 101.796875 65.109375 101.796875 67 
C 101.796875 68 101.09375 68 99.203125 68 
L 87.203125 68 
C 84.703125 68 84.59375 67.90625 83.5 66.296875 
L 47 8.78125 
L 39.5 65.796875 
C 39.203125 68 39.09375 68 36.5 68 
L 24.09375 68 
C 22.203125 68 21.296875 68 21.296875 66.109375 
C 21.296875 65.109375 22.203125 65.109375 23.703125 65.109375 
C 29.796875 65.109375 29.796875 64.3125 29.796875 63.21875 
C 29.796875 63.03125 29.796875 62.421875 29.40625 60.921875 
L 16.59375 9.90625 
C 15.40625 5.109375 13.09375 2.90625 6.40625 2.90625 
C 6.09375 2.90625 4.90625 2.90625 4.90625 1.140625 
C 4.90625 0 5.796875 0 6.203125 0 
C 8.203125 0 13.296875 0 15.296875 0 
L 20.09375 0 
C 21.5 0 23.203125 0 24.59375 0 
C 25.296875 0 26.40625 0 26.40625 1.90625 
C 26.40625 2.8125 25.40625 2.90625 25 2.90625 
C 21.703125 2.90625 18.5 3.5 18.5 7.09375 
C 18.5 8.09375 18.5 8.1875 18.90625 9.578125 
L 32.703125 64.515625 
L 32.796875 64.515625 
L 41.09375 2.6875 
C 41.40625 0.296875 41.5 0 42.40625 0 
C 43.5 0 44 0.796875 44.5 1.703125 
L 84.703125 65.015625 
L 84.796875 65.015625 
L 70.296875 7.390625 
C 69.40625 3.90625 69.203125 2.90625 62.203125 2.90625 
C 60.296875 2.90625 59.296875 2.90625 59.296875 1.09375 
C 59.296875 0 60.203125 0 60.796875 0 
C 62.5 0 64.5 0 66.203125 0 
L 78 0 
C 79.703125 0 81.796875 0 83.5 0 
C 84.296875 0 85.40625 0 85.40625 1.90625 
C 85.40625 2.90625 84.5 2.90625 83 2.90625 
C 76.90625 2.90625 76.90625 3.65625 76.90625 4.59375 
C 76.90625 4.703125 76.90625 5.390625 77.09375 6.1875 
z
" id="CMMI12-77"/>
     <path d="M 22.796875 20 
C 24.5 19.703125 27.203125 19.109375 27.796875 19 
C 29.09375 18.625 33.59375 17.03125 33.59375 12.234375 
C 33.59375 9.15625 30.796875 1.09375 19.203125 1.09375 
C 17.09375 1.09375 9.59375 1.09375 7.59375 6.8125 
C 11.59375 6.3125 13.59375 9.421875 13.59375 11.640625 
C 13.59375 13.75 12.203125 14.84375 10.203125 14.84375 
C 8 14.84375 5.09375 13.140625 5.09375 8.625 
C 5.09375 2.703125 11.09375 -1 19.09375 -1 
C 34.296875 -1 38.796875 10.171875 38.796875 15.375 
C 38.796875 16.859375 38.796875 19.65625 35.59375 22.84375 
C 33.09375 25.25 30.703125 25.75 25.296875 26.84375 
C 22.59375 27.4375 18.296875 28.34375 18.296875 32.828125 
C 18.296875 34.828125 20.09375 42.015625 29.59375 42.015625 
C 33.796875 42.015625 37.90625 40.453125 38.90625 37 
C 34.5 37 34.296875 33.203125 34.296875 33.109375 
C 34.296875 31 36.203125 30.40625 37.09375 30.40625 
C 38.5 30.40625 41.296875 31.484375 41.296875 35.640625 
C 41.296875 39.765625 37.5 44 29.703125 44 
C 16.59375 44 13.09375 33.75 13.09375 29.671875 
C 13.09375 22.09375 20.5 20.5 22.796875 20 
z
" id="CMMI12-115"/>
     <path d="M 20.09375 40.09375 
L 29.296875 40.09375 
C 31.203125 40.09375 32.203125 40.09375 32.203125 41.890625 
C 32.203125 43 31.59375 43 29.59375 43 
L 20.796875 43 
L 24.5 57.6875 
C 24.90625 59.078125 24.90625 59.28125 24.90625 60 
C 24.90625 61.609375 23.59375 62.5 22.296875 62.5 
C 21.5 62.5 19.203125 62.203125 18.40625 58.984375 
L 14.5 43 
L 5.09375 43 
C 3.09375 43 2.203125 43 2.203125 41.09375 
C 2.203125 40.09375 2.90625 40.09375 4.796875 40.09375 
L 13.703125 40.09375 
L 7.09375 13.765625 
C 6.296875 10.28125 6 9.28125 6 7.984375 
C 6 3.296875 9.296875 -1 14.90625 -1 
C 25 -1 30.40625 13.5625 30.40625 14.25 
C 30.40625 14.859375 30 15.15625 29.40625 15.15625 
C 29.203125 15.15625 28.796875 15.15625 28.59375 14.75 
C 28.5 14.65625 28.40625 14.546875 27.703125 12.953125 
C 25.59375 7.984375 21 1 15.203125 1 
C 12.203125 1 12 3.5 12 5.6875 
C 12 5.78125 12 7.6875 12.296875 8.875 
z
" id="CMMI12-116"/>
     <path d="M 28.296875 14.265625 
C 28.296875 14.765625 27.90625 15.171875 27.296875 15.171875 
C 26.40625 15.171875 26.296875 14.875 25.796875 13.171875 
C 23.203125 4.09375 19.09375 1 15.796875 1 
C 14.59375 1 13.203125 1.296875 13.203125 4.296875 
C 13.203125 6.984375 14.40625 9.984375 15.5 12.96875 
L 22.5 31.53125 
C 22.796875 32.328125 23.5 34.125 23.5 36.015625 
C 23.5 40.21875 20.5 44 15.59375 44 
C 6.40625 44 2.703125 29.53125 2.703125 28.734375 
C 2.703125 28.34375 3.09375 27.84375 3.796875 27.84375 
C 4.703125 27.84375 4.796875 28.234375 5.203125 29.625 
C 7.59375 37.9375 11.40625 41.90625 15.296875 41.90625 
C 16.203125 41.90625 17.90625 41.90625 17.90625 38.71875 
C 17.90625 36.125 16.59375 32.828125 15.796875 30.640625 
L 8.796875 12.078125 
C 8.203125 10.484375 7.59375 8.875 7.59375 7.078125 
C 7.59375 2.59375 10.703125 -1 15.5 -1 
C 24.703125 -1 28.296875 13.578125 28.296875 14.265625 
z
M 27.5 62.703125 
C 27.5 64.203125 26.296875 66 24.09375 66 
C 21.796875 66 19.203125 63.796875 19.203125 61.203125 
C 19.203125 58.71875 21.296875 57.921875 22.5 57.921875 
C 25.203125 57.921875 27.5 60.515625 27.5 62.703125 
z
" id="CMMI12-105"/>
     <path d="M 33.796875 12.671875 
C 33.40625 11.078125 33.203125 10.671875 31.90625 9.1875 
C 27.796875 3.890625 23.59375 2 20.5 2 
C 17.203125 2 14.09375 4.59375 14.09375 11.46875 
C 14.09375 16.765625 17.09375 27.9375 19.296875 32.4375 
C 22.203125 38.015625 26.703125 42.015625 30.90625 42.015625 
C 37.5 42.015625 38.796875 33.828125 38.796875 33.234375 
L 38.5 31.828125 
z
M 40 37.421875 
C 38.703125 40.3125 35.90625 44 30.90625 44 
C 20 44 7.59375 30.328125 7.59375 15.46875 
C 7.59375 5.09375 13.90625 0 20.296875 0 
C 25.59375 0 30.296875 4.1875 32.09375 6.1875 
L 29.90625 -2.671875 
C 28.5 -8.0625 27.90625 -10.53125 24.296875 -13.96875 
C 20.203125 -18 16.40625 -18 14.203125 -18 
C 11.203125 -18 8.703125 -17.796875 6.203125 -17.015625 
C 9.40625 -16.140625 10.203125 -13.40625 10.203125 -12.328125 
C 10.203125 -10.765625 9 -9.1875 6.796875 -9.1875 
C 4.40625 -9.1875 1.796875 -11.15625 1.796875 -14.40625 
C 1.796875 -18.4375 5.90625 -20 14.40625 -20 
C 27.296875 -20 34 -11.765625 35.296875 -6.40625 
L 46.40625 38.046875 
C 46.703125 39.234375 46.703125 39.4375 46.703125 39.625 
C 46.703125 41.015625 45.59375 42.109375 44.09375 42.109375 
C 41.703125 42.109375 40.296875 40.109375 40 37.421875 
z
" id="CMMI12-103"/>
     <path d="M 64.296875 31.515625 
C 65.796875 31.515625 67.296875 31.515625 67.296875 33.203125 
C 67.296875 35 65.59375 35 63.90625 35 
L 8 35 
C 6.296875 35 4.59375 35 4.59375 33.203125 
C 4.59375 31.515625 6.09375 31.515625 7.59375 31.515625 
z
M 63.90625 14 
C 65.59375 14 67.296875 14 67.296875 15.796875 
C 67.296875 17.484375 65.796875 17.484375 64.296875 17.484375 
L 7.59375 17.484375 
C 6.09375 17.484375 4.59375 17.484375 4.59375 15.796875 
C 4.59375 14 6.296875 14 8 14 
z
" id="CMR17-61"/>
     <path d="M 32.59375 -176 
L 39.5 -176 
L 39.5 -3 
L 65.90625 -3 
L 65.90625 3.90625 
L 32.59375 3.90625 
z
" id="CMEX10-50"/>
     <path d="M 32.59375 -60.09375 
L 39.5 -60.09375 
L 39.5 0.09375 
L 32.59375 0.09375 
z
" id="CMEX10-54"/>
     <path d="M 32.59375 -175.90625 
L 65.90625 -175.90625 
L 65.90625 -169 
L 39.5 -169 
L 39.5 4 
L 32.59375 4 
z
" id="CMEX10-52"/>
     <path d="M 26.59375 63.40625 
C 26.59375 65.5 26.5 65.5 25.09375 65.5 
C 21.203125 61.1875 15.296875 59.796875 9.703125 59.796875 
C 9.40625 59.796875 8.90625 59.796875 8.796875 59.5 
C 8.703125 59.296875 8.703125 59.09375 8.703125 57 
C 11.796875 57 17 57.59375 21 59.984375 
L 21 7.203125 
C 21 3.6875 20.796875 2.5 12.203125 2.5 
L 9.203125 2.5 
L 9.203125 0 
C 14 0 19 0 23.796875 0 
C 28.59375 0 33.59375 0 38.40625 0 
L 38.40625 2.5 
L 35.40625 2.5 
C 26.796875 2.5 26.59375 3.59375 26.59375 7.15625 
z
" id="CMR17-49"/>
     <path d="M 42 31.640625 
C 42 37.75 41.90625 48.125 37.703125 56.109375 
C 34 63.109375 28.09375 65.59375 22.90625 65.59375 
C 18.09375 65.59375 12 63.40625 8.203125 56.203125 
C 4.203125 48.71875 3.796875 39.4375 3.796875 31.640625 
C 3.796875 25.953125 3.90625 17.28125 7 9.671875 
C 11.296875 -0.609375 19 -2 22.90625 -2 
C 27.5 -2 34.5 -0.109375 38.59375 9.375 
C 41.59375 16.28125 42 24.359375 42 31.640625 
z
M 22.90625 -0.40625 
C 16.5 -0.40625 12.703125 5.078125 11.296875 12.6875 
C 10.203125 18.5625 10.203125 27.15625 10.203125 32.75 
C 10.203125 40.4375 10.203125 46.828125 11.5 52.921875 
C 13.40625 61.390625 19 64 22.90625 64 
C 27 64 32.296875 61.296875 34.203125 53.125 
C 35.5 47.4375 35.59375 40.734375 35.59375 32.75 
C 35.59375 26.25 35.59375 18.265625 34.40625 12.375 
C 32.296875 1.484375 26.40625 -0.40625 22.90625 -0.40625 
z
" id="CMR17-48"/>
     <path d="M 65.90625 23 
C 67.59375 23 69.40625 23 69.40625 25 
C 69.40625 27 67.59375 27 65.90625 27 
L 11.796875 27 
C 10.09375 27 8.296875 27 8.296875 25 
C 8.296875 23 10.09375 23 11.796875 23 
z
" id="CMSY10-0"/>
     <path d="M 44.59375 40.09375 
C 46.59375 40.09375 47.40625 40.09375 47.40625 42 
C 47.40625 43 46.59375 43 44.796875 43 
L 36.703125 43 
C 38.59375 53.578125 40 60.890625 40.796875 64.171875 
C 41.40625 66.640625 43.5 69 46.09375 69 
C 48.203125 69 50.296875 68.09375 51.296875 67.15625 
C 47.40625 66.75 46.203125 63.78125 46.203125 62.015625 
C 46.203125 59.953125 47.703125 58.734375 49.59375 58.734375 
C 51.59375 58.734375 54.59375 60.46875 54.59375 64.359375 
C 54.59375 68.640625 50.40625 71 46 71 
C 41.703125 71 37.5 67.71875 35.5 63.71875 
C 33.703125 60.125 32.703125 56.421875 30.40625 43 
L 23.703125 43 
C 21.796875 43 20.796875 43 20.796875 41.203125 
C 20.796875 40.09375 21.40625 40.09375 23.40625 40.09375 
L 29.796875 40.09375 
C 28 30.875 23.90625 8.46875 21.59375 -2.140625 
C 19.90625 -10.765625 18.40625 -18 13.40625 -18 
C 13.09375 -18 10.203125 -18 8.40625 -16.109375 
C 13.5 -15.703125 13.5 -11.34375 13.5 -11.25 
C 13.5 -9.265625 12 -8.078125 10.09375 -8.078125 
C 8.09375 -8.078125 5.09375 -9.765625 5.09375 -13.546875 
C 5.09375 -17.8125 9.5 -20 13.40625 -20 
C 23.59375 -20 27.796875 -1.84375 28.90625 3.109375 
C 30.703125 10.75 35.59375 37.125 36.09375 40.09375 
z
" id="CMMI12-102"/>
     <path d="M 47.40625 40.71875 
C 44.203125 40.109375 43 37.71875 43 35.828125 
C 43 33.421875 44.90625 32.625 46.296875 32.625 
C 49.296875 32.625 51.40625 35.21875 51.40625 37.921875 
C 51.40625 42.109375 46.59375 44 42.40625 44 
C 36.296875 44 32.90625 38.015625 32 36.125 
C 29.703125 44 23.5 44 21.703125 44 
C 11.5 44 6.09375 30.9375 6.09375 28.734375 
C 6.09375 28.34375 6.5 27.84375 7.203125 27.84375 
C 8 27.84375 8.203125 28.4375 8.40625 28.84375 
C 11.796875 39.921875 18.5 42.015625 21.40625 42.015625 
C 25.90625 42.015625 26.796875 37.8125 26.796875 35.421875 
C 26.796875 33.234375 26.203125 30.9375 25 26.140625 
L 21.59375 12.46875 
C 20.09375 6.484375 17.203125 1 11.90625 1 
C 11.40625 1 8.90625 1 6.796875 2.296875 
C 10.40625 3 11.203125 5.984375 11.203125 7.1875 
C 11.203125 9.1875 9.703125 10.375 7.796875 10.375 
C 5.40625 10.375 2.796875 8.28125 2.796875 5.09375 
C 2.796875 0.890625 7.5 -1 11.796875 -1 
C 16.59375 -1 20 2.796875 22.09375 6.890625 
C 23.703125 1 28.703125 -1 32.40625 -1 
C 42.59375 -1 48 12.078125 48 14.265625 
C 48 14.765625 47.59375 15.171875 47 15.171875 
C 46.09375 15.171875 46 14.671875 45.703125 13.875 
C 43 5.09375 37.203125 1 32.703125 1 
C 29.203125 1 27.296875 3.59375 27.296875 7.6875 
C 27.296875 9.875 27.703125 11.46875 29.296875 18.0625 
L 32.796875 31.625 
C 34.296875 37.625 37.703125 42.015625 42.296875 42.015625 
C 42.5 42.015625 45.296875 42.015625 47.40625 40.71875 
z
" id="CMMI12-120"/>
     <path d="M 26.296875 -10.9375 
C 23.59375 -14.671875 19.703125 -18 14.796875 -18 
C 13.59375 -18 8.796875 -18 7.296875 -13.890625 
C 7.59375 -13.984375 8.09375 -13.984375 8.296875 -13.984375 
C 11.296875 -13.984375 13.296875 -11.390625 13.296875 -9.09375 
C 13.296875 -6.796875 11.40625 -6 9.90625 -6 
C 8.296875 -6 4.796875 -7.15625 4.796875 -11.859375 
C 4.796875 -16.734375 9.09375 -20.09375 14.796875 -20.09375 
C 24.796875 -20.09375 34.90625 -10.9375 37.703125 0.09375 
L 47.5 38.828125 
C 47.59375 39.328125 47.796875 39.9375 47.796875 40.53125 
C 47.796875 42.015625 46.59375 43.015625 45.09375 43.015625 
C 44.203125 43.015625 42.09375 42.609375 41.296875 39.609375 
L 33.90625 10.28125 
C 33.40625 8.484375 33.40625 8.28125 32.59375 7.1875 
C 30.59375 4.390625 27.296875 1 22.5 1 
C 16.90625 1 16.40625 6.484375 16.40625 9.1875 
C 16.40625 14.875 19.09375 22.546875 21.796875 29.734375 
C 22.90625 32.625 23.5 34.03125 23.5 36.015625 
C 23.5 40.21875 20.5 44 15.59375 44 
C 6.40625 44 2.703125 29.53125 2.703125 28.734375 
C 2.703125 28.34375 3.09375 27.84375 3.796875 27.84375 
C 4.703125 27.84375 4.796875 28.234375 5.203125 29.640625 
C 7.59375 38.015625 11.40625 42.015625 15.296875 42.015625 
C 16.203125 42.015625 17.90625 42.015625 17.90625 38.71875 
C 17.90625 36.125 16.796875 33.234375 15.296875 29.4375 
C 10.40625 16.359375 10.40625 13.078125 10.40625 10.671875 
C 10.40625 1.203125 17.203125 -1 22.203125 -1 
C 25.09375 -1 28.703125 -0.09375 32.203125 3.59375 
L 32.296875 3.5 
C 30.796875 -2.296875 29.796875 -6.125 26.296875 -10.9375 
z
" id="CMMI12-121"/>
     <path d="M 27.09375 -176 
L 34 -176 
L 34 3.90625 
L 0.703125 3.90625 
L 0.703125 -3 
L 27.09375 -3 
z
" id="CMEX10-51"/>
     <path d="M 27.09375 -60.09375 
L 34 -60.09375 
L 34 0.09375 
L 27.09375 0.09375 
z
" id="CMEX10-55"/>
     <path d="M 27.09375 -169 
L 0.703125 -169 
L 0.703125 -175.90625 
L 34 -175.90625 
L 34 4 
L 27.09375 4 
z
" id="CMEX10-53"/>
    </defs>
    <use transform="scale(0.996264)" xlink:href="#CMMI12-77"/>
    <use transform="translate(94.373425 -14.943915)scale(0.697382)" xlink:href="#CMMI12-115"/>
    <use transform="translate(126.538314 -14.943915)scale(0.697382)" xlink:href="#CMMI12-116"/>
    <use transform="translate(151.196624 -14.943915)scale(0.697382)" xlink:href="#CMMI12-105"/>
    <use transform="translate(174.491531 -14.943915)scale(0.697382)" xlink:href="#CMMI12-103"/>
    <use transform="translate(237.863353 0)scale(0.996264)" xlink:href="#CMR17-61"/>
    <use transform="translate(337.25215 351.107404)scale(0.247871)" xlink:href="#CMEX10-50"/>
    <use transform="translate(337.25215 307.481724)scale(0.247871)" xlink:href="#CMEX10-54"/>
    <use transform="translate(337.25215 292.609349)scale(0.247871)" xlink:href="#CMEX10-54"/>
    <use transform="translate(337.25215 277.736975)scale(0.247871)" xlink:href="#CMEX10-54"/>
    <use transform="translate(337.25215 262.8646)scale(0.247871)" xlink:href="#CMEX10-54"/>
    <use transform="translate(337.25215 247.992225)scale(0.247871)" xlink:href="#CMEX10-54"/>
    <use transform="translate(337.25215 233.11985)scale(0.247871)" xlink:href="#CMEX10-54"/>
    <use transform="translate(337.25215 218.247475)scale(0.247871)" xlink:href="#CMEX10-54"/>
    <use transform="translate(337.25215 203.3751)scale(0.247871)" xlink:href="#CMEX10-54"/>
    <use transform="translate(337.25215 188.502725)scale(0.247871)" xlink:href="#CMEX10-54"/>
    <use transform="translate(337.25215 173.63035)scale(0.247871)" xlink:href="#CMEX10-54"/>
    <use transform="translate(337.25215 158.757975)scale(0.247871)" xlink:href="#CMEX10-54"/>
    <use transform="translate(337.25215 143.8856)scale(0.247871)" xlink:href="#CMEX10-54"/>
    <use transform="translate(337.25215 129.013225)scale(0.247871)" xlink:href="#CMEX10-54"/>
    <use transform="translate(337.25215 114.14085)scale(0.247871)" xlink:href="#CMEX10-54"/>
    <use transform="translate(337.25215 99.268475)scale(0.247871)" xlink:href="#CMEX10-54"/>
    <use transform="translate(337.25215 84.3961)scale(0.247871)" xlink:href="#CMEX10-54"/>
    <use transform="translate(337.25215 69.523725)scale(0.247871)" xlink:href="#CMEX10-54"/>
    <use transform="translate(337.25215 54.65135)scale(0.247871)" xlink:href="#CMEX10-54"/>
    <use transform="translate(337.25215 39.778975)scale(0.247871)" xlink:href="#CMEX10-54"/>
    <use transform="translate(337.25215 24.9066)scale(0.247871)" xlink:href="#CMEX10-54"/>
    <use transform="translate(337.25215 10.034225)scale(0.247871)" xlink:href="#CMEX10-54"/>
    <use transform="translate(337.25215 -4.83815)scale(0.247871)" xlink:href="#CMEX10-54"/>
    <use transform="translate(337.25215 -19.710525)scale(0.247871)" xlink:href="#CMEX10-54"/>
    <use transform="translate(337.25215 -34.5829)scale(0.247871)" xlink:href="#CMEX10-54"/>
    <use transform="translate(337.25215 -49.455275)scale(0.247871)" xlink:href="#CMEX10-54"/>
    <use transform="translate(337.25215 -64.327649)scale(0.247871)" xlink:href="#CMEX10-54"/>
    <use transform="translate(337.25215 -79.200024)scale(0.247871)" xlink:href="#CMEX10-54"/>
    <use transform="translate(337.25215 -94.072399)scale(0.247871)" xlink:href="#CMEX10-54"/>
    <use transform="translate(337.25215 -108.944774)scale(0.247871)" xlink:href="#CMEX10-54"/>
    <use transform="translate(337.25215 -123.817149)scale(0.247871)" xlink:href="#CMEX10-54"/>
    <use transform="translate(337.25215 -138.689524)scale(0.247871)" xlink:href="#CMEX10-54"/>
    <use transform="translate(337.25215 -153.561899)scale(0.247871)" xlink:href="#CMEX10-54"/>
    <use transform="translate(337.25215 -168.434274)scale(0.247871)" xlink:href="#CMEX10-54"/>
    <use transform="translate(337.25215 -183.306649)scale(0.247871)" xlink:href="#CMEX10-54"/>
    <use transform="translate(337.25215 -198.179024)scale(0.247871)" xlink:href="#CMEX10-54"/>
    <use transform="translate(337.25215 -213.051399)scale(0.247871)" xlink:href="#CMEX10-54"/>
    <use transform="translate(337.25215 -227.923774)scale(0.247871)" xlink:href="#CMEX10-54"/>
    <use transform="translate(337.25215 -242.796149)scale(0.247871)" xlink:href="#CMEX10-54"/>
    <use transform="translate(337.25215 -258.659969)scale(0.247871)" xlink:href="#CMEX10-52"/>
    <use transform="translate(401.807553 262.91472)scale(0.996264)" xlink:href="#CMR17-49"/>
    <use transform="translate(505.491309 262.91472)scale(0.996264)" xlink:href="#CMR17-48"/>
    <use transform="translate(608.101258 262.91472)scale(0.996264)" xlink:href="#CMR17-48"/>
    <use transform="translate(710.711191 262.91472)scale(0.996264)" xlink:href="#CMR17-48"/>
    <use transform="translate(766.364308 262.91472)scale(0.996264)" xlink:href="#CMR17-48"/>
    <use transform="translate(353.776898 138.381719)scale(0.996264)" xlink:href="#CMSY10-0"/>
    <use transform="translate(447.404934 177.60782)scale(0.697382)" xlink:href="#CMR17-49"/>
    <use transform="translate(432.459879 104.026466)scale(0.697382)" xlink:href="#CMMI12-102"/>
    <use transform="translate(466.117994 93.56577)scale(0.498132)" xlink:href="#CMMI12-120"/>
    <use transform="translate(505.491309 138.381719)scale(0.996264)" xlink:href="#CMR17-49"/>
    <use transform="translate(608.101258 138.381719)scale(0.996264)" xlink:href="#CMR17-48"/>
    <use transform="translate(710.711191 138.381719)scale(0.996264)" xlink:href="#CMR17-48"/>
    <use transform="translate(766.364308 138.381719)scale(0.996264)" xlink:href="#CMR17-48"/>
    <use transform="translate(401.807553 3.293588)scale(0.996264)" xlink:href="#CMR17-48"/>
    <use transform="translate(505.491309 3.293588)scale(0.996264)" xlink:href="#CMR17-48"/>
    <use transform="translate(608.101258 3.293588)scale(0.996264)" xlink:href="#CMR17-49"/>
    <use transform="translate(710.711191 3.293588)scale(0.996264)" xlink:href="#CMR17-48"/>
    <use transform="translate(766.364308 3.293588)scale(0.996264)" xlink:href="#CMR17-48"/>
    <use transform="translate(401.807553 -121.239413)scale(0.996264)" xlink:href="#CMR17-48"/>
    <use transform="translate(505.491309 -121.239413)scale(0.996264)" xlink:href="#CMR17-48"/>
    <use transform="translate(561.144427 -121.239413)scale(0.996264)" xlink:href="#CMSY10-0"/>
    <use transform="translate(653.698639 -82.013312)scale(0.697382)" xlink:href="#CMR17-49"/>
    <use transform="translate(639.827408 -155.594666)scale(0.697382)" xlink:href="#CMMI12-102"/>
    <use transform="translate(673.485522 -166.055362)scale(0.498132)" xlink:href="#CMMI12-121"/>
    <use transform="translate(710.711191 -121.239413)scale(0.996264)" xlink:href="#CMR17-49"/>
    <use transform="translate(766.364308 -121.239413)scale(0.996264)" xlink:href="#CMR17-48"/>
    <use transform="translate(401.807553 -262.91396)scale(0.996264)" xlink:href="#CMR17-48"/>
    <use transform="translate(505.491309 -262.91396)scale(0.996264)" xlink:href="#CMR17-48"/>
    <use transform="translate(608.101258 -262.91396)scale(0.996264)" xlink:href="#CMR17-48"/>
    <use transform="translate(710.711191 -262.91396)scale(0.996264)" xlink:href="#CMR17-48"/>
    <use transform="translate(766.364308 -262.91396)scale(0.996264)" xlink:href="#CMR17-49"/>
    <use transform="translate(812.054785 351.107404)scale(0.247871)" xlink:href="#CMEX10-51"/>
    <use transform="translate(812.054785 307.481724)scale(0.247871)" xlink:href="#CMEX10-55"/>
    <use transform="translate(812.054785 292.609349)scale(0.247871)" xlink:href="#CMEX10-55"/>
    <use transform="translate(812.054785 277.736975)scale(0.247871)" xlink:href="#CMEX10-55"/>
    <use transform="translate(812.054785 262.8646)scale(0.247871)" xlink:href="#CMEX10-55"/>
    <use transform="translate(812.054785 247.992225)scale(0.247871)" xlink:href="#CMEX10-55"/>
    <use transform="translate(812.054785 233.11985)scale(0.247871)" xlink:href="#CMEX10-55"/>
    <use transform="translate(812.054785 218.247475)scale(0.247871)" xlink:href="#CMEX10-55"/>
    <use transform="translate(812.054785 203.3751)scale(0.247871)" xlink:href="#CMEX10-55"/>
    <use transform="translate(812.054785 188.502725)scale(0.247871)" xlink:href="#CMEX10-55"/>
    <use transform="translate(812.054785 173.63035)scale(0.247871)" xlink:href="#CMEX10-55"/>
    <use transform="translate(812.054785 158.757975)scale(0.247871)" xlink:href="#CMEX10-55"/>
    <use transform="translate(812.054785 143.8856)scale(0.247871)" xlink:href="#CMEX10-55"/>
    <use transform="translate(812.054785 129.013225)scale(0.247871)" xlink:href="#CMEX10-55"/>
    <use transform="translate(812.054785 114.14085)scale(0.247871)" xlink:href="#CMEX10-55"/>
    <use transform="translate(812.054785 99.268475)scale(0.247871)" xlink:href="#CMEX10-55"/>
    <use transform="translate(812.054785 84.3961)scale(0.247871)" xlink:href="#CMEX10-55"/>
    <use transform="translate(812.054785 69.523725)scale(0.247871)" xlink:href="#CMEX10-55"/>
    <use transform="translate(812.054785 54.65135)scale(0.247871)" xlink:href="#CMEX10-55"/>
    <use transform="translate(812.054785 39.778975)scale(0.247871)" xlink:href="#CMEX10-55"/>
    <use transform="translate(812.054785 24.9066)scale(0.247871)" xlink:href="#CMEX10-55"/>
    <use transform="translate(812.054785 10.034225)scale(0.247871)" xlink:href="#CMEX10-55"/>
    <use transform="translate(812.054785 -4.83815)scale(0.247871)" xlink:href="#CMEX10-55"/>
    <use transform="translate(812.054785 -19.710525)scale(0.247871)" xlink:href="#CMEX10-55"/>
    <use transform="translate(812.054785 -34.5829)scale(0.247871)" xlink:href="#CMEX10-55"/>
    <use transform="translate(812.054785 -49.455275)scale(0.247871)" xlink:href="#CMEX10-55"/>
    <use transform="translate(812.054785 -64.327649)scale(0.247871)" xlink:href="#CMEX10-55"/>
    <use transform="translate(812.054785 -79.200024)scale(0.247871)" xlink:href="#CMEX10-55"/>
    <use transform="translate(812.054785 -94.072399)scale(0.247871)" xlink:href="#CMEX10-55"/>
    <use transform="translate(812.054785 -108.944774)scale(0.247871)" xlink:href="#CMEX10-55"/>
    <use transform="translate(812.054785 -123.817149)scale(0.247871)" xlink:href="#CMEX10-55"/>
    <use transform="translate(812.054785 -138.689524)scale(0.247871)" xlink:href="#CMEX10-55"/>
    <use transform="translate(812.054785 -153.561899)scale(0.247871)" xlink:href="#CMEX10-55"/>
    <use transform="translate(812.054785 -168.434274)scale(0.247871)" xlink:href="#CMEX10-55"/>
    <use transform="translate(812.054785 -183.306649)scale(0.247871)" xlink:href="#CMEX10-55"/>
    <use transform="translate(812.054785 -198.179024)scale(0.247871)" xlink:href="#CMEX10-55"/>
    <use transform="translate(812.054785 -213.051399)scale(0.247871)" xlink:href="#CMEX10-55"/>
    <use transform="translate(812.054785 -227.923774)scale(0.247871)" xlink:href="#CMEX10-55"/>
    <use transform="translate(812.054785 -242.796149)scale(0.247871)" xlink:href="#CMEX10-55"/>
    <use transform="translate(812.054785 -258.659969)scale(0.247871)" xlink:href="#CMEX10-53"/>
    <path d="M 432.459879 162.792604 
L 494.333156 162.792604 
L 494.333156 163.784049 
L 432.459879 163.784049 
L 432.459879 162.792604 
z
"/>
    <path d="M 639.827408 -96.828528 
L 699.553037 -96.828528 
L 699.553037 -95.837083 
L 639.827408 -95.837083 
L 639.827408 -96.828528 
z
"/>
   </g>
  </g>
 </g>
</svg>
